<?xml version="1.0" standalone="no"?>
 <!DOCTYPE svg PUBLIC "-//W3C//DTD SVG 1.1//EN" 
 "http://www.w3.org/Graphics/SVG/1.1/DTD/svg11.dtd"> 
<svg xmlns="http://www.w3.org/2000/svg" version="1.1" 
    width="29.7002cm" height="21.0007cm" viewBox="0 0 116930 82680 ">
<title>SVG Picture created as Single_transistor_AMP-B_Cu.svg date 2019/05/08 19:21:52 </title>
  <desc>Picture generated by PCBNEW </desc>
<g style="fill:#000000; fill-opacity:1;stroke:#000000; stroke-opacity:1;
stroke-linecap:round; stroke-linejoin:round; "
 transform="translate(0 0) scale(1 1)">
</g>
<g style="fill:#000000; fill-opacity:0.0; 
stroke:#000000; stroke-width:-0.000393701; stroke-opacity:1; 
stroke-linecap:round; stroke-linejoin:round;">
</g>
<g style="fill:#000000; fill-opacity:0.0; 
stroke:#000000; stroke-width:39.3701; stroke-opacity:1; 
stroke-linecap:round; stroke-linejoin:round;">
</g>
<g style="fill:#000000; fill-opacity:0.0; 
stroke:#000000; stroke-width:59.0551; stroke-opacity:1; 
stroke-linecap:round; stroke-linejoin:round;">
<rect x="69685.9" y="65357.2" width="42519.7" height="12598.4" rx="0" />
</g>
<g style="fill:#000000; fill-opacity:0.0; 
stroke:#000000; stroke-width:39.3701; stroke-opacity:1; 
stroke-linecap:round; stroke-linejoin:round;">
</g>
<g style="fill:#000000; fill-opacity:0.0; 
stroke:#000000; stroke-width:59.0551; stroke-opacity:1; 
stroke-linecap:round; stroke-linejoin:round;">
<rect x="3937.01" y="3937.01" width="109056" height="74806" rx="0" />
</g>
<g style="fill:#000000; fill-opacity:0.0; 
stroke:#000000; stroke-width:39.3701; stroke-opacity:1; 
stroke-linecap:round; stroke-linejoin:round;">
</g>
<g style="fill:#000000; fill-opacity:0.0; 
stroke:#000000; stroke-width:59.0551; stroke-opacity:1; 
stroke-linecap:round; stroke-linejoin:round;">
<rect x="4724.41" y="4724.41" width="107481" height="73231.2" rx="0" />
</g>
<g style="fill:#000000; fill-opacity:0.0; 
stroke:#000000; stroke-width:39.3701; stroke-opacity:1; 
stroke-linecap:round; stroke-linejoin:round;">
</g>
<g style="fill:#000000; fill-opacity:0.0; 
stroke:#000000; stroke-width:59.0551; stroke-opacity:1; 
stroke-linecap:round; stroke-linejoin:round;">
<path d="M23622 4724
L23622 3937
" />
</g>
<g style="fill:#000000; fill-opacity:0.0; 
stroke:#000000; stroke-width:39.3701; stroke-opacity:1; 
stroke-linecap:round; stroke-linejoin:round;">
</g>
<g style="fill:#000000; fill-opacity:0.0; 
stroke:#000000; stroke-width:59.0551; stroke-opacity:1; 
stroke-linecap:round; stroke-linejoin:round;">
<path d="M43307 4724
L43307 3937
" />
</g>
<g style="fill:#000000; fill-opacity:0.0; 
stroke:#000000; stroke-width:39.3701; stroke-opacity:1; 
stroke-linecap:round; stroke-linejoin:round;">
</g>
<g style="fill:#000000; fill-opacity:0.0; 
stroke:#000000; stroke-width:59.0551; stroke-opacity:1; 
stroke-linecap:round; stroke-linejoin:round;">
<path d="M62992 4724
L62992 3937
" />
</g>
<g style="fill:#000000; fill-opacity:0.0; 
stroke:#000000; stroke-width:39.3701; stroke-opacity:1; 
stroke-linecap:round; stroke-linejoin:round;">
</g>
<g style="fill:#000000; fill-opacity:0.0; 
stroke:#000000; stroke-width:59.0551; stroke-opacity:1; 
stroke-linecap:round; stroke-linejoin:round;">
<path d="M82677 4724
L82677 3937
" />
</g>
<g style="fill:#000000; fill-opacity:0.0; 
stroke:#000000; stroke-width:39.3701; stroke-opacity:1; 
stroke-linecap:round; stroke-linejoin:round;">
</g>
<g style="fill:#000000; fill-opacity:0.0; 
stroke:#000000; stroke-width:59.0551; stroke-opacity:1; 
stroke-linecap:round; stroke-linejoin:round;">
<path d="M102362 4724
L102362 3937
" />
</g>
<g style="fill:#000000; fill-opacity:0.0; 
stroke:#000000; stroke-width:39.3701; stroke-opacity:1; 
stroke-linecap:round; stroke-linejoin:round;">
</g>
<g style="fill:#000000; fill-opacity:0.0; 
stroke:#000000; stroke-width:59.0551; stroke-opacity:1; 
stroke-linecap:round; stroke-linejoin:round;">
<path d="M14199 4562
L13906 4562
" />
<path d="M14052 4562
L14052 4050
L14004 4123
L13955 4172
L13906 4196
" />
</g>
<g style="fill:#000000; fill-opacity:0.0; 
stroke:#000000; stroke-width:39.3701; stroke-opacity:1; 
stroke-linecap:round; stroke-linejoin:round;">
</g>
<g style="fill:#000000; fill-opacity:0.0; 
stroke:#000000; stroke-width:59.0551; stroke-opacity:1; 
stroke-linecap:round; stroke-linejoin:round;">
<path d="M33591 4099
L33615 4074
L33664 4050
L33786 4050
L33835 4074
L33859 4099
L33884 4147
L33884 4196
L33859 4269
L33567 4562
L33884 4562
" />
</g>
<g style="fill:#000000; fill-opacity:0.0; 
stroke:#000000; stroke-width:39.3701; stroke-opacity:1; 
stroke-linecap:round; stroke-linejoin:round;">
</g>
<g style="fill:#000000; fill-opacity:0.0; 
stroke:#000000; stroke-width:59.0551; stroke-opacity:1; 
stroke-linecap:round; stroke-linejoin:round;">
<path d="M53252 4050
L53569 4050
L53398 4245
L53471 4245
L53520 4269
L53544 4294
L53569 4342
L53569 4464
L53544 4513
L53520 4537
L53471 4562
L53325 4562
L53276 4537
L53252 4513
" />
</g>
<g style="fill:#000000; fill-opacity:0.0; 
stroke:#000000; stroke-width:39.3701; stroke-opacity:1; 
stroke-linecap:round; stroke-linejoin:round;">
</g>
<g style="fill:#000000; fill-opacity:0.0; 
stroke:#000000; stroke-width:59.0551; stroke-opacity:1; 
stroke-linecap:round; stroke-linejoin:round;">
<path d="M73205 4221
L73205 4562
" />
<path d="M73083 4026
L72961 4391
L73278 4391
" />
</g>
<g style="fill:#000000; fill-opacity:0.0; 
stroke:#000000; stroke-width:39.3701; stroke-opacity:1; 
stroke-linecap:round; stroke-linejoin:round;">
</g>
<g style="fill:#000000; fill-opacity:0.0; 
stroke:#000000; stroke-width:59.0551; stroke-opacity:1; 
stroke-linecap:round; stroke-linejoin:round;">
<path d="M92914 4050
L92671 4050
L92646 4294
L92671 4269
L92719 4245
L92841 4245
L92890 4269
L92914 4294
L92939 4342
L92939 4464
L92914 4513
L92890 4537
L92841 4562
L92719 4562
L92671 4537
L92646 4513
" />
</g>
<g style="fill:#000000; fill-opacity:0.0; 
stroke:#000000; stroke-width:39.3701; stroke-opacity:1; 
stroke-linecap:round; stroke-linejoin:round;">
</g>
<g style="fill:#000000; fill-opacity:0.0; 
stroke:#000000; stroke-width:59.0551; stroke-opacity:1; 
stroke-linecap:round; stroke-linejoin:round;">
<path d="M112575 4050
L112477 4050
L112429 4074
L112404 4099
L112356 4172
L112331 4269
L112331 4464
L112356 4513
L112380 4537
L112429 4562
L112526 4562
L112575 4537
L112599 4513
L112624 4464
L112624 4342
L112599 4294
L112575 4269
L112526 4245
L112429 4245
L112380 4269
L112356 4294
L112331 4342
" />
</g>
<g style="fill:#000000; fill-opacity:0.0; 
stroke:#000000; stroke-width:39.3701; stroke-opacity:1; 
stroke-linecap:round; stroke-linejoin:round;">
</g>
<g style="fill:#000000; fill-opacity:0.0; 
stroke:#000000; stroke-width:59.0551; stroke-opacity:1; 
stroke-linecap:round; stroke-linejoin:round;">
<path d="M23622 77955
L23622 78742
" />
</g>
<g style="fill:#000000; fill-opacity:0.0; 
stroke:#000000; stroke-width:39.3701; stroke-opacity:1; 
stroke-linecap:round; stroke-linejoin:round;">
</g>
<g style="fill:#000000; fill-opacity:0.0; 
stroke:#000000; stroke-width:59.0551; stroke-opacity:1; 
stroke-linecap:round; stroke-linejoin:round;">
<path d="M43307 77955
L43307 78742
" />
</g>
<g style="fill:#000000; fill-opacity:0.0; 
stroke:#000000; stroke-width:39.3701; stroke-opacity:1; 
stroke-linecap:round; stroke-linejoin:round;">
</g>
<g style="fill:#000000; fill-opacity:0.0; 
stroke:#000000; stroke-width:59.0551; stroke-opacity:1; 
stroke-linecap:round; stroke-linejoin:round;">
<path d="M62992 77955
L62992 78742
" />
</g>
<g style="fill:#000000; fill-opacity:0.0; 
stroke:#000000; stroke-width:39.3701; stroke-opacity:1; 
stroke-linecap:round; stroke-linejoin:round;">
</g>
<g style="fill:#000000; fill-opacity:0.0; 
stroke:#000000; stroke-width:59.0551; stroke-opacity:1; 
stroke-linecap:round; stroke-linejoin:round;">
<path d="M82677 77955
L82677 78742
" />
</g>
<g style="fill:#000000; fill-opacity:0.0; 
stroke:#000000; stroke-width:39.3701; stroke-opacity:1; 
stroke-linecap:round; stroke-linejoin:round;">
</g>
<g style="fill:#000000; fill-opacity:0.0; 
stroke:#000000; stroke-width:59.0551; stroke-opacity:1; 
stroke-linecap:round; stroke-linejoin:round;">
<path d="M102362 77955
L102362 78742
" />
</g>
<g style="fill:#000000; fill-opacity:0.0; 
stroke:#000000; stroke-width:39.3701; stroke-opacity:1; 
stroke-linecap:round; stroke-linejoin:round;">
</g>
<g style="fill:#000000; fill-opacity:0.0; 
stroke:#000000; stroke-width:59.0551; stroke-opacity:1; 
stroke-linecap:round; stroke-linejoin:round;">
<path d="M14199 78580
L13906 78580
" />
<path d="M14052 78580
L14052 78069
L14004 78142
L13955 78190
L13906 78215
" />
</g>
<g style="fill:#000000; fill-opacity:0.0; 
stroke:#000000; stroke-width:39.3701; stroke-opacity:1; 
stroke-linecap:round; stroke-linejoin:round;">
</g>
<g style="fill:#000000; fill-opacity:0.0; 
stroke:#000000; stroke-width:59.0551; stroke-opacity:1; 
stroke-linecap:round; stroke-linejoin:round;">
<path d="M33591 78117
L33615 78093
L33664 78069
L33786 78069
L33835 78093
L33859 78117
L33884 78166
L33884 78215
L33859 78288
L33567 78580
L33884 78580
" />
</g>
<g style="fill:#000000; fill-opacity:0.0; 
stroke:#000000; stroke-width:39.3701; stroke-opacity:1; 
stroke-linecap:round; stroke-linejoin:round;">
</g>
<g style="fill:#000000; fill-opacity:0.0; 
stroke:#000000; stroke-width:59.0551; stroke-opacity:1; 
stroke-linecap:round; stroke-linejoin:round;">
<path d="M53252 78069
L53569 78069
L53398 78263
L53471 78263
L53520 78288
L53544 78312
L53569 78361
L53569 78483
L53544 78532
L53520 78556
L53471 78580
L53325 78580
L53276 78556
L53252 78532
" />
</g>
<g style="fill:#000000; fill-opacity:0.0; 
stroke:#000000; stroke-width:39.3701; stroke-opacity:1; 
stroke-linecap:round; stroke-linejoin:round;">
</g>
<g style="fill:#000000; fill-opacity:0.0; 
stroke:#000000; stroke-width:59.0551; stroke-opacity:1; 
stroke-linecap:round; stroke-linejoin:round;">
<path d="M73205 78239
L73205 78580
" />
<path d="M73083 78044
L72961 78410
L73278 78410
" />
</g>
<g style="fill:#000000; fill-opacity:0.0; 
stroke:#000000; stroke-width:39.3701; stroke-opacity:1; 
stroke-linecap:round; stroke-linejoin:round;">
</g>
<g style="fill:#000000; fill-opacity:0.0; 
stroke:#000000; stroke-width:59.0551; stroke-opacity:1; 
stroke-linecap:round; stroke-linejoin:round;">
<path d="M92914 78069
L92671 78069
L92646 78312
L92671 78288
L92719 78263
L92841 78263
L92890 78288
L92914 78312
L92939 78361
L92939 78483
L92914 78532
L92890 78556
L92841 78580
L92719 78580
L92671 78556
L92646 78532
" />
</g>
<g style="fill:#000000; fill-opacity:0.0; 
stroke:#000000; stroke-width:39.3701; stroke-opacity:1; 
stroke-linecap:round; stroke-linejoin:round;">
</g>
<g style="fill:#000000; fill-opacity:0.0; 
stroke:#000000; stroke-width:59.0551; stroke-opacity:1; 
stroke-linecap:round; stroke-linejoin:round;">
<path d="M112575 78069
L112477 78069
L112429 78093
L112404 78117
L112356 78190
L112331 78288
L112331 78483
L112356 78532
L112380 78556
L112429 78580
L112526 78580
L112575 78556
L112599 78532
L112624 78483
L112624 78361
L112599 78312
L112575 78288
L112526 78263
L112429 78263
L112380 78288
L112356 78312
L112331 78361
" />
</g>
<g style="fill:#000000; fill-opacity:0.0; 
stroke:#000000; stroke-width:39.3701; stroke-opacity:1; 
stroke-linecap:round; stroke-linejoin:round;">
</g>
<g style="fill:#000000; fill-opacity:0.0; 
stroke:#000000; stroke-width:59.0551; stroke-opacity:1; 
stroke-linecap:round; stroke-linejoin:round;">
<path d="M3937 23622
L4724 23622
" />
</g>
<g style="fill:#000000; fill-opacity:0.0; 
stroke:#000000; stroke-width:39.3701; stroke-opacity:1; 
stroke-linecap:round; stroke-linejoin:round;">
</g>
<g style="fill:#000000; fill-opacity:0.0; 
stroke:#000000; stroke-width:59.0551; stroke-opacity:1; 
stroke-linecap:round; stroke-linejoin:round;">
<path d="M3937 43307
L4724 43307
" />
</g>
<g style="fill:#000000; fill-opacity:0.0; 
stroke:#000000; stroke-width:39.3701; stroke-opacity:1; 
stroke-linecap:round; stroke-linejoin:round;">
</g>
<g style="fill:#000000; fill-opacity:0.0; 
stroke:#000000; stroke-width:59.0551; stroke-opacity:1; 
stroke-linecap:round; stroke-linejoin:round;">
<path d="M3937 62992
L4724 62992
" />
</g>
<g style="fill:#000000; fill-opacity:0.0; 
stroke:#000000; stroke-width:39.3701; stroke-opacity:1; 
stroke-linecap:round; stroke-linejoin:round;">
</g>
<g style="fill:#000000; fill-opacity:0.0; 
stroke:#000000; stroke-width:59.0551; stroke-opacity:1; 
stroke-linecap:round; stroke-linejoin:round;">
<path d="M4208 13864
L4452 13864
" />
<path d="M4160 14011
L4330 13499
L4501 14011
" />
</g>
<g style="fill:#000000; fill-opacity:0.0; 
stroke:#000000; stroke-width:39.3701; stroke-opacity:1; 
stroke-linecap:round; stroke-linejoin:round;">
</g>
<g style="fill:#000000; fill-opacity:0.0; 
stroke:#000000; stroke-width:59.0551; stroke-opacity:1; 
stroke-linecap:round; stroke-linejoin:round;">
<path d="M4367 33428
L4440 33452
L4464 33476
L4489 33525
L4489 33598
L4464 33647
L4440 33671
L4391 33696
L4196 33696
L4196 33184
L4367 33184
L4416 33208
L4440 33233
L4464 33281
L4464 33330
L4440 33379
L4416 33403
L4367 33428
L4196 33428
" />
</g>
<g style="fill:#000000; fill-opacity:0.0; 
stroke:#000000; stroke-width:39.3701; stroke-opacity:1; 
stroke-linecap:round; stroke-linejoin:round;">
</g>
<g style="fill:#000000; fill-opacity:0.0; 
stroke:#000000; stroke-width:59.0551; stroke-opacity:1; 
stroke-linecap:round; stroke-linejoin:round;">
<path d="M4489 53332
L4464 53356
L4391 53381
L4342 53381
L4269 53356
L4221 53308
L4196 53259
L4172 53161
L4172 53088
L4196 52991
L4221 52942
L4269 52893
L4342 52869
L4391 52869
L4464 52893
L4489 52918
" />
</g>
<g style="fill:#000000; fill-opacity:0.0; 
stroke:#000000; stroke-width:39.3701; stroke-opacity:1; 
stroke-linecap:round; stroke-linejoin:round;">
</g>
<g style="fill:#000000; fill-opacity:0.0; 
stroke:#000000; stroke-width:59.0551; stroke-opacity:1; 
stroke-linecap:round; stroke-linejoin:round;">
<path d="M4196 73066
L4196 72554
L4318 72554
L4391 72578
L4440 72627
L4464 72676
L4489 72773
L4489 72846
L4464 72944
L4440 72993
L4391 73041
L4318 73066
L4196 73066
" />
</g>
<g style="fill:#000000; fill-opacity:0.0; 
stroke:#000000; stroke-width:39.3701; stroke-opacity:1; 
stroke-linecap:round; stroke-linejoin:round;">
</g>
<g style="fill:#000000; fill-opacity:0.0; 
stroke:#000000; stroke-width:59.0551; stroke-opacity:1; 
stroke-linecap:round; stroke-linejoin:round;">
<path d="M112992 23622
L112205 23622
" />
</g>
<g style="fill:#000000; fill-opacity:0.0; 
stroke:#000000; stroke-width:39.3701; stroke-opacity:1; 
stroke-linecap:round; stroke-linejoin:round;">
</g>
<g style="fill:#000000; fill-opacity:0.0; 
stroke:#000000; stroke-width:59.0551; stroke-opacity:1; 
stroke-linecap:round; stroke-linejoin:round;">
<path d="M112992 43307
L112205 43307
" />
</g>
<g style="fill:#000000; fill-opacity:0.0; 
stroke:#000000; stroke-width:39.3701; stroke-opacity:1; 
stroke-linecap:round; stroke-linejoin:round;">
</g>
<g style="fill:#000000; fill-opacity:0.0; 
stroke:#000000; stroke-width:59.0551; stroke-opacity:1; 
stroke-linecap:round; stroke-linejoin:round;">
<path d="M112992 62992
L112205 62992
" />
</g>
<g style="fill:#000000; fill-opacity:0.0; 
stroke:#000000; stroke-width:39.3701; stroke-opacity:1; 
stroke-linecap:round; stroke-linejoin:round;">
</g>
<g style="fill:#000000; fill-opacity:0.0; 
stroke:#000000; stroke-width:59.0551; stroke-opacity:1; 
stroke-linecap:round; stroke-linejoin:round;">
<path d="M112477 13864
L112721 13864
" />
<path d="M112428 14011
L112599 13499
L112769 14011
" />
</g>
<g style="fill:#000000; fill-opacity:0.0; 
stroke:#000000; stroke-width:39.3701; stroke-opacity:1; 
stroke-linecap:round; stroke-linejoin:round;">
</g>
<g style="fill:#000000; fill-opacity:0.0; 
stroke:#000000; stroke-width:59.0551; stroke-opacity:1; 
stroke-linecap:round; stroke-linejoin:round;">
<path d="M112635 33428
L112708 33452
L112733 33476
L112757 33525
L112757 33598
L112733 33647
L112708 33671
L112660 33696
L112465 33696
L112465 33184
L112635 33184
L112684 33208
L112708 33233
L112733 33281
L112733 33330
L112708 33379
L112684 33403
L112635 33428
L112465 33428
" />
</g>
<g style="fill:#000000; fill-opacity:0.0; 
stroke:#000000; stroke-width:39.3701; stroke-opacity:1; 
stroke-linecap:round; stroke-linejoin:round;">
</g>
<g style="fill:#000000; fill-opacity:0.0; 
stroke:#000000; stroke-width:59.0551; stroke-opacity:1; 
stroke-linecap:round; stroke-linejoin:round;">
<path d="M112757 53332
L112733 53356
L112660 53381
L112611 53381
L112538 53356
L112489 53308
L112465 53259
L112440 53161
L112440 53088
L112465 52991
L112489 52942
L112538 52893
L112611 52869
L112660 52869
L112733 52893
L112757 52918
" />
</g>
<g style="fill:#000000; fill-opacity:0.0; 
stroke:#000000; stroke-width:39.3701; stroke-opacity:1; 
stroke-linecap:round; stroke-linejoin:round;">
</g>
<g style="fill:#000000; fill-opacity:0.0; 
stroke:#000000; stroke-width:59.0551; stroke-opacity:1; 
stroke-linecap:round; stroke-linejoin:round;">
<path d="M112465 73066
L112465 72554
L112587 72554
L112660 72578
L112708 72627
L112733 72676
L112757 72773
L112757 72846
L112733 72944
L112708 72993
L112660 73041
L112587 73066
L112465 73066
" />
</g>
<g style="fill:#000000; fill-opacity:0.0; 
stroke:#000000; stroke-width:39.3701; stroke-opacity:1; 
stroke-linecap:round; stroke-linejoin:round;">
</g>
<g style="fill:#000000; fill-opacity:0.0; 
stroke:#000000; stroke-width:59.0551; stroke-opacity:1; 
stroke-linecap:round; stroke-linejoin:round;">
<path d="M78911 76293
L78911 75703
L79051 75703
L79136 75731
L79192 75787
L79220 75843
L79248 75956
L79248 76040
L79220 76153
L79192 76209
L79136 76265
L79051 76293
L78911 76293
" />
<path d="M79754 76293
L79754 75984
L79726 75928
L79670 75899
L79557 75899
L79501 75928
" />
<path d="M79754 76265
L79698 76293
L79557 76293
L79501 76265
L79473 76209
L79473 76153
L79501 76096
L79557 76068
L79698 76068
L79754 76040
" />
<path d="M79951 75899
L80176 75899
" />
<path d="M80036 75703
L80036 76209
L80064 76265
L80120 76293
L80176 76293
" />
<path d="M80598 76265
L80542 76293
L80429 76293
L80373 76265
L80345 76209
L80345 75984
L80373 75928
L80429 75899
L80542 75899
L80598 75928
L80626 75984
L80626 76040
L80345 76096
" />
<path d="M80879 76237
L80907 76265
L80879 76293
L80851 76265
L80879 76237
L80879 76293
" />
<path d="M80879 75928
L80907 75956
L80879 75984
L80851 75956
L80879 75928
L80879 75984
" />
<path d="M81582 75759
L81610 75731
L81667 75703
L81807 75703
L81863 75731
L81892 75759
L81920 75815
L81920 75871
L81892 75956
L81554 76293
L81920 76293
" />
<path d="M82285 75703
L82341 75703
L82398 75731
L82426 75759
L82454 75815
L82482 75928
L82482 76068
L82454 76181
L82426 76237
L82398 76265
L82341 76293
L82285 76293
L82229 76265
L82201 76237
L82173 76181
L82145 76068
L82145 75928
L82173 75815
L82201 75759
L82229 75731
L82285 75703
" />
<path d="M83045 76293
L82707 76293
" />
<path d="M82876 76293
L82876 75703
L82820 75787
L82763 75843
L82707 75871
" />
<path d="M83326 76293
L83438 76293
L83494 76265
L83523 76237
L83579 76153
L83607 76040
L83607 75815
L83579 75759
L83551 75731
L83494 75703
L83382 75703
L83326 75731
L83298 75759
L83269 75815
L83269 75956
L83298 76012
L83326 76040
L83382 76068
L83494 76068
L83551 76040
L83579 76012
L83607 75956
" />
<path d="M83860 76068
L84310 76068
" />
<path d="M84704 75703
L84760 75703
L84816 75731
L84844 75759
L84872 75815
L84901 75928
L84901 76068
L84872 76181
L84844 76237
L84816 76265
L84760 76293
L84704 76293
L84647 76265
L84619 76237
L84591 76181
L84563 76068
L84563 75928
L84591 75815
L84619 75759
L84647 75731
L84704 75703
" />
<path d="M85435 75703
L85154 75703
L85126 75984
L85154 75956
L85210 75928
L85350 75928
L85407 75956
L85435 75984
L85463 76040
L85463 76181
L85435 76237
L85407 76265
L85350 76293
L85210 76293
L85154 76265
L85126 76237
" />
<path d="M85716 76068
L86166 76068
" />
<path d="M86560 75703
L86616 75703
L86672 75731
L86700 75759
L86728 75815
L86757 75928
L86757 76068
L86728 76181
L86700 76237
L86672 76265
L86616 76293
L86560 76293
L86503 76265
L86475 76237
L86447 76181
L86419 76068
L86419 75928
L86447 75815
L86475 75759
L86503 75731
L86560 75703
" />
<path d="M86953 75703
L87319 75703
L87122 75928
L87206 75928
L87263 75956
L87291 75984
L87319 76040
L87319 76181
L87291 76237
L87263 76265
L87206 76293
L87038 76293
L86982 76265
L86953 76237
" />
</g>
<g style="fill:#000000; fill-opacity:0.0; 
stroke:#000000; stroke-width:39.3701; stroke-opacity:1; 
stroke-linecap:round; stroke-linejoin:round;">
</g>
<g style="fill:#000000; fill-opacity:0.0; 
stroke:#000000; stroke-width:59.0551; stroke-opacity:1; 
stroke-linecap:round; stroke-linejoin:round;">
<path d="M69685 76577
L112205 76577
" />
</g>
<g style="fill:#000000; fill-opacity:0.0; 
stroke:#000000; stroke-width:39.3701; stroke-opacity:1; 
stroke-linecap:round; stroke-linejoin:round;">
</g>
<g style="fill:#000000; fill-opacity:0.0; 
stroke:#000000; stroke-width:59.0551; stroke-opacity:1; 
stroke-linecap:round; stroke-linejoin:round;">
<path d="M70249 77395
L70249 76805
" />
<path d="M70587 77395
L70334 77058
" />
<path d="M70587 76805
L70249 77142
" />
<path d="M70840 77395
L70840 77002
" />
<path d="M70840 76805
L70812 76833
L70840 76861
L70868 76833
L70840 76805
L70840 76861
" />
<path d="M71458 77339
L71430 77367
L71346 77395
L71290 77395
L71205 77367
L71149 77311
L71121 77255
L71093 77142
L71093 77058
L71121 76946
L71149 76889
L71205 76833
L71290 76805
L71346 76805
L71430 76833
L71458 76861
" />
<path d="M71965 77395
L71965 77086
L71937 77030
L71880 77002
L71768 77002
L71712 77030
" />
<path d="M71965 77367
L71908 77395
L71768 77395
L71712 77367
L71683 77311
L71683 77255
L71712 77199
L71768 77171
L71908 77171
L71965 77142
" />
<path d="M72499 77395
L72499 76805
" />
<path d="M72499 77367
L72443 77395
L72330 77395
L72274 77367
L72246 77339
L72218 77283
L72218 77114
L72246 77058
L72274 77030
L72330 77002
L72443 77002
L72499 77030
" />
<path d="M73230 77086
L73427 77086
" />
<path d="M73511 77395
L73230 77395
L73230 76805
L73511 76805
" />
<path d="M73764 77339
L73793 77367
L73764 77395
L73736 77367
L73764 77339
L73764 77395
" />
<path d="M74046 77395
L74046 76805
L74186 76805
L74271 76833
L74327 76889
L74355 76946
L74383 77058
L74383 77142
L74355 77255
L74327 77311
L74271 77367
L74186 77395
L74046 77395
" />
<path d="M74636 77339
L74664 77367
L74636 77395
L74608 77367
L74636 77339
L74636 77395
" />
<path d="M74889 77227
L75171 77227
" />
<path d="M74833 77395
L75030 76805
L75227 77395
" />
<path d="M75424 77339
L75452 77367
L75424 77395
L75395 77367
L75424 77339
L75424 77395
" />
<path d="M76605 77395
L76605 76805
" />
<path d="M76661 77171
L76830 77395
" />
<path d="M76830 77002
L76605 77227
" />
<path d="M77083 77395
L77083 77002
" />
<path d="M77083 76805
L77055 76833
L77083 76861
L77111 76833
L77083 76805
L77083 76861
" />
<path d="M77617 77367
L77561 77395
L77448 77395
L77392 77367
L77364 77339
L77336 77283
L77336 77114
L77364 77058
L77392 77030
L77448 77002
L77561 77002
L77617 77030
" />
<path d="M78123 77395
L78123 77086
L78095 77030
L78039 77002
L77926 77002
L77870 77030
" />
<path d="M78123 77367
L78067 77395
L77926 77395
L77870 77367
L77842 77311
L77842 77255
L77870 77199
L77926 77171
L78067 77171
L78123 77142
" />
<path d="M78658 77395
L78658 76805
" />
<path d="M78658 77367
L78601 77395
L78489 77395
L78433 77367
L78404 77339
L78376 77283
L78376 77114
L78404 77058
L78433 77030
L78489 77002
L78601 77002
L78658 77030
" />
<path d="M79557 77620
L79529 77592
L79473 77508
L79445 77452
L79417 77367
L79389 77227
L79389 77114
L79417 76974
L79445 76889
L79473 76833
L79529 76749
L79557 76721
" />
<path d="M80064 76805
L79782 76805
L79754 77086
L79782 77058
L79839 77030
L79979 77030
L80036 77058
L80064 77086
L80092 77142
L80092 77283
L80064 77339
L80036 77367
L79979 77395
L79839 77395
L79782 77367
L79754 77339
" />
<path d="M80345 77339
L80373 77367
L80345 77395
L80317 77367
L80345 77339
L80345 77395
" />
<path d="M80935 77395
L80598 77395
" />
<path d="M80767 77395
L80767 76805
L80710 76889
L80654 76946
L80598 76974
" />
<path d="M81188 77339
L81217 77367
L81188 77395
L81160 77367
L81188 77339
L81188 77395
" />
<path d="M81442 76861
L81470 76833
L81526 76805
L81667 76805
L81723 76833
L81751 76861
L81779 76917
L81779 76974
L81751 77058
L81413 77395
L81779 77395
" />
<path d="M81976 77620
L82004 77592
L82060 77508
L82088 77452
L82117 77367
L82145 77227
L82145 77114
L82117 76974
L82088 76889
L82060 76833
L82004 76749
L81976 76721
" />
<path d="M82426 77171
L82876 77171
" />
<path d="M83466 77395
L83129 77395
" />
<path d="M83298 77395
L83298 76805
L83241 76889
L83185 76946
L83129 76974
" />
</g>
<g style="fill:#000000; fill-opacity:0.0; 
stroke:#000000; stroke-width:39.3701; stroke-opacity:1; 
stroke-linecap:round; stroke-linejoin:round;">
</g>
<g style="fill:#000000; fill-opacity:0.0; 
stroke:#000000; stroke-width:59.0551; stroke-opacity:1; 
stroke-linecap:round; stroke-linejoin:round;">
<path d="M69685 75396
L112205 75396
" />
</g>
<g style="fill:#000000; fill-opacity:0.0; 
stroke:#000000; stroke-width:39.3701; stroke-opacity:1; 
stroke-linecap:round; stroke-linejoin:round;">
</g>
<g style="fill:#000000; fill-opacity:0.0; 
stroke:#000000; stroke-width:118.11; stroke-opacity:1; 
stroke-linecap:round; stroke-linejoin:round;">
<path d="M104099 76293
L103902 76012
" />
<path d="M103761 76293
L103761 75703
L103986 75703
L104042 75731
L104070 75759
L104099 75815
L104099 75899
L104070 75956
L104042 75984
L103986 76012
L103761 76012
" />
<path d="M104577 76265
L104520 76293
L104408 76293
L104352 76265
L104323 76209
L104323 75984
L104352 75928
L104408 75899
L104520 75899
L104577 75928
L104605 75984
L104605 76040
L104323 76096
" />
<path d="M104802 75899
L104942 76293
L105083 75899
" />
<path d="M105308 76237
L105336 76265
L105308 76293
L105280 76265
L105308 76237
L105308 76293
" />
<path d="M105308 75928
L105336 75956
L105308 75984
L105280 75956
L105308 75928
L105308 75984
" />
<path d="M105983 75899
L106123 76293
L106264 75899
" />
<path d="M106798 76293
L106461 76293
" />
<path d="M106629 76293
L106629 75703
L106573 75787
L106517 75843
L106461 75871
" />
<path d="M107051 76237
L107079 76265
L107051 76293
L107023 76265
L107051 76237
L107051 76293
" />
<path d="M107445 75703
L107501 75703
L107557 75731
L107586 75759
L107614 75815
L107642 75928
L107642 76068
L107614 76181
L107586 76237
L107557 76265
L107501 76293
L107445 76293
L107389 76265
L107361 76237
L107332 76181
L107304 76068
L107304 75928
L107332 75815
L107361 75759
L107389 75731
L107445 75703
" />
</g>
<g style="fill:#000000; fill-opacity:0.0; 
stroke:#000000; stroke-width:39.3701; stroke-opacity:1; 
stroke-linecap:round; stroke-linejoin:round;">
</g>
<g style="fill:#000000; fill-opacity:0.0; 
stroke:#000000; stroke-width:59.0551; stroke-opacity:1; 
stroke-linecap:round; stroke-linejoin:round;">
<path d="M70221 76265
L70305 76293
L70446 76293
L70502 76265
L70530 76237
L70559 76181
L70559 76124
L70530 76068
L70502 76040
L70446 76012
L70334 75984
L70277 75956
L70249 75928
L70221 75871
L70221 75815
L70249 75759
L70277 75731
L70334 75703
L70474 75703
L70559 75731
" />
<path d="M70812 76293
L70812 75899
" />
<path d="M70812 75703
L70784 75731
L70812 75759
L70840 75731
L70812 75703
L70812 75759
" />
<path d="M71037 75899
L71346 75899
L71037 76293
L71346 76293
" />
<path d="M71796 76265
L71740 76293
L71627 76293
L71571 76265
L71543 76209
L71543 75984
L71571 75928
L71627 75899
L71740 75899
L71796 75928
L71824 75984
L71824 76040
L71543 76096
" />
<path d="M72077 76237
L72105 76265
L72077 76293
L72049 76265
L72077 76237
L72077 76293
" />
<path d="M72077 75928
L72105 75956
L72077 75984
L72049 75956
L72077 75928
L72077 75984
" />
<path d="M72780 76124
L73061 76124
" />
<path d="M72724 76293
L72921 75703
L73118 76293
" />
<path d="M73568 75899
L73568 76293
" />
<path d="M73427 75674
L73286 76096
L73652 76096
" />
</g>
<g style="fill:#000000; fill-opacity:0.0; 
stroke:#000000; stroke-width:39.3701; stroke-opacity:1; 
stroke-linecap:round; stroke-linejoin:round;">
</g>
<g style="fill:#000000; fill-opacity:0.0; 
stroke:#000000; stroke-width:59.0551; stroke-opacity:1; 
stroke-linecap:round; stroke-linejoin:round;">
<path d="M103714 77395
L103714 76805
" />
<path d="M104248 77395
L104248 76805
" />
<path d="M104248 77367
L104192 77395
L104079 77395
L104023 77367
L103995 77339
L103967 77283
L103967 77114
L103995 77058
L104023 77030
L104079 77002
L104192 77002
L104248 77030
" />
<path d="M104529 77339
L104557 77367
L104529 77395
L104501 77367
L104529 77339
L104529 77395
" />
<path d="M104529 77030
L104557 77058
L104529 77086
L104501 77058
L104529 77030
L104529 77086
" />
<path d="M105570 77395
L105232 77395
" />
<path d="M105401 77395
L105401 76805
L105345 76889
L105289 76946
L105232 76974
" />
<path d="M106245 76777
L105739 77536
" />
<path d="M106751 77395
L106413 77395
" />
<path d="M106582 77395
L106582 76805
L106526 76889
L106470 76946
L106413 76974
" />
</g>
<g style="fill:#000000; fill-opacity:0.0; 
stroke:#000000; stroke-width:39.3701; stroke-opacity:1; 
stroke-linecap:round; stroke-linejoin:round;">
</g>
<g style="fill:#000000; fill-opacity:0.0; 
stroke:#000000; stroke-width:59.0551; stroke-opacity:1; 
stroke-linecap:round; stroke-linejoin:round;">
<path d="M69685 73821
L112205 73821
" />
</g>
<g style="fill:#000000; fill-opacity:0.0; 
stroke:#000000; stroke-width:39.3701; stroke-opacity:1; 
stroke-linecap:round; stroke-linejoin:round;">
</g>
<g style="fill:#000000; fill-opacity:0.0; 
stroke:#000000; stroke-width:157.48; stroke-opacity:1; 
stroke-linecap:round; stroke-linejoin:round;">
<path d="M70360 74099
L70810 74099
" />
<path d="M70486 74886
L70585 74099
" />
<path d="M70974 74886
L71039 74361
" />
<path d="M71072 74099
L71030 74136
L71063 74174
L71105 74136
L71072 74099
L71063 74174
" />
<path d="M71302 74361
L71602 74361
" />
<path d="M71447 74099
L71363 74774
L71391 74849
L71461 74886
L71536 74886
" />
<path d="M71911 74886
L71841 74849
L71813 74774
L71897 74099
" />
<path d="M72516 74849
L72436 74886
L72286 74886
L72216 74849
L72187 74774
L72225 74474
L72272 74399
L72352 74361
L72501 74361
L72572 74399
L72600 74474
L72591 74549
L72206 74624
" />
<path d="M72895 74811
L72928 74849
L72886 74886
L72853 74849
L72895 74811
L72886 74886
" />
<path d="M72947 74399
L72980 74436
L72937 74474
L72905 74436
L72947 74399
L72937 74474
" />
<path d="M73828 74849
L73936 74886
L74123 74886
L74203 74849
L74245 74811
L74292 74736
L74301 74661
L74273 74586
L74240 74549
L74170 74511
L74025 74474
L73954 74436
L73922 74399
L73894 74324
L73903 74249
L73950 74174
L73992 74136
L74072 74099
L74259 74099
L74367 74136
" />
<path d="M74611 74886
L74676 74361
" />
<path d="M74709 74099
L74667 74136
L74700 74174
L74742 74136
L74709 74099
L74700 74174
" />
<path d="M75051 74361
L74986 74886
" />
<path d="M75042 74436
L75084 74399
L75164 74361
L75276 74361
L75346 74399
L75375 74474
L75323 74886
" />
<path d="M76101 74361
L76021 74999
L75974 75074
L75932 75111
L75853 75149
L75740 75149
L75670 75111
" />
<path d="M76040 74849
L75960 74886
L75810 74886
L75740 74849
L75707 74811
L75679 74736
L75707 74511
L75754 74436
L75796 74399
L75876 74361
L76026 74361
L76096 74399
" />
<path d="M76523 74886
L76453 74849
L76424 74774
L76509 74099
" />
<path d="M77127 74849
L77048 74886
L76898 74886
L76828 74849
L76799 74774
L76837 74474
L76884 74399
L76963 74361
L77113 74361
L77184 74399
L77212 74474
L77202 74549
L76818 74624
" />
<path d="M77301 74961
L77901 74961
" />
<path d="M78051 74361
L78351 74361
" />
<path d="M78196 74099
L78112 74774
L78140 74849
L78210 74886
L78285 74886
" />
<path d="M78548 74886
L78613 74361
" />
<path d="M78594 74511
L78641 74436
L78684 74399
L78763 74361
L78838 74361
" />
<path d="M79373 74886
L79424 74474
L79396 74399
L79326 74361
L79176 74361
L79096 74399
" />
<path d="M79377 74849
L79298 74886
L79110 74886
L79040 74849
L79012 74774
L79021 74699
L79068 74624
L79148 74586
L79335 74586
L79415 74549
" />
<path d="M79813 74361
L79747 74886
" />
<path d="M79804 74436
L79846 74399
L79926 74361
L80038 74361
L80108 74399
L80136 74474
L80085 74886
" />
<path d="M80427 74849
L80497 74886
L80647 74886
L80727 74849
L80774 74774
L80779 74736
L80750 74661
L80680 74624
L80568 74624
L80497 74586
L80469 74511
L80474 74474
L80521 74399
L80600 74361
L80713 74361
L80783 74399
" />
<path d="M81097 74886
L81163 74361
" />
<path d="M81196 74099
L81154 74136
L81186 74174
L81229 74136
L81196 74099
L81186 74174
" />
<path d="M81439 74849
L81510 74886
L81660 74886
L81739 74849
L81786 74774
L81791 74736
L81763 74661
L81693 74624
L81580 74624
L81510 74586
L81482 74511
L81486 74474
L81533 74399
L81613 74361
L81725 74361
L81796 74399
" />
<path d="M82063 74361
L82363 74361
" />
<path d="M82208 74099
L82124 74774
L82152 74849
L82222 74886
L82297 74886
" />
<path d="M82672 74886
L82602 74849
L82569 74811
L82541 74736
L82569 74511
L82616 74436
L82658 74399
L82738 74361
L82850 74361
L82921 74399
L82953 74436
L82981 74511
L82953 74736
L82906 74811
L82864 74849
L82785 74886
L82672 74886
" />
<path d="M83272 74886
L83338 74361
" />
<path d="M83319 74511
L83366 74436
L83408 74399
L83488 74361
L83563 74361
" />
<path d="M83563 74961
L84163 74961
" />
<path d="M84350 74661
L84725 74661
" />
<path d="M84247 74886
L84608 74099
L84772 74886
" />
<path d="M85034 74886
L85133 74099
L85325 74661
L85658 74099
L85559 74886
" />
<path d="M85934 74886
L86033 74099
L86333 74099
L86403 74136
L86436 74174
L86464 74249
L86450 74361
L86403 74436
L86361 74474
L86281 74511
L85981 74511
" />
</g>
<g style="fill:#000000; fill-opacity:0.0; 
stroke:#000000; stroke-width:39.3701; stroke-opacity:1; 
stroke-linecap:round; stroke-linejoin:round;">
</g>
<g style="fill:#000000; fill-opacity:0.0; 
stroke:#000000; stroke-width:59.0551; stroke-opacity:1; 
stroke-linecap:round; stroke-linejoin:round;">
<path d="M70446 73070
L70249 73070
" />
<path d="M70249 73380
L70249 72789
L70530 72789
" />
<path d="M70755 73380
L70755 72986
" />
<path d="M70755 72789
L70727 72817
L70755 72845
L70784 72817
L70755 72789
L70755 72845
" />
<path d="M71121 73380
L71065 73352
L71037 73295
L71037 72789
" />
<path d="M71571 73352
L71515 73380
L71402 73380
L71346 73352
L71318 73295
L71318 73070
L71346 73014
L71402 72986
L71515 72986
L71571 73014
L71599 73070
L71599 73127
L71318 73183
" />
<path d="M71852 73323
L71880 73352
L71852 73380
L71824 73352
L71852 73323
L71852 73380
" />
<path d="M71852 73014
L71880 73042
L71852 73070
L71824 73042
L71852 73014
L71852 73070
" />
<path d="M72555 73352
L72640 73380
L72780 73380
L72836 73352
L72865 73323
L72893 73267
L72893 73211
L72865 73155
L72836 73127
L72780 73099
L72668 73070
L72611 73042
L72583 73014
L72555 72958
L72555 72902
L72583 72845
L72611 72817
L72668 72789
L72808 72789
L72893 72817
" />
<path d="M73146 73380
L73146 72986
" />
<path d="M73146 72789
L73118 72817
L73146 72845
L73174 72817
L73146 72789
L73146 72845
" />
<path d="M73427 72986
L73427 73380
" />
<path d="M73427 73042
L73455 73014
L73511 72986
L73596 72986
L73652 73014
L73680 73070
L73680 73380
" />
<path d="M74214 72986
L74214 73464
L74186 73520
L74158 73548
L74102 73577
L74018 73577
L73961 73548
" />
<path d="M74214 73352
L74158 73380
L74046 73380
L73989 73352
L73961 73323
L73933 73267
L73933 73099
L73961 73042
L73989 73014
L74046 72986
L74158 72986
L74214 73014
" />
<path d="M74580 73380
L74524 73352
L74496 73295
L74496 72789
" />
<path d="M75030 73352
L74974 73380
L74861 73380
L74805 73352
L74777 73295
L74777 73070
L74805 73014
L74861 72986
L74974 72986
L75030 73014
L75058 73070
L75058 73127
L74777 73183
" />
<path d="M75171 73436
L75620 73436
" />
<path d="M75677 72986
L75902 72986
" />
<path d="M75761 72789
L75761 73295
L75789 73352
L75845 73380
L75902 73380
" />
<path d="M76099 73380
L76099 72986
" />
<path d="M76099 73099
L76127 73042
L76155 73014
L76211 72986
L76267 72986
" />
<path d="M76717 73380
L76717 73070
L76689 73014
L76633 72986
L76520 72986
L76464 73014
" />
<path d="M76717 73352
L76661 73380
L76520 73380
L76464 73352
L76436 73295
L76436 73239
L76464 73183
L76520 73155
L76661 73155
L76717 73127
" />
<path d="M76998 72986
L76998 73380
" />
<path d="M76998 73042
L77027 73014
L77083 72986
L77167 72986
L77223 73014
L77251 73070
L77251 73380
" />
<path d="M77505 73352
L77561 73380
L77673 73380
L77730 73352
L77758 73295
L77758 73267
L77730 73211
L77673 73183
L77589 73183
L77533 73155
L77505 73099
L77505 73070
L77533 73014
L77589 72986
L77673 72986
L77730 73014
" />
<path d="M78011 73380
L78011 72986
" />
<path d="M78011 72789
L77983 72817
L78011 72845
L78039 72817
L78011 72789
L78011 72845
" />
<path d="M78264 73352
L78320 73380
L78433 73380
L78489 73352
L78517 73295
L78517 73267
L78489 73211
L78433 73183
L78348 73183
L78292 73155
L78264 73099
L78264 73070
L78292 73014
L78348 72986
L78433 72986
L78489 73014
" />
<path d="M78686 72986
L78911 72986
" />
<path d="M78770 72789
L78770 73295
L78798 73352
L78854 73380
L78911 73380
" />
<path d="M79192 73380
L79136 73352
L79108 73323
L79079 73267
L79079 73099
L79108 73042
L79136 73014
L79192 72986
L79276 72986
L79332 73014
L79361 73042
L79389 73099
L79389 73267
L79361 73323
L79332 73352
L79276 73380
L79192 73380
" />
<path d="M79642 73380
L79642 72986
" />
<path d="M79642 73099
L79670 73042
L79698 73014
L79754 72986
L79811 72986
" />
<path d="M79867 73436
L80317 73436
" />
<path d="M80429 73211
L80710 73211
" />
<path d="M80373 73380
L80570 72789
L80767 73380
" />
<path d="M80964 73380
L80964 72789
L81160 73211
L81357 72789
L81357 73380
" />
<path d="M81638 73380
L81638 72789
L81863 72789
L81920 72817
L81948 72845
L81976 72902
L81976 72986
L81948 73042
L81920 73070
L81863 73099
L81638 73099
" />
<path d="M82229 73323
L82257 73352
L82229 73380
L82201 73352
L82229 73323
L82229 73380
" />
<path d="M82510 73380
L82510 72789
" />
<path d="M82566 73155
L82735 73380
" />
<path d="M82735 72986
L82510 73211
" />
<path d="M82988 73380
L82988 72986
" />
<path d="M82988 72789
L82960 72817
L82988 72845
L83016 72817
L82988 72789
L82988 72845
" />
<path d="M83523 73352
L83466 73380
L83354 73380
L83298 73352
L83269 73323
L83241 73267
L83241 73099
L83269 73042
L83298 73014
L83354 72986
L83466 72986
L83523 73014
" />
<path d="M84029 73380
L84029 73070
L84001 73014
L83944 72986
L83832 72986
L83776 73014
" />
<path d="M84029 73352
L83973 73380
L83832 73380
L83776 73352
L83748 73295
L83748 73239
L83776 73183
L83832 73155
L83973 73155
L84029 73127
" />
<path d="M84563 73380
L84563 72789
" />
<path d="M84563 73352
L84507 73380
L84394 73380
L84338 73352
L84310 73323
L84282 73267
L84282 73099
L84310 73042
L84338 73014
L84394 72986
L84507 72986
L84563 73014
" />
<path d="M84704 73436
L85154 73436
" />
<path d="M85294 72986
L85294 73577
" />
<path d="M85294 73014
L85350 72986
L85463 72986
L85519 73014
L85547 73042
L85575 73099
L85575 73267
L85547 73323
L85519 73352
L85463 73380
L85350 73380
L85294 73352
" />
<path d="M86082 73352
L86025 73380
L85913 73380
L85857 73352
L85829 73323
L85800 73267
L85800 73099
L85829 73042
L85857 73014
L85913 72986
L86025 72986
L86082 73014
" />
<path d="M86335 73380
L86335 72789
" />
<path d="M86335 73014
L86391 72986
L86503 72986
L86560 73014
L86588 73042
L86616 73099
L86616 73267
L86588 73323
L86560 73352
L86503 73380
L86391 73380
L86335 73352
" />
</g>
<g style="fill:#000000; fill-opacity:0.0; 
stroke:#000000; stroke-width:39.3701; stroke-opacity:1; 
stroke-linecap:round; stroke-linejoin:round;">
</g>
<g style="fill:#000000; fill-opacity:0.0; 
stroke:#000000; stroke-width:59.0551; stroke-opacity:1; 
stroke-linecap:round; stroke-linejoin:round;">
<path d="M69685 71459
L112205 71459
" />
</g>
<g style="fill:#000000; fill-opacity:0.0; 
stroke:#000000; stroke-width:39.3701; stroke-opacity:1; 
stroke-linecap:round; stroke-linejoin:round;">
</g>
<g style="fill:#000000; fill-opacity:0.0; 
stroke:#000000; stroke-width:59.0551; stroke-opacity:1; 
stroke-linecap:round; stroke-linejoin:round;">
<path d="M70221 72289
L70305 72317
L70446 72317
L70502 72289
L70530 72260
L70559 72204
L70559 72148
L70530 72092
L70502 72064
L70446 72036
L70334 72007
L70277 71979
L70249 71951
L70221 71895
L70221 71839
L70249 71782
L70277 71754
L70334 71726
L70474 71726
L70559 71754
" />
<path d="M70812 72317
L70812 71726
" />
<path d="M71065 72317
L71065 72007
L71037 71951
L70980 71923
L70896 71923
L70840 71951
L70812 71979
" />
<path d="M71571 72289
L71515 72317
L71402 72317
L71346 72289
L71318 72232
L71318 72007
L71346 71951
L71402 71923
L71515 71923
L71571 71951
L71599 72007
L71599 72064
L71318 72120
" />
<path d="M72077 72289
L72021 72317
L71908 72317
L71852 72289
L71824 72232
L71824 72007
L71852 71951
L71908 71923
L72021 71923
L72077 71951
L72105 72007
L72105 72064
L71824 72120
" />
<path d="M72274 71923
L72499 71923
" />
<path d="M72358 71726
L72358 72232
L72386 72289
L72443 72317
L72499 72317
" />
<path d="M72696 72260
L72724 72289
L72696 72317
L72668 72289
L72696 72260
L72696 72317
" />
<path d="M72696 71951
L72724 71979
L72696 72007
L72668 71979
L72696 71951
L72696 72007
" />
</g>
<g style="fill:#000000; fill-opacity:0.0; 
stroke:#000000; stroke-width:39.3701; stroke-opacity:1; 
stroke-linecap:round; stroke-linejoin:round;">
</g>
<g style="fill:#000000; fill-opacity:0.0; 
stroke:#000000; stroke-width:118.11; stroke-opacity:1; 
stroke-linecap:round; stroke-linejoin:round;">
<path d="M70212 70545
L70409 71136
L70606 70545
" />
<path d="M71028 71108
L70971 71136
L70859 71136
L70803 71108
L70775 71051
L70775 70826
L70803 70770
L70859 70742
L70971 70742
L71028 70770
L71056 70826
L71056 70883
L70775 70939
" />
<path d="M71309 70742
L71309 71136
" />
<path d="M71309 70798
L71337 70770
L71393 70742
L71478 70742
L71534 70770
L71562 70826
L71562 71136
" />
<path d="M71759 70742
L71984 70742
" />
<path d="M71843 70545
L71843 71051
L71871 71108
L71928 71136
L71984 71136
" />
<path d="M72153 71108
L72209 71136
L72321 71136
L72377 71108
L72406 71051
L72406 71023
L72377 70967
L72321 70939
L72237 70939
L72181 70911
L72153 70854
L72153 70826
L72181 70770
L72237 70742
L72321 70742
L72377 70770
" />
<path d="M72659 70742
L72659 71332
" />
<path d="M72659 70770
L72715 70742
L72827 70742
L72884 70770
L72912 70798
L72940 70854
L72940 71023
L72912 71079
L72884 71108
L72827 71136
L72715 71136
L72659 71108
" />
<path d="M73193 71136
L73193 70742
" />
<path d="M73193 70545
L73165 70573
L73193 70601
L73221 70573
L73193 70545
L73193 70601
" />
<path d="M73559 71136
L73502 71108
L73474 71051
L73474 70545
" />
<path d="M73755 71108
L73812 71136
L73924 71136
L73980 71108
L74009 71051
L74009 71023
L73980 70967
L73924 70939
L73840 70939
L73784 70911
L73755 70854
L73755 70826
L73784 70770
L73840 70742
L73924 70742
L73980 70770
" />
<path d="M74683 70967
L74965 70967
" />
<path d="M74627 71136
L74824 70545
L75021 71136
" />
<path d="M75471 70742
L75471 71136
" />
<path d="M75218 70742
L75218 71051
L75246 71108
L75302 71136
L75386 71136
L75443 71108
L75471 71079
" />
<path d="M76005 70742
L76005 71220
L75977 71276
L75949 71304
L75893 71332
L75808 71332
L75752 71304
" />
<path d="M76005 71108
L75949 71136
L75836 71136
L75780 71108
L75752 71079
L75724 71023
L75724 70854
L75752 70798
L75780 70770
L75836 70742
L75949 70742
L76005 70770
" />
<path d="M76258 71108
L76314 71136
L76427 71136
L76483 71108
L76511 71051
L76511 71023
L76483 70967
L76427 70939
L76343 70939
L76286 70911
L76258 70854
L76258 70826
L76286 70770
L76343 70742
L76427 70742
L76483 70770
" />
<path d="M76680 70742
L76905 70742
" />
<path d="M76764 70545
L76764 71051
L76793 71108
L76849 71136
L76905 71136
" />
<path d="M77074 71108
L77130 71136
L77242 71136
L77299 71108
L77327 71051
L77327 71023
L77299 70967
L77242 70939
L77158 70939
L77102 70911
L77074 70854
L77074 70826
L77102 70770
L77158 70742
L77242 70742
L77299 70770
" />
<path d="M77580 71136
L77580 70545
" />
<path d="M77636 70911
L77805 71136
" />
<path d="M77805 70742
L77580 70967
" />
<path d="M78142 71136
L78086 71108
L78058 71079
L78030 71023
L78030 70854
L78058 70798
L78086 70770
L78142 70742
L78227 70742
L78283 70770
L78311 70798
L78339 70854
L78339 71023
L78311 71079
L78283 71108
L78227 71136
L78142 71136
" />
<path d="M78677 71136
L78620 71108
L78592 71051
L78592 70545
" />
<path d="M79155 71136
L79155 70826
L79127 70770
L79070 70742
L78958 70742
L78902 70770
" />
<path d="M79155 71108
L79099 71136
L78958 71136
L78902 71108
L78874 71051
L78874 70995
L78902 70939
L78958 70911
L79099 70911
L79155 70883
" />
</g>
<g style="fill:#000000; fill-opacity:0.0; 
stroke:#000000; stroke-width:39.3701; stroke-opacity:1; 
stroke-linecap:round; stroke-linejoin:round;">
</g>
<g style="fill:#000000; fill-opacity:0.0; 
stroke:#000000; stroke-width:59.0551; stroke-opacity:1; 
stroke-linecap:round; stroke-linejoin:round;">
<path d="M70221 69786
L70502 69786
" />
<path d="M70165 69955
L70362 69364
L70559 69955
" />
<path d="M71009 69561
L71009 69955
" />
<path d="M70755 69561
L70755 69870
L70784 69926
L70840 69955
L70924 69955
L70980 69926
L71009 69898
" />
<path d="M71205 69561
L71430 69561
" />
<path d="M71290 69364
L71290 69870
L71318 69926
L71374 69955
L71430 69955
" />
<path d="M71712 69955
L71655 69926
L71627 69898
L71599 69842
L71599 69673
L71627 69617
L71655 69589
L71712 69561
L71796 69561
L71852 69589
L71880 69617
L71908 69673
L71908 69842
L71880 69898
L71852 69926
L71796 69955
L71712 69955
" />
<path d="M72162 69955
L72162 69561
" />
<path d="M72162 69673
L72190 69617
L72218 69589
L72274 69561
L72330 69561
" />
<path d="M72499 69926
L72555 69955
L72668 69955
L72724 69926
L72752 69870
L72752 69842
L72724 69786
L72668 69758
L72583 69758
L72527 69730
L72499 69673
L72499 69645
L72527 69589
L72583 69561
L72668 69561
L72724 69589
" />
</g>
<g style="fill:#000000; fill-opacity:0.0; 
stroke:#000000; stroke-width:39.3701; stroke-opacity:1; 
stroke-linecap:round; stroke-linejoin:round;">
</g>
<g style="fill:#000000; fill-opacity:0.0; 
stroke:#000000; stroke-width:59.0551; stroke-opacity:1; 
stroke-linecap:round; stroke-linejoin:round;">
<path d="M70249 68464
L70446 68464
" />
<path d="M70530 68773
L70249 68773
L70249 68183
L70530 68183
" />
<path d="M71037 68773
L71037 68183
" />
<path d="M71037 68745
L70980 68773
L70868 68773
L70812 68745
L70784 68717
L70755 68661
L70755 68492
L70784 68436
L70812 68408
L70868 68380
L70980 68380
L71037 68408
" />
<path d="M71571 68380
L71571 68858
L71543 68914
L71515 68942
L71458 68970
L71374 68970
L71318 68942
" />
<path d="M71571 68745
L71515 68773
L71402 68773
L71346 68745
L71318 68717
L71290 68661
L71290 68492
L71318 68436
L71346 68408
L71402 68380
L71515 68380
L71571 68408
" />
<path d="M72105 68773
L72105 68464
L72077 68408
L72021 68380
L71908 68380
L71852 68408
" />
<path d="M72105 68745
L72049 68773
L71908 68773
L71852 68745
L71824 68689
L71824 68633
L71852 68577
L71908 68548
L72049 68548
L72105 68520
" />
<path d="M72386 68773
L72386 68380
" />
<path d="M72386 68492
L72415 68436
L72443 68408
L72499 68380
L72555 68380
" />
<path d="M72724 68745
L72780 68773
L72893 68773
L72949 68745
L72977 68689
L72977 68661
L72949 68605
L72893 68577
L72808 68577
L72752 68548
L72724 68492
L72724 68464
L72752 68408
L72808 68380
L72893 68380
L72949 68408
" />
<path d="M73680 68773
L73680 68183
" />
<path d="M73961 68773
L73961 68380
" />
<path d="M73961 68492
L73989 68436
L74018 68408
L74074 68380
L74130 68380
" />
<path d="M74327 68773
L74327 68183
" />
<path d="M74327 68408
L74383 68380
L74496 68380
L74552 68408
L74580 68436
L74608 68492
L74608 68661
L74580 68717
L74552 68745
L74496 68773
L74383 68773
L74327 68745
" />
<path d="M74861 68773
L74861 68380
" />
<path d="M74861 68183
L74833 68211
L74861 68239
L74889 68211
L74861 68183
L74861 68239
" />
<path d="M75142 68380
L75142 68773
" />
<path d="M75142 68436
L75171 68408
L75227 68380
L75311 68380
L75367 68408
L75395 68464
L75395 68773
" />
<path d="M75255 68802
L75311 68830
L75339 68886
L75311 68942
L75255 68970
L75171 68970
" />
<path d="M75649 68745
L75705 68773
L75817 68773
L75874 68745
L75902 68689
L75902 68661
L75874 68605
L75817 68577
L75733 68577
L75677 68548
L75649 68492
L75649 68464
L75677 68408
L75733 68380
L75817 68380
L75874 68408
" />
<path d="M75649 68155
L75761 68239
L75874 68155
" />
</g>
<g style="fill:#000000; fill-opacity:0.0; 
stroke:#000000; stroke-width:39.3701; stroke-opacity:1; 
stroke-linecap:round; stroke-linejoin:round;">
</g>
<g style="fill:#000000; fill-opacity:0.0; 
stroke:#000000; stroke-width:59.0551; stroke-opacity:1; 
stroke-linecap:round; stroke-linejoin:round;">
<path d="M70249 67592
L70249 67002
L70474 67002
L70530 67030
L70559 67058
L70587 67114
L70587 67199
L70559 67255
L70530 67283
L70474 67311
L70249 67311
" />
<path d="M71177 67536
L71149 67564
L71065 67592
L71009 67592
L70924 67564
L70868 67508
L70840 67452
L70812 67339
L70812 67255
L70840 67142
L70868 67086
L70924 67030
L71009 67002
L71065 67002
L71149 67030
L71177 67058
" />
<path d="M71627 67283
L71712 67311
L71740 67339
L71768 67395
L71768 67480
L71740 67536
L71712 67564
L71655 67592
L71430 67592
L71430 67002
L71627 67002
L71683 67030
L71712 67058
L71740 67114
L71740 67171
L71712 67227
L71683 67255
L71627 67283
L71430 67283
" />
<path d="M71880 67649
L72330 67649
" />
<path d="M72808 67536
L72780 67564
L72696 67592
L72640 67592
L72555 67564
L72499 67508
L72471 67452
L72443 67339
L72443 67255
L72471 67142
L72499 67086
L72555 67030
L72640 67002
L72696 67002
L72780 67030
L72808 67058
" />
<path d="M73033 67424
L73314 67424
" />
<path d="M72977 67592
L73174 67002
L73371 67592
" />
<path d="M73568 67592
L73568 67002
L73708 67002
L73793 67030
L73849 67086
L73877 67142
L73905 67255
L73905 67339
L73877 67452
L73849 67508
L73793 67564
L73708 67592
L73568 67592
" />
<path d="M74608 67592
L74608 67002
" />
<path d="M74664 67367
L74833 67592
" />
<path d="M74833 67199
L74608 67424
" />
<path d="M75339 67199
L75339 67592
" />
<path d="M75086 67199
L75086 67508
L75114 67564
L75171 67592
L75255 67592
L75311 67564
L75339 67536
" />
<path d="M75620 67592
L75620 67199
" />
<path d="M75620 67311
L75649 67255
L75677 67227
L75733 67199
L75789 67199
" />
<path d="M75958 67564
L76014 67592
L76127 67592
L76183 67564
L76211 67508
L76211 67480
L76183 67424
L76127 67395
L76042 67395
L75986 67367
L75958 67311
L75958 67283
L75986 67227
L76042 67199
L76127 67199
L76183 67227
" />
<path d="M76436 67564
L76492 67592
L76605 67592
L76661 67564
L76689 67508
L76689 67480
L76661 67424
L76605 67395
L76520 67395
L76464 67367
L76436 67311
L76436 67283
L76464 67227
L76520 67199
L76605 67199
L76661 67227
" />
</g>
<g style="fill:#000000; fill-opacity:0.0; 
stroke:#000000; stroke-width:39.3701; stroke-opacity:1; 
stroke-linecap:round; stroke-linejoin:round;">
</g>
<g style="fill:#000000; fill-opacity:0.0; 
stroke:#000000; stroke-width:59.0551; stroke-opacity:1; 
stroke-linecap:round; stroke-linejoin:round;">
<path d="M77559 75396
L77559 76577
" />
</g>
<g style="fill:#000000; fill-opacity:0.0; 
stroke:#000000; stroke-width:39.3701; stroke-opacity:1; 
stroke-linecap:round; stroke-linejoin:round;">
</g>
<g style="fill:#000000; fill-opacity:0.0; 
stroke:#000000; stroke-width:59.0551; stroke-opacity:1; 
stroke-linecap:round; stroke-linejoin:round;">
<path d="M102756 75396
L102756 77955
" />
<g >
</g>
<g style="fill:#848400; fill-opacity:0.0; 
stroke:#848400; stroke-width:59.0551; stroke-opacity:1; 
stroke-linecap:round; stroke-linejoin:round;">
</g>
<g style="fill:#848400; fill-opacity:0.0; 
stroke:#848400; stroke-width:413.386; stroke-opacity:1; 
stroke-linecap:round; stroke-linejoin:round;">
<path d="M59288 39500
L59111 39500
" />
<path d="M59288 40000
L59111 40000
" />
</g>
<g style="fill:#848400; fill-opacity:0.0; 
stroke:#848400; stroke-width:0; stroke-opacity:1; 
stroke-linecap:round; stroke-linejoin:round;">
</g>
<g style="fill:#848400; fill-opacity:1.0; 
stroke:#848400; stroke-width:0; stroke-opacity:1; 
stroke-linecap:round; stroke-linejoin:round;">
<path style="fill:#848400; fill-opacity:1.0; 
stroke:#848400; stroke-width:0; stroke-opacity:1; 
stroke-linecap:round; stroke-linejoin:round;fill-rule:evenodd;"
d="M 58904,38793
59495,38793
59495,39206
58904,39206
58904,38793
Z" /> 
</g>
<g >
<circle cx="62174" cy="41717.7" r="226.378" /> 
</g>
<g style="fill:#848400; fill-opacity:1.0; 
stroke:#848400; stroke-width:39.3701; stroke-opacity:1; 
stroke-linecap:round; stroke-linejoin:round;">
</g>
<g style="fill:#848400; fill-opacity:1.0; 
stroke:#848400; stroke-width:0; stroke-opacity:1; 
stroke-linecap:round; stroke-linejoin:round;">
<circle cx="62174" cy="42702" r="226.378" /> 
</g>
<g style="fill:#848400; fill-opacity:1.0; 
stroke:#848400; stroke-width:39.3701; stroke-opacity:1; 
stroke-linecap:round; stroke-linejoin:round;">
</g>
<g >
</g>
<g style="fill:#848400; fill-opacity:1.0; 
stroke:#848400; stroke-width:0; stroke-opacity:1; 
stroke-linecap:round; stroke-linejoin:round;">
<circle cx="52700" cy="43500" r="428.15" /> 
</g>
<g style="fill:#848400; fill-opacity:1.0; 
stroke:#848400; stroke-width:39.3701; stroke-opacity:1; 
stroke-linecap:round; stroke-linejoin:round;">
</g>
<g style="fill:#848400; fill-opacity:1.0; 
stroke:#848400; stroke-width:0; stroke-opacity:1; 
stroke-linecap:round; stroke-linejoin:round;">
<circle cx="52700" cy="41500" r="428.15" /> 
</g>
<g style="fill:#848400; fill-opacity:1.0; 
stroke:#848400; stroke-width:39.3701; stroke-opacity:1; 
stroke-linecap:round; stroke-linejoin:round;">
</g>
<g >
</g>
<g style="fill:#848400; fill-opacity:1.0; 
stroke:#848400; stroke-width:0; stroke-opacity:1; 
stroke-linecap:round; stroke-linejoin:round;">
<circle cx="62806" cy="36552" r="428.15" /> 
</g>
<g style="fill:#848400; fill-opacity:1.0; 
stroke:#848400; stroke-width:39.3701; stroke-opacity:1; 
stroke-linecap:round; stroke-linejoin:round;">
</g>
<g style="fill:#848400; fill-opacity:1.0; 
stroke:#848400; stroke-width:0; stroke-opacity:1; 
stroke-linecap:round; stroke-linejoin:round;">
<circle cx="62806" cy="38552" r="428.15" /> 
</g>
<g style="fill:#848400; fill-opacity:1.0; 
stroke:#848400; stroke-width:39.3701; stroke-opacity:1; 
stroke-linecap:round; stroke-linejoin:round;">
</g>
<g >
</g>
<g style="fill:#848400; fill-opacity:1.0; 
stroke:#848400; stroke-width:0; stroke-opacity:1; 
stroke-linecap:round; stroke-linejoin:round;">
<circle cx="52700" cy="38500" r="428.15" /> 
</g>
<g style="fill:#848400; fill-opacity:1.0; 
stroke:#848400; stroke-width:39.3701; stroke-opacity:1; 
stroke-linecap:round; stroke-linejoin:round;">
</g>
<g style="fill:#848400; fill-opacity:1.0; 
stroke:#848400; stroke-width:0; stroke-opacity:1; 
stroke-linecap:round; stroke-linejoin:round;">
<circle cx="52700" cy="36500" r="428.15" /> 
</g>
<g style="fill:#848400; fill-opacity:1.0; 
stroke:#848400; stroke-width:39.3701; stroke-opacity:1; 
stroke-linecap:round; stroke-linejoin:round;">
</g>
<g >
</g>
<g >
</g>
<g >
</g>
<g >
</g>
<g >
</g>
<g >
</g>
<g style="fill:#BFBFBF; fill-opacity:1.0; 
stroke:#BFBFBF; stroke-width:39.3701; stroke-opacity:1; 
stroke-linecap:round; stroke-linejoin:round;">
</g>
<g style="fill:#BFBFBF; fill-opacity:1.0; 
stroke:#BFBFBF; stroke-width:0; stroke-opacity:1; 
stroke-linecap:round; stroke-linejoin:round;">
<circle cx="52000" cy="34500" r="157.48" /> 
</g>
<g style="fill:#BFBFBF; fill-opacity:1.0; 
stroke:#BFBFBF; stroke-width:39.3701; stroke-opacity:1; 
stroke-linecap:round; stroke-linejoin:round;">
</g>
<g style="fill:#BFBFBF; fill-opacity:1.0; 
stroke:#BFBFBF; stroke-width:0; stroke-opacity:1; 
stroke-linecap:round; stroke-linejoin:round;">
<circle cx="54000" cy="34500" r="157.48" /> 
</g>
<g style="fill:#BFBFBF; fill-opacity:1.0; 
stroke:#BFBFBF; stroke-width:39.3701; stroke-opacity:1; 
stroke-linecap:round; stroke-linejoin:round;">
</g>
<g style="fill:#BFBFBF; fill-opacity:1.0; 
stroke:#BFBFBF; stroke-width:0; stroke-opacity:1; 
stroke-linecap:round; stroke-linejoin:round;">
<circle cx="56500" cy="34500" r="157.48" /> 
</g>
<g style="fill:#BFBFBF; fill-opacity:1.0; 
stroke:#BFBFBF; stroke-width:39.3701; stroke-opacity:1; 
stroke-linecap:round; stroke-linejoin:round;">
</g>
<g style="fill:#BFBFBF; fill-opacity:1.0; 
stroke:#BFBFBF; stroke-width:0; stroke-opacity:1; 
stroke-linecap:round; stroke-linejoin:round;">
<circle cx="59000" cy="34500" r="157.48" /> 
</g>
<g style="fill:#BFBFBF; fill-opacity:1.0; 
stroke:#BFBFBF; stroke-width:39.3701; stroke-opacity:1; 
stroke-linecap:round; stroke-linejoin:round;">
</g>
<g style="fill:#BFBFBF; fill-opacity:1.0; 
stroke:#BFBFBF; stroke-width:0; stroke-opacity:1; 
stroke-linecap:round; stroke-linejoin:round;">
<circle cx="61500" cy="34500" r="157.48" /> 
</g>
<g style="fill:#BFBFBF; fill-opacity:1.0; 
stroke:#BFBFBF; stroke-width:39.3701; stroke-opacity:1; 
stroke-linecap:round; stroke-linejoin:round;">
</g>
<g style="fill:#BFBFBF; fill-opacity:1.0; 
stroke:#BFBFBF; stroke-width:0; stroke-opacity:1; 
stroke-linecap:round; stroke-linejoin:round;">
<circle cx="63500" cy="34500" r="157.48" /> 
</g>
<g style="fill:#BFBFBF; fill-opacity:1.0; 
stroke:#BFBFBF; stroke-width:39.3701; stroke-opacity:1; 
stroke-linecap:round; stroke-linejoin:round;">
</g>
<g style="fill:#BFBFBF; fill-opacity:1.0; 
stroke:#BFBFBF; stroke-width:0; stroke-opacity:1; 
stroke-linecap:round; stroke-linejoin:round;">
<circle cx="51000" cy="36000" r="157.48" /> 
</g>
<g style="fill:#BFBFBF; fill-opacity:1.0; 
stroke:#BFBFBF; stroke-width:39.3701; stroke-opacity:1; 
stroke-linecap:round; stroke-linejoin:round;">
</g>
<g style="fill:#BFBFBF; fill-opacity:1.0; 
stroke:#BFBFBF; stroke-width:0; stroke-opacity:1; 
stroke-linecap:round; stroke-linejoin:round;">
<circle cx="51000" cy="38100" r="157.48" /> 
</g>
<g style="fill:#BFBFBF; fill-opacity:1.0; 
stroke:#BFBFBF; stroke-width:39.3701; stroke-opacity:1; 
stroke-linecap:round; stroke-linejoin:round;">
</g>
<g style="fill:#BFBFBF; fill-opacity:1.0; 
stroke:#BFBFBF; stroke-width:0; stroke-opacity:1; 
stroke-linecap:round; stroke-linejoin:round;">
<circle cx="51000" cy="40250" r="157.48" /> 
</g>
<g style="fill:#BFBFBF; fill-opacity:1.0; 
stroke:#BFBFBF; stroke-width:39.3701; stroke-opacity:1; 
stroke-linecap:round; stroke-linejoin:round;">
</g>
<g style="fill:#BFBFBF; fill-opacity:1.0; 
stroke:#BFBFBF; stroke-width:0; stroke-opacity:1; 
stroke-linecap:round; stroke-linejoin:round;">
<circle cx="51000" cy="42700" r="157.48" /> 
</g>
<g style="fill:#BFBFBF; fill-opacity:1.0; 
stroke:#BFBFBF; stroke-width:39.3701; stroke-opacity:1; 
stroke-linecap:round; stroke-linejoin:round;">
</g>
<g style="fill:#BFBFBF; fill-opacity:1.0; 
stroke:#BFBFBF; stroke-width:0; stroke-opacity:1; 
stroke-linecap:round; stroke-linejoin:round;">
<circle cx="51000" cy="44900" r="157.48" /> 
</g>
<g style="fill:#BFBFBF; fill-opacity:1.0; 
stroke:#BFBFBF; stroke-width:39.3701; stroke-opacity:1; 
stroke-linecap:round; stroke-linejoin:round;">
</g>
<g style="fill:#BFBFBF; fill-opacity:1.0; 
stroke:#BFBFBF; stroke-width:0; stroke-opacity:1; 
stroke-linecap:round; stroke-linejoin:round;">
<circle cx="54800" cy="44900" r="157.48" /> 
</g>
<g style="fill:#BFBFBF; fill-opacity:1.0; 
stroke:#BFBFBF; stroke-width:39.3701; stroke-opacity:1; 
stroke-linecap:round; stroke-linejoin:round;">
</g>
<g style="fill:#BFBFBF; fill-opacity:1.0; 
stroke:#BFBFBF; stroke-width:0; stroke-opacity:1; 
stroke-linecap:round; stroke-linejoin:round;">
<circle cx="61500" cy="44900" r="157.48" /> 
</g>
<g style="fill:#BFBFBF; fill-opacity:1.0; 
stroke:#BFBFBF; stroke-width:39.3701; stroke-opacity:1; 
stroke-linecap:round; stroke-linejoin:round;">
</g>
<g style="fill:#BFBFBF; fill-opacity:1.0; 
stroke:#BFBFBF; stroke-width:0; stroke-opacity:1; 
stroke-linecap:round; stroke-linejoin:round;">
<circle cx="64400" cy="44800" r="157.48" /> 
</g>
<g style="fill:#BFBFBF; fill-opacity:1.0; 
stroke:#BFBFBF; stroke-width:39.3701; stroke-opacity:1; 
stroke-linecap:round; stroke-linejoin:round;">
</g>
<g style="fill:#BFBFBF; fill-opacity:1.0; 
stroke:#BFBFBF; stroke-width:0; stroke-opacity:1; 
stroke-linecap:round; stroke-linejoin:round;">
<circle cx="64450" cy="42500" r="157.48" /> 
</g>
<g style="fill:#BFBFBF; fill-opacity:1.0; 
stroke:#BFBFBF; stroke-width:39.3701; stroke-opacity:1; 
stroke-linecap:round; stroke-linejoin:round;">
</g>
<g style="fill:#BFBFBF; fill-opacity:1.0; 
stroke:#BFBFBF; stroke-width:0; stroke-opacity:1; 
stroke-linecap:round; stroke-linejoin:round;">
<circle cx="64450" cy="40050" r="157.48" /> 
</g>
<g style="fill:#BFBFBF; fill-opacity:1.0; 
stroke:#BFBFBF; stroke-width:39.3701; stroke-opacity:1; 
stroke-linecap:round; stroke-linejoin:round;">
</g>
<g style="fill:#BFBFBF; fill-opacity:1.0; 
stroke:#BFBFBF; stroke-width:0; stroke-opacity:1; 
stroke-linecap:round; stroke-linejoin:round;">
<circle cx="64450" cy="38000" r="157.48" /> 
</g>
<g style="fill:#BFBFBF; fill-opacity:1.0; 
stroke:#BFBFBF; stroke-width:39.3701; stroke-opacity:1; 
stroke-linecap:round; stroke-linejoin:round;">
</g>
<g style="fill:#BFBFBF; fill-opacity:1.0; 
stroke:#BFBFBF; stroke-width:0; stroke-opacity:1; 
stroke-linecap:round; stroke-linejoin:round;">
<circle cx="64450" cy="36050" r="157.48" /> 
</g>
<g style="fill:#BFBFBF; fill-opacity:1.0; 
stroke:#BFBFBF; stroke-width:39.3701; stroke-opacity:1; 
stroke-linecap:round; stroke-linejoin:round;">
</g>
<g style="fill:#BFBFBF; fill-opacity:1.0; 
stroke:#BFBFBF; stroke-width:0; stroke-opacity:1; 
stroke-linecap:round; stroke-linejoin:round;">
<circle cx="58000" cy="44900" r="157.48" /> 
</g>
<g style="fill:#BFBFBF; fill-opacity:1.0; 
stroke:#BFBFBF; stroke-width:39.3701; stroke-opacity:1; 
stroke-linecap:round; stroke-linejoin:round;">
</g>
<g >
</g>
<g >
</g>
<g style="fill:#008400; fill-opacity:1.0; 
stroke:#008400; stroke-width:39.3701; stroke-opacity:1; 
stroke-linecap:round; stroke-linejoin:round;">
</g>
<g style="fill:#008400; fill-opacity:1.0; 
stroke:#008400; stroke-width:100; stroke-opacity:1; 
stroke-linecap:round; stroke-linejoin:round;">
<path style="fill:#008400; fill-opacity:1.0; 
stroke:#008400; stroke-width:100; stroke-opacity:1; 
stroke-linecap:round; stroke-linejoin:round;fill-rule:evenodd;"
d="M 63740,34284
63972,34354
64185,34468
64372,34620
64527,34807
64642,35019
64713,35250
64740,35503
64740,44987
64734,45046
64720,45091
64698,45132
64669,45168
64633,45198
64592,45220
64548,45234
64489,45240
51012,45240
50953,45234
50908,45220
50867,45198
50831,45169
50801,45133
50779,45092
50765,45048
50759,44989
50759,44001
52336,44001
52382,44102
52506,44153
52637,44178
52771,44177
52901,44150
53017,44102
53063,44001
52700,43638
52336,44001
50759,44001
50759,43437
52021,43437
52022,43571
52049,43701
52097,43817
52198,43863
52561,43500
52838,43500
53201,43863
53302,43817
53353,43693
53378,43562
53377,43428
53350,43298
53302,43182
53201,43136
52838,43500
52561,43500
52198,43136
52097,43182
52046,43306
52021,43437
50759,43437
50759,42998
52336,42998
52700,43361
53004,43057
61956,43057
61977,43138
62066,43168
62159,43180
62253,43174
62343,43149
62370,43138
62391,43057
62174,42840
61956,43057
53004,43057
53063,42998
53017,42897
52893,42846
52762,42821
52628,42822
52498,42849
52382,42897
52336,42998
50759,42998
50759,42687
61695,42687
61701,42781
61726,42871
61737,42898
61818,42919
62035,42702
62312,42702
62529,42919
62610,42898
62640,42809
62652,42716
62646,42622
62621,42532
62610,42505
62529,42484
62312,42702
62035,42702
61818,42484
61737,42505
61707,42594
61695,42687
50759,42687
50759,42346
61956,42346
62174,42563
62391,42346
62370,42265
62281,42235
62188,42223
62094,42229
62004,42254
61977,42265
61956,42346
50759,42346
50759,41433
52021,41433
52021,41566
52047,41697
52099,41821
52173,41932
52267,42026
52378,42100
52502,42152
52633,42178
52766,42178
52897,42152
53021,42100
53132,42026
53226,41932
53300,41821
53352,41697
53357,41670
61697,41670
61697,41764
61715,41856
61751,41943
61803,42021
61870,42087
61948,42139
62035,42175
62127,42194
62220,42194
62312,42175
62399,42139
62477,42087
62544,42021
62596,41943
62632,41856
62650,41764
62650,41670
62632,41578
62596,41492
62544,41414
62477,41347
62399,41295
62312,41259
62220,41241
62127,41241
62035,41259
61948,41295
61870,41347
61803,41414
61751,41492
61715,41578
61697,41670
53357,41670
53378,41566
53378,41433
53352,41302
53300,41178
53226,41067
53132,40973
53021,40899
52897,40847
52766,40821
52633,40821
52502,40847
52378,40899
52267,40973
52173,41067
52099,41178
52047,41302
52021,41433
50759,41433
50759,39500
58652,39500
58661,39589
58687,39675
58727,39750
58687,39824
58661,39910
58652,40000
58661,40089
58687,40175
58729,40254
58786,40324
58856,40381
58935,40423
59021,40450
59088,40456
59311,40456
59378,40450
59464,40423
59543,40381
59613,40324
59670,40254
59712,40175
59738,40089
59747,40000
59738,39910
59712,39824
59672,39750
59712,39675
59738,39589
59747,39500
59738,39410
59713,39328
59727,39302
59741,39255
59746,39206
59746,39053
62442,39053
62488,39154
62612,39205
62743,39230
62877,39229
63007,39202
63123,39154
63169,39053
62806,38690
62442,39053
59746,39053
59746,38793
59741,38744
59727,38697
59704,38653
59672,38615
59634,38584
59591,38561
59544,38546
59495,38542
58904,38542
58855,38546
58808,38561
58765,38584
58727,38615
58695,38653
58672,38697
58658,38744
58653,38793
58653,39206
58658,39255
58672,39302
58686,39328
58661,39410
58652,39500
50759,39500
50759,38433
52021,38433
52021,38566
52047,38697
52099,38821
52173,38932
52267,39026
52378,39100
52502,39152
52633,39178
52766,39178
52897,39152
53021,39100
53132,39026
53226,38932
53300,38821
53352,38697
53378,38566
53378,38489
62127,38489
62128,38623
62155,38753
62203,38869
62304,38915
62667,38552
62944,38552
63307,38915
63408,38869
63459,38745
63484,38614
63483,38480
63456,38350
63408,38234
63307,38188
62944,38552
62667,38552
62304,38188
62203,38234
62152,38358
62127,38489
53378,38489
53378,38433
53352,38302
53300,38178
53226,38067
53209,38050
62442,38050
62806,38413
63169,38050
63123,37949
62999,37898
62868,37873
62734,37874
62604,37901
62488,37949
62442,38050
53209,38050
53132,37973
53021,37899
52897,37847
52766,37821
52633,37821
52502,37847
52378,37899
52267,37973
52173,38067
52099,38178
52047,38302
52021,38433
50759,38433
50759,37001
52336,37001
52382,37102
52506,37153
52637,37178
52771,37177
52901,37150
53017,37102
53063,37001
52700,36638
52336,37001
50759,37001
50759,36437
52021,36437
52022,36571
52049,36701
52097,36817
52198,36863
52561,36500
52838,36500
53201,36863
53302,36817
53353,36693
53378,36562
53378,36485
62127,36485
62127,36618
62153,36749
62205,36873
62279,36984
62373,37078
62484,37152
62608,37204
62739,37230
62872,37230
63003,37204
63127,37152
63238,37078
63332,36984
63406,36873
63458,36749
63484,36618
63484,36485
63458,36354
63406,36230
63332,36119
63238,36025
63127,35951
63003,35899
62872,35873
62739,35873
62608,35899
62484,35951
62373,36025
62279,36119
62205,36230
62153,36354
62127,36485
53378,36485
53377,36428
53350,36298
53302,36182
53201,36136
52838,36500
52561,36500
52198,36136
52097,36182
52046,36306
52021,36437
50759,36437
50759,35998
52336,35998
52700,36361
53063,35998
53017,35897
52893,35846
52762,35821
52628,35822
52498,35849
52382,35897
52336,35998
50759,35998
50759,35512
50784,35259
50854,35027
50968,34814
51120,34627
51307,34472
51519,34357
51750,34286
52003,34259
63487,34259
63740,34284
Z" /> 
</g>
</g>
<g style="fill:#FFFFFF; fill-opacity:1.0; 
stroke:#FFFFFF; stroke-width:100; stroke-opacity:1; 
stroke-linecap:round; stroke-linejoin:round;">
</g>
<g style="fill:#FFFFFF; fill-opacity:1.0; 
stroke:#FFFFFF; stroke-width:0; stroke-opacity:1; 
stroke-linecap:round; stroke-linejoin:round;">
<circle cx="52000" cy="34500" r="78.7402" /> 
</g>
<g style="fill:#FFFFFF; fill-opacity:1.0; 
stroke:#FFFFFF; stroke-width:39.3701; stroke-opacity:1; 
stroke-linecap:round; stroke-linejoin:round;">
</g>
<g style="fill:#FFFFFF; fill-opacity:1.0; 
stroke:#FFFFFF; stroke-width:0; stroke-opacity:1; 
stroke-linecap:round; stroke-linejoin:round;">
<circle cx="54000" cy="34500" r="78.7402" /> 
</g>
<g style="fill:#FFFFFF; fill-opacity:1.0; 
stroke:#FFFFFF; stroke-width:39.3701; stroke-opacity:1; 
stroke-linecap:round; stroke-linejoin:round;">
</g>
<g style="fill:#FFFFFF; fill-opacity:1.0; 
stroke:#FFFFFF; stroke-width:0; stroke-opacity:1; 
stroke-linecap:round; stroke-linejoin:round;">
<circle cx="56500" cy="34500" r="78.7402" /> 
</g>
<g style="fill:#FFFFFF; fill-opacity:1.0; 
stroke:#FFFFFF; stroke-width:39.3701; stroke-opacity:1; 
stroke-linecap:round; stroke-linejoin:round;">
</g>
<g style="fill:#FFFFFF; fill-opacity:1.0; 
stroke:#FFFFFF; stroke-width:0; stroke-opacity:1; 
stroke-linecap:round; stroke-linejoin:round;">
<circle cx="59000" cy="34500" r="78.7402" /> 
</g>
<g style="fill:#FFFFFF; fill-opacity:1.0; 
stroke:#FFFFFF; stroke-width:39.3701; stroke-opacity:1; 
stroke-linecap:round; stroke-linejoin:round;">
</g>
<g style="fill:#FFFFFF; fill-opacity:1.0; 
stroke:#FFFFFF; stroke-width:0; stroke-opacity:1; 
stroke-linecap:round; stroke-linejoin:round;">
<circle cx="61500" cy="34500" r="78.7402" /> 
</g>
<g style="fill:#FFFFFF; fill-opacity:1.0; 
stroke:#FFFFFF; stroke-width:39.3701; stroke-opacity:1; 
stroke-linecap:round; stroke-linejoin:round;">
</g>
<g style="fill:#FFFFFF; fill-opacity:1.0; 
stroke:#FFFFFF; stroke-width:0; stroke-opacity:1; 
stroke-linecap:round; stroke-linejoin:round;">
<circle cx="63500" cy="34500" r="78.7402" /> 
</g>
<g style="fill:#FFFFFF; fill-opacity:1.0; 
stroke:#FFFFFF; stroke-width:39.3701; stroke-opacity:1; 
stroke-linecap:round; stroke-linejoin:round;">
</g>
<g style="fill:#FFFFFF; fill-opacity:1.0; 
stroke:#FFFFFF; stroke-width:0; stroke-opacity:1; 
stroke-linecap:round; stroke-linejoin:round;">
<circle cx="51000" cy="36000" r="78.7402" /> 
</g>
<g style="fill:#FFFFFF; fill-opacity:1.0; 
stroke:#FFFFFF; stroke-width:39.3701; stroke-opacity:1; 
stroke-linecap:round; stroke-linejoin:round;">
</g>
<g style="fill:#FFFFFF; fill-opacity:1.0; 
stroke:#FFFFFF; stroke-width:0; stroke-opacity:1; 
stroke-linecap:round; stroke-linejoin:round;">
<circle cx="51000" cy="38100" r="78.7402" /> 
</g>
<g style="fill:#FFFFFF; fill-opacity:1.0; 
stroke:#FFFFFF; stroke-width:39.3701; stroke-opacity:1; 
stroke-linecap:round; stroke-linejoin:round;">
</g>
<g style="fill:#FFFFFF; fill-opacity:1.0; 
stroke:#FFFFFF; stroke-width:0; stroke-opacity:1; 
stroke-linecap:round; stroke-linejoin:round;">
<circle cx="51000" cy="40250" r="78.7402" /> 
</g>
<g style="fill:#FFFFFF; fill-opacity:1.0; 
stroke:#FFFFFF; stroke-width:39.3701; stroke-opacity:1; 
stroke-linecap:round; stroke-linejoin:round;">
</g>
<g style="fill:#FFFFFF; fill-opacity:1.0; 
stroke:#FFFFFF; stroke-width:0; stroke-opacity:1; 
stroke-linecap:round; stroke-linejoin:round;">
<circle cx="51000" cy="42700" r="78.7402" /> 
</g>
<g style="fill:#FFFFFF; fill-opacity:1.0; 
stroke:#FFFFFF; stroke-width:39.3701; stroke-opacity:1; 
stroke-linecap:round; stroke-linejoin:round;">
</g>
<g style="fill:#FFFFFF; fill-opacity:1.0; 
stroke:#FFFFFF; stroke-width:0; stroke-opacity:1; 
stroke-linecap:round; stroke-linejoin:round;">
<circle cx="51000" cy="44900" r="78.7402" /> 
</g>
<g style="fill:#FFFFFF; fill-opacity:1.0; 
stroke:#FFFFFF; stroke-width:39.3701; stroke-opacity:1; 
stroke-linecap:round; stroke-linejoin:round;">
</g>
<g style="fill:#FFFFFF; fill-opacity:1.0; 
stroke:#FFFFFF; stroke-width:0; stroke-opacity:1; 
stroke-linecap:round; stroke-linejoin:round;">
<circle cx="54800" cy="44900" r="78.7402" /> 
</g>
<g style="fill:#FFFFFF; fill-opacity:1.0; 
stroke:#FFFFFF; stroke-width:39.3701; stroke-opacity:1; 
stroke-linecap:round; stroke-linejoin:round;">
</g>
<g style="fill:#FFFFFF; fill-opacity:1.0; 
stroke:#FFFFFF; stroke-width:0; stroke-opacity:1; 
stroke-linecap:round; stroke-linejoin:round;">
<circle cx="61500" cy="44900" r="78.7402" /> 
</g>
<g style="fill:#FFFFFF; fill-opacity:1.0; 
stroke:#FFFFFF; stroke-width:39.3701; stroke-opacity:1; 
stroke-linecap:round; stroke-linejoin:round;">
</g>
<g style="fill:#FFFFFF; fill-opacity:1.0; 
stroke:#FFFFFF; stroke-width:0; stroke-opacity:1; 
stroke-linecap:round; stroke-linejoin:round;">
<circle cx="64400" cy="44800" r="78.7402" /> 
</g>
<g style="fill:#FFFFFF; fill-opacity:1.0; 
stroke:#FFFFFF; stroke-width:39.3701; stroke-opacity:1; 
stroke-linecap:round; stroke-linejoin:round;">
</g>
<g style="fill:#FFFFFF; fill-opacity:1.0; 
stroke:#FFFFFF; stroke-width:0; stroke-opacity:1; 
stroke-linecap:round; stroke-linejoin:round;">
<circle cx="64450" cy="42500" r="78.7402" /> 
</g>
<g style="fill:#FFFFFF; fill-opacity:1.0; 
stroke:#FFFFFF; stroke-width:39.3701; stroke-opacity:1; 
stroke-linecap:round; stroke-linejoin:round;">
</g>
<g style="fill:#FFFFFF; fill-opacity:1.0; 
stroke:#FFFFFF; stroke-width:0; stroke-opacity:1; 
stroke-linecap:round; stroke-linejoin:round;">
<circle cx="64450" cy="40050" r="78.7402" /> 
</g>
<g style="fill:#FFFFFF; fill-opacity:1.0; 
stroke:#FFFFFF; stroke-width:39.3701; stroke-opacity:1; 
stroke-linecap:round; stroke-linejoin:round;">
</g>
<g style="fill:#FFFFFF; fill-opacity:1.0; 
stroke:#FFFFFF; stroke-width:0; stroke-opacity:1; 
stroke-linecap:round; stroke-linejoin:round;">
<circle cx="64450" cy="38000" r="78.7402" /> 
</g>
<g style="fill:#FFFFFF; fill-opacity:1.0; 
stroke:#FFFFFF; stroke-width:39.3701; stroke-opacity:1; 
stroke-linecap:round; stroke-linejoin:round;">
</g>
<g style="fill:#FFFFFF; fill-opacity:1.0; 
stroke:#FFFFFF; stroke-width:0; stroke-opacity:1; 
stroke-linecap:round; stroke-linejoin:round;">
<circle cx="64450" cy="36050" r="78.7402" /> 
</g>
<g style="fill:#FFFFFF; fill-opacity:1.0; 
stroke:#FFFFFF; stroke-width:39.3701; stroke-opacity:1; 
stroke-linecap:round; stroke-linejoin:round;">
</g>
<g style="fill:#FFFFFF; fill-opacity:1.0; 
stroke:#FFFFFF; stroke-width:0; stroke-opacity:1; 
stroke-linecap:round; stroke-linejoin:round;">
<circle cx="58000" cy="44900" r="78.7402" /> 
</g>
<g style="fill:#FFFFFF; fill-opacity:1.0; 
stroke:#FFFFFF; stroke-width:39.3701; stroke-opacity:1; 
stroke-linecap:round; stroke-linejoin:round;">
</g>
<g style="fill:#FFFFFF; fill-opacity:1.0; 
stroke:#FFFFFF; stroke-width:0; stroke-opacity:1; 
stroke-linecap:round; stroke-linejoin:round;">
<circle cx="59200" cy="39500" r="147.638" /> 
</g>
<g style="fill:#FFFFFF; fill-opacity:1.0; 
stroke:#FFFFFF; stroke-width:39.3701; stroke-opacity:1; 
stroke-linecap:round; stroke-linejoin:round;">
</g>
<g style="fill:#FFFFFF; fill-opacity:1.0; 
stroke:#FFFFFF; stroke-width:0; stroke-opacity:1; 
stroke-linecap:round; stroke-linejoin:round;">
<circle cx="59200" cy="40000" r="147.638" /> 
</g>
<g style="fill:#FFFFFF; fill-opacity:1.0; 
stroke:#FFFFFF; stroke-width:39.3701; stroke-opacity:1; 
stroke-linecap:round; stroke-linejoin:round;">
</g>
<g style="fill:#FFFFFF; fill-opacity:1.0; 
stroke:#FFFFFF; stroke-width:0; stroke-opacity:1; 
stroke-linecap:round; stroke-linejoin:round;">
<circle cx="59200" cy="39000" r="147.638" /> 
</g>
<g style="fill:#FFFFFF; fill-opacity:1.0; 
stroke:#FFFFFF; stroke-width:39.3701; stroke-opacity:1; 
stroke-linecap:round; stroke-linejoin:round;">
</g>
<g style="fill:#FFFFFF; fill-opacity:1.0; 
stroke:#FFFFFF; stroke-width:0; stroke-opacity:1; 
stroke-linecap:round; stroke-linejoin:round;">
<circle cx="62174" cy="41717.7" r="147.638" /> 
</g>
<g style="fill:#FFFFFF; fill-opacity:1.0; 
stroke:#FFFFFF; stroke-width:39.3701; stroke-opacity:1; 
stroke-linecap:round; stroke-linejoin:round;">
</g>
<g style="fill:#FFFFFF; fill-opacity:1.0; 
stroke:#FFFFFF; stroke-width:0; stroke-opacity:1; 
stroke-linecap:round; stroke-linejoin:round;">
<circle cx="62174" cy="42702" r="147.638" /> 
</g>
<g style="fill:#FFFFFF; fill-opacity:1.0; 
stroke:#FFFFFF; stroke-width:39.3701; stroke-opacity:1; 
stroke-linecap:round; stroke-linejoin:round;">
</g>
<g style="fill:#FFFFFF; fill-opacity:1.0; 
stroke:#FFFFFF; stroke-width:0; stroke-opacity:1; 
stroke-linecap:round; stroke-linejoin:round;">
<circle cx="52700" cy="43500" r="285.433" /> 
</g>
<g style="fill:#FFFFFF; fill-opacity:1.0; 
stroke:#FFFFFF; stroke-width:39.3701; stroke-opacity:1; 
stroke-linecap:round; stroke-linejoin:round;">
</g>
<g style="fill:#FFFFFF; fill-opacity:1.0; 
stroke:#FFFFFF; stroke-width:0; stroke-opacity:1; 
stroke-linecap:round; stroke-linejoin:round;">
<circle cx="52700" cy="41500" r="285.433" /> 
</g>
<g style="fill:#FFFFFF; fill-opacity:1.0; 
stroke:#FFFFFF; stroke-width:39.3701; stroke-opacity:1; 
stroke-linecap:round; stroke-linejoin:round;">
</g>
<g style="fill:#FFFFFF; fill-opacity:1.0; 
stroke:#FFFFFF; stroke-width:0; stroke-opacity:1; 
stroke-linecap:round; stroke-linejoin:round;">
<circle cx="62806" cy="36552" r="285.433" /> 
</g>
<g style="fill:#FFFFFF; fill-opacity:1.0; 
stroke:#FFFFFF; stroke-width:39.3701; stroke-opacity:1; 
stroke-linecap:round; stroke-linejoin:round;">
</g>
<g style="fill:#FFFFFF; fill-opacity:1.0; 
stroke:#FFFFFF; stroke-width:0; stroke-opacity:1; 
stroke-linecap:round; stroke-linejoin:round;">
<circle cx="62806" cy="38552" r="285.433" /> 
</g>
<g style="fill:#FFFFFF; fill-opacity:1.0; 
stroke:#FFFFFF; stroke-width:39.3701; stroke-opacity:1; 
stroke-linecap:round; stroke-linejoin:round;">
</g>
<g style="fill:#FFFFFF; fill-opacity:1.0; 
stroke:#FFFFFF; stroke-width:0; stroke-opacity:1; 
stroke-linecap:round; stroke-linejoin:round;">
<circle cx="52700" cy="38500" r="285.433" /> 
</g>
<g style="fill:#FFFFFF; fill-opacity:1.0; 
stroke:#FFFFFF; stroke-width:39.3701; stroke-opacity:1; 
stroke-linecap:round; stroke-linejoin:round;">
</g>
<g style="fill:#FFFFFF; fill-opacity:1.0; 
stroke:#FFFFFF; stroke-width:0; stroke-opacity:1; 
stroke-linecap:round; stroke-linejoin:round;">
<circle cx="52700" cy="36500" r="285.433" /> 
</g>
<g style="fill:#FFFFFF; fill-opacity:1.0; 
stroke:#FFFFFF; stroke-width:39.3701; stroke-opacity:1; 
stroke-linecap:round; stroke-linejoin:round;">
</g>
<g style="fill:#000000; fill-opacity:1.0; 
stroke:#000000; stroke-width:39.3701; stroke-opacity:1; 
stroke-linecap:round; stroke-linejoin:round;">
</g>
<g style="fill:#BFBF00; fill-opacity:1.0; 
stroke:#BFBF00; stroke-width:39.3701; stroke-opacity:1; 
stroke-linecap:round; stroke-linejoin:round;">
</g>
<g style="fill:#BFBF00; fill-opacity:0.0; 
stroke:#BFBF00; stroke-width:19.685; stroke-opacity:1; 
stroke-linecap:round; stroke-linejoin:round;">
<path d="M50500 45000 A500 500 0.0 0 0 51000 45500 " />
<path d="M52000 34000 A1500 1500 0.0 0 0 50500 35500 " />
<path d="M64500 45500 A500 500 0.0 0 0 65000 45000 " />
<path d="M65000 35500 A1500 1500 0.0 0 0 63500 34000 " />
<path d="M50500 45000
L50500 35500
" />
<path d="M64500 45500
L51000 45500
" />
<path d="M65000 35500
L65000 45000
" />
<path d="M52000 34000
L63500 34000
" />
<g >
</g>
<g >
</g>
<g >
</g>
<g >
</g>
<g >
</g>
<g >
</g>
<g >
</g>
<g >
</g>
<g >
</g>
<g >
</g>
<g >
</g>
</g> 
</svg>
