G04 #@! TF.GenerationSoftware,KiCad,Pcbnew,(5.1.2)-1*
G04 #@! TF.CreationDate,2019-06-13T11:42:40+03:00*
G04 #@! TF.ProjectId,shema,7368656d-612e-46b6-9963-61645f706362,v.1.0*
G04 #@! TF.SameCoordinates,Original*
G04 #@! TF.FileFunction,Legend,Top*
G04 #@! TF.FilePolarity,Positive*
%FSLAX46Y46*%
G04 Gerber Fmt 4.6, Leading zero omitted, Abs format (unit mm)*
G04 Created by KiCad (PCBNEW (5.1.2)-1) date 2019-06-13 11:42:40*
%MOMM*%
%LPD*%
G04 APERTURE LIST*
%ADD10C,0.300000*%
%ADD11C,0.200000*%
%ADD12C,0.120000*%
%ADD13C,0.152400*%
%ADD14C,0.750000*%
%ADD15C,0.100000*%
%ADD16C,0.127000*%
%ADD17C,0.150000*%
%ADD18C,0.254000*%
G04 APERTURE END LIST*
D10*
X149418571Y-114587142D02*
X150561428Y-114587142D01*
D11*
X197299000Y-111554000D02*
X197299000Y-121328000D01*
X162501000Y-113072000D02*
X162501000Y-121328000D01*
D12*
X93460000Y-102220000D02*
X173740000Y-102220000D01*
X173740000Y-102220000D02*
X173740000Y-65940000D01*
X173740000Y-65940000D02*
X94260000Y-65940000D01*
X93460000Y-65940000D02*
X93460000Y-102220000D01*
X93470000Y-65940000D02*
X94260000Y-65940000D01*
X100100000Y-65580000D02*
X103100000Y-65580000D01*
X101800000Y-76580000D02*
X165300000Y-76580000D01*
X101300280Y-91079320D02*
X101300280Y-77080000D01*
X165300660Y-91580000D02*
X101800000Y-91580000D01*
X165800000Y-77080000D02*
X165800000Y-91080000D01*
X165800000Y-77080000D02*
G75*
G03X165300000Y-76580000I-500000J0D01*
G01*
X165300660Y-91579700D02*
G75*
G03X165801040Y-91079320I0J500380D01*
G01*
X101300280Y-91079320D02*
G75*
G03X101800660Y-91579700I500380J0D01*
G01*
X101800660Y-76578460D02*
G75*
G03X101300280Y-77078840I0J-500380D01*
G01*
X96600000Y-71580000D02*
X169600000Y-71580000D01*
X169600000Y-71580000D02*
X169600000Y-96580000D01*
X169600000Y-96580000D02*
X96600000Y-96580000D01*
X96600000Y-96580000D02*
X96600000Y-71580000D01*
D11*
X176849000Y-90170000D02*
X175449000Y-90170000D01*
D13*
X186009280Y-103502571D02*
X186009280Y-100174949D01*
X180929280Y-100174949D02*
X180929280Y-103502571D01*
X180916580Y-102143560D02*
G75*
G03X180916580Y-101533960I0J304800D01*
G01*
D14*
X189064000Y-80637000D02*
G75*
G03X189064000Y-80637000I-420000J0D01*
G01*
X180804000Y-69927000D02*
X186474000Y-69927000D01*
X180804000Y-75387000D02*
X186474000Y-75387000D01*
X187314000Y-74337000D02*
X187314000Y-70557000D01*
X187314000Y-80217000D02*
X187314000Y-76437000D01*
X181014000Y-80847000D02*
X186684000Y-80847000D01*
X180174000Y-80217000D02*
X180174000Y-76437000D01*
X180174000Y-74547000D02*
X180174000Y-70767000D01*
X187314000Y-80217000D02*
X187314000Y-76437000D01*
X181014000Y-80847000D02*
X186684000Y-80847000D01*
X180174000Y-80217000D02*
X180174000Y-76437000D01*
X180804000Y-75387000D02*
X186474000Y-75387000D01*
X187314000Y-74337000D02*
X187314000Y-70557000D01*
X180174000Y-74547000D02*
X180174000Y-70767000D01*
X180804000Y-69927000D02*
X186474000Y-69927000D01*
X187314000Y-74337000D02*
X187314000Y-70557000D01*
X187314000Y-80217000D02*
X187314000Y-76437000D01*
X180174000Y-80217000D02*
X180174000Y-76437000D01*
X180174000Y-74547000D02*
X180174000Y-70767000D01*
X181014000Y-80847000D02*
X186684000Y-80847000D01*
X180804000Y-69927000D02*
X186474000Y-69927000D01*
X180804000Y-75387000D02*
X186474000Y-75387000D01*
X180804000Y-69927000D02*
X186474000Y-69927000D01*
X180804000Y-75387000D02*
X186474000Y-75387000D01*
X187314000Y-74337000D02*
X187314000Y-70557000D01*
X187314000Y-80217000D02*
X187314000Y-76437000D01*
X181014000Y-80847000D02*
X186684000Y-80847000D01*
X180174000Y-80217000D02*
X180174000Y-76437000D01*
X180174000Y-74547000D02*
X180174000Y-70767000D01*
X187314000Y-80217000D02*
X187314000Y-76437000D01*
X181014000Y-80847000D02*
X186684000Y-80847000D01*
X180174000Y-80217000D02*
X180174000Y-76437000D01*
X180804000Y-75387000D02*
X186474000Y-75387000D01*
X187314000Y-74337000D02*
X187314000Y-70557000D01*
X180174000Y-74547000D02*
X180174000Y-70767000D01*
X180804000Y-69927000D02*
X186474000Y-69927000D01*
X187314000Y-74337000D02*
X187314000Y-70557000D01*
X187314000Y-80217000D02*
X187314000Y-76437000D01*
X180174000Y-80217000D02*
X180174000Y-76437000D01*
X180174000Y-74547000D02*
X180174000Y-70767000D01*
X181014000Y-80847000D02*
X186684000Y-80847000D01*
X180804000Y-69927000D02*
X186474000Y-69927000D01*
X180804000Y-75387000D02*
X186474000Y-75387000D01*
D15*
X177419000Y-66167000D02*
X177419000Y-85212000D01*
X190119000Y-66167000D02*
X177419000Y-66167000D01*
X190119000Y-85212000D02*
X190119000Y-66167000D01*
X177419000Y-85212000D02*
X190119000Y-85212000D01*
D11*
X200688000Y-84997000D02*
X203388000Y-84997000D01*
X200688000Y-82897000D02*
X200688000Y-84997000D01*
X203388000Y-82897000D02*
X200688000Y-82897000D01*
X200688000Y-67979000D02*
X203388000Y-67979000D01*
X200688000Y-65879000D02*
X200688000Y-67979000D01*
X203388000Y-65879000D02*
X200688000Y-65879000D01*
X195735000Y-76615000D02*
X198435000Y-76615000D01*
X195735000Y-74515000D02*
X195735000Y-76615000D01*
X198435000Y-74515000D02*
X195735000Y-74515000D01*
X195608000Y-67979000D02*
X198308000Y-67979000D01*
X195608000Y-65879000D02*
X195608000Y-67979000D01*
X198308000Y-65879000D02*
X195608000Y-65879000D01*
X200688000Y-76615000D02*
X203388000Y-76615000D01*
X200688000Y-74515000D02*
X200688000Y-76615000D01*
X203388000Y-74515000D02*
X200688000Y-74515000D01*
X198185000Y-79756000D02*
X196785000Y-79756000D01*
X203265000Y-71247000D02*
X201865000Y-71247000D01*
X198185000Y-71247000D02*
X196785000Y-71247000D01*
X184469000Y-90170000D02*
X183069000Y-90170000D01*
X203138000Y-88265000D02*
X201738000Y-88265000D01*
X187009000Y-90170000D02*
X185609000Y-90170000D01*
X192089000Y-90170000D02*
X190689000Y-90170000D01*
X202250000Y-99600000D02*
X203650000Y-99600000D01*
X189549000Y-90170000D02*
X188149000Y-90170000D01*
X179389000Y-90170000D02*
X177989000Y-90170000D01*
X203138000Y-79756000D02*
X201738000Y-79756000D01*
X181929000Y-90170000D02*
X180529000Y-90170000D01*
X190700000Y-103250000D02*
X190700000Y-103250000D01*
X190900000Y-103250000D02*
X190900000Y-103250000D01*
D15*
X191200000Y-100650000D02*
X191200000Y-98650000D01*
X197200000Y-100650000D02*
X197200000Y-98650000D01*
X193200000Y-102650000D02*
X195200000Y-102650000D01*
X193200000Y-96650000D02*
X195200000Y-96650000D01*
D11*
X190900000Y-103250000D02*
G75*
G02X190700000Y-103250000I-100000J0D01*
G01*
X190700000Y-103250000D02*
G75*
G02X190900000Y-103250000I100000J0D01*
G01*
X199300000Y-115400000D02*
X199300000Y-114900000D01*
X199300000Y-119300000D02*
X199300000Y-118800000D01*
X200610000Y-121100000D02*
X201250000Y-121100000D01*
X204900000Y-121100000D02*
X203100000Y-121100000D01*
X200610000Y-113100000D02*
X201250000Y-113100000D01*
X204900000Y-113100000D02*
X203100000Y-113100000D01*
X204900000Y-121100000D02*
X204900000Y-113100000D01*
D10*
X152444650Y-108401000D02*
G75*
G03X152444650Y-108401000I-84650J0D01*
G01*
D15*
X160300000Y-117100000D02*
G75*
G03X160300000Y-117100000I-8000000J0D01*
G01*
D16*
X125684001Y-111250001D02*
X125684001Y-125050001D01*
X114684001Y-111250001D02*
X114684001Y-125050001D01*
X141684001Y-111250001D02*
X141684001Y-125050001D01*
X98684001Y-111250001D02*
X98684001Y-125050001D01*
X142684001Y-110050001D02*
X142684001Y-111250001D01*
X97684001Y-110050001D02*
X142684001Y-110050001D01*
X97684001Y-111250001D02*
X97684001Y-110050001D01*
X98684001Y-111250001D02*
X97684001Y-111250001D01*
X114684001Y-111250001D02*
X98684001Y-111250001D01*
X125684001Y-111250001D02*
X114684001Y-111250001D01*
X141684001Y-111250001D02*
X125684001Y-111250001D01*
X142684001Y-111250001D02*
X141684001Y-111250001D01*
X125684001Y-125050001D02*
X141684001Y-125050001D01*
X98684001Y-125050001D02*
X114684001Y-125050001D01*
D17*
X165288095Y-109052380D02*
X165288095Y-109861904D01*
X165335714Y-109957142D01*
X165383333Y-110004761D01*
X165478571Y-110052380D01*
X165669047Y-110052380D01*
X165764285Y-110004761D01*
X165811904Y-109957142D01*
X165859523Y-109861904D01*
X165859523Y-109052380D01*
X166859523Y-110052380D02*
X166288095Y-110052380D01*
X166573809Y-110052380D02*
X166573809Y-109052380D01*
X166478571Y-109195238D01*
X166383333Y-109290476D01*
X166288095Y-109338095D01*
X95018095Y-64222380D02*
X95018095Y-65031904D01*
X95065714Y-65127142D01*
X95113333Y-65174761D01*
X95208571Y-65222380D01*
X95399047Y-65222380D01*
X95494285Y-65174761D01*
X95541904Y-65127142D01*
X95589523Y-65031904D01*
X95589523Y-64222380D01*
X96494285Y-64555714D02*
X96494285Y-65222380D01*
X96256190Y-64174761D02*
X96018095Y-64889047D01*
X96637142Y-64889047D01*
D18*
X176824523Y-93961666D02*
X176219761Y-94385000D01*
X176824523Y-94687380D02*
X175554523Y-94687380D01*
X175554523Y-94203571D01*
X175615000Y-94082619D01*
X175675476Y-94022142D01*
X175796428Y-93961666D01*
X175977857Y-93961666D01*
X176098809Y-94022142D01*
X176159285Y-94082619D01*
X176219761Y-94203571D01*
X176219761Y-94687380D01*
X175554523Y-92873095D02*
X175554523Y-93115000D01*
X175615000Y-93235952D01*
X175675476Y-93296428D01*
X175856904Y-93417380D01*
X176098809Y-93477857D01*
X176582619Y-93477857D01*
X176703571Y-93417380D01*
X176764047Y-93356904D01*
X176824523Y-93235952D01*
X176824523Y-92994047D01*
X176764047Y-92873095D01*
X176703571Y-92812619D01*
X176582619Y-92752142D01*
X176280238Y-92752142D01*
X176159285Y-92812619D01*
X176098809Y-92873095D01*
X176038333Y-92994047D01*
X176038333Y-93235952D01*
X176098809Y-93356904D01*
X176159285Y-93417380D01*
X176280238Y-93477857D01*
D17*
X178888095Y-96702380D02*
X178888095Y-97511904D01*
X178935714Y-97607142D01*
X178983333Y-97654761D01*
X179078571Y-97702380D01*
X179269047Y-97702380D01*
X179364285Y-97654761D01*
X179411904Y-97607142D01*
X179459523Y-97511904D01*
X179459523Y-96702380D01*
X179888095Y-96797619D02*
X179935714Y-96750000D01*
X180030952Y-96702380D01*
X180269047Y-96702380D01*
X180364285Y-96750000D01*
X180411904Y-96797619D01*
X180459523Y-96892857D01*
X180459523Y-96988095D01*
X180411904Y-97130952D01*
X179840476Y-97702380D01*
X180459523Y-97702380D01*
D18*
X182991380Y-63704523D02*
X182991380Y-64732619D01*
X183051857Y-64853571D01*
X183112333Y-64914047D01*
X183233285Y-64974523D01*
X183475190Y-64974523D01*
X183596142Y-64914047D01*
X183656619Y-64853571D01*
X183717095Y-64732619D01*
X183717095Y-63704523D01*
X184200904Y-63704523D02*
X184987095Y-63704523D01*
X184563761Y-64188333D01*
X184745190Y-64188333D01*
X184866142Y-64248809D01*
X184926619Y-64309285D01*
X184987095Y-64430238D01*
X184987095Y-64732619D01*
X184926619Y-64853571D01*
X184866142Y-64914047D01*
X184745190Y-64974523D01*
X184382333Y-64974523D01*
X184261380Y-64914047D01*
X184200904Y-64853571D01*
X204712619Y-84624523D02*
X204712619Y-83354523D01*
X205015000Y-83354523D01*
X205196428Y-83415000D01*
X205317380Y-83535952D01*
X205377857Y-83656904D01*
X205438333Y-83898809D01*
X205438333Y-84080238D01*
X205377857Y-84322142D01*
X205317380Y-84443095D01*
X205196428Y-84564047D01*
X205015000Y-84624523D01*
X204712619Y-84624523D01*
X206587380Y-83354523D02*
X205982619Y-83354523D01*
X205922142Y-83959285D01*
X205982619Y-83898809D01*
X206103571Y-83838333D01*
X206405952Y-83838333D01*
X206526904Y-83898809D01*
X206587380Y-83959285D01*
X206647857Y-84080238D01*
X206647857Y-84382619D01*
X206587380Y-84503571D01*
X206526904Y-84564047D01*
X206405952Y-84624523D01*
X206103571Y-84624523D01*
X205982619Y-84564047D01*
X205922142Y-84503571D01*
X204662619Y-67474523D02*
X204662619Y-66204523D01*
X204965000Y-66204523D01*
X205146428Y-66265000D01*
X205267380Y-66385952D01*
X205327857Y-66506904D01*
X205388333Y-66748809D01*
X205388333Y-66930238D01*
X205327857Y-67172142D01*
X205267380Y-67293095D01*
X205146428Y-67414047D01*
X204965000Y-67474523D01*
X204662619Y-67474523D01*
X205811666Y-66204523D02*
X206597857Y-66204523D01*
X206174523Y-66688333D01*
X206355952Y-66688333D01*
X206476904Y-66748809D01*
X206537380Y-66809285D01*
X206597857Y-66930238D01*
X206597857Y-67232619D01*
X206537380Y-67353571D01*
X206476904Y-67414047D01*
X206355952Y-67474523D01*
X205993095Y-67474523D01*
X205872142Y-67414047D01*
X205811666Y-67353571D01*
X193262619Y-76174523D02*
X193262619Y-74904523D01*
X193565000Y-74904523D01*
X193746428Y-74965000D01*
X193867380Y-75085952D01*
X193927857Y-75206904D01*
X193988333Y-75448809D01*
X193988333Y-75630238D01*
X193927857Y-75872142D01*
X193867380Y-75993095D01*
X193746428Y-76114047D01*
X193565000Y-76174523D01*
X193262619Y-76174523D01*
X194472142Y-75025476D02*
X194532619Y-74965000D01*
X194653571Y-74904523D01*
X194955952Y-74904523D01*
X195076904Y-74965000D01*
X195137380Y-75025476D01*
X195197857Y-75146428D01*
X195197857Y-75267380D01*
X195137380Y-75448809D01*
X194411666Y-76174523D01*
X195197857Y-76174523D01*
X193212619Y-67474523D02*
X193212619Y-66204523D01*
X193515000Y-66204523D01*
X193696428Y-66265000D01*
X193817380Y-66385952D01*
X193877857Y-66506904D01*
X193938333Y-66748809D01*
X193938333Y-66930238D01*
X193877857Y-67172142D01*
X193817380Y-67293095D01*
X193696428Y-67414047D01*
X193515000Y-67474523D01*
X193212619Y-67474523D01*
X195147857Y-67474523D02*
X194422142Y-67474523D01*
X194785000Y-67474523D02*
X194785000Y-66204523D01*
X194664047Y-66385952D01*
X194543095Y-66506904D01*
X194422142Y-66567380D01*
X204712619Y-76124523D02*
X204712619Y-74854523D01*
X205015000Y-74854523D01*
X205196428Y-74915000D01*
X205317380Y-75035952D01*
X205377857Y-75156904D01*
X205438333Y-75398809D01*
X205438333Y-75580238D01*
X205377857Y-75822142D01*
X205317380Y-75943095D01*
X205196428Y-76064047D01*
X205015000Y-76124523D01*
X204712619Y-76124523D01*
X206526904Y-75277857D02*
X206526904Y-76124523D01*
X206224523Y-74794047D02*
X205922142Y-75701190D01*
X206708333Y-75701190D01*
X200429523Y-79967666D02*
X199824761Y-80391000D01*
X200429523Y-80693380D02*
X199159523Y-80693380D01*
X199159523Y-80209571D01*
X199220000Y-80088619D01*
X199280476Y-80028142D01*
X199401428Y-79967666D01*
X199582857Y-79967666D01*
X199703809Y-80028142D01*
X199764285Y-80088619D01*
X199824761Y-80209571D01*
X199824761Y-80693380D01*
X200429523Y-79362904D02*
X200429523Y-79121000D01*
X200369047Y-79000047D01*
X200308571Y-78939571D01*
X200127142Y-78818619D01*
X199885238Y-78758142D01*
X199401428Y-78758142D01*
X199280476Y-78818619D01*
X199220000Y-78879095D01*
X199159523Y-79000047D01*
X199159523Y-79241952D01*
X199220000Y-79362904D01*
X199280476Y-79423380D01*
X199401428Y-79483857D01*
X199703809Y-79483857D01*
X199824761Y-79423380D01*
X199885238Y-79362904D01*
X199945714Y-79241952D01*
X199945714Y-79000047D01*
X199885238Y-78879095D01*
X199824761Y-78818619D01*
X199703809Y-78758142D01*
X205509523Y-72063428D02*
X204904761Y-72486761D01*
X205509523Y-72789142D02*
X204239523Y-72789142D01*
X204239523Y-72305333D01*
X204300000Y-72184380D01*
X204360476Y-72123904D01*
X204481428Y-72063428D01*
X204662857Y-72063428D01*
X204783809Y-72123904D01*
X204844285Y-72184380D01*
X204904761Y-72305333D01*
X204904761Y-72789142D01*
X205509523Y-70853904D02*
X205509523Y-71579619D01*
X205509523Y-71216761D02*
X204239523Y-71216761D01*
X204420952Y-71337714D01*
X204541904Y-71458666D01*
X204602380Y-71579619D01*
X204239523Y-70067714D02*
X204239523Y-69946761D01*
X204300000Y-69825809D01*
X204360476Y-69765333D01*
X204481428Y-69704857D01*
X204723333Y-69644380D01*
X205025714Y-69644380D01*
X205267619Y-69704857D01*
X205388571Y-69765333D01*
X205449047Y-69825809D01*
X205509523Y-69946761D01*
X205509523Y-70067714D01*
X205449047Y-70188666D01*
X205388571Y-70249142D01*
X205267619Y-70309619D01*
X205025714Y-70370095D01*
X204723333Y-70370095D01*
X204481428Y-70309619D01*
X204360476Y-70249142D01*
X204300000Y-70188666D01*
X204239523Y-70067714D01*
X200824523Y-71511666D02*
X200219761Y-71935000D01*
X200824523Y-72237380D02*
X199554523Y-72237380D01*
X199554523Y-71753571D01*
X199615000Y-71632619D01*
X199675476Y-71572142D01*
X199796428Y-71511666D01*
X199977857Y-71511666D01*
X200098809Y-71572142D01*
X200159285Y-71632619D01*
X200219761Y-71753571D01*
X200219761Y-72237380D01*
X200098809Y-70785952D02*
X200038333Y-70906904D01*
X199977857Y-70967380D01*
X199856904Y-71027857D01*
X199796428Y-71027857D01*
X199675476Y-70967380D01*
X199615000Y-70906904D01*
X199554523Y-70785952D01*
X199554523Y-70544047D01*
X199615000Y-70423095D01*
X199675476Y-70362619D01*
X199796428Y-70302142D01*
X199856904Y-70302142D01*
X199977857Y-70362619D01*
X200038333Y-70423095D01*
X200098809Y-70544047D01*
X200098809Y-70785952D01*
X200159285Y-70906904D01*
X200219761Y-70967380D01*
X200340714Y-71027857D01*
X200582619Y-71027857D01*
X200703571Y-70967380D01*
X200764047Y-70906904D01*
X200824523Y-70785952D01*
X200824523Y-70544047D01*
X200764047Y-70423095D01*
X200703571Y-70362619D01*
X200582619Y-70302142D01*
X200340714Y-70302142D01*
X200219761Y-70362619D01*
X200159285Y-70423095D01*
X200098809Y-70544047D01*
X184524523Y-94011666D02*
X183919761Y-94435000D01*
X184524523Y-94737380D02*
X183254523Y-94737380D01*
X183254523Y-94253571D01*
X183315000Y-94132619D01*
X183375476Y-94072142D01*
X183496428Y-94011666D01*
X183677857Y-94011666D01*
X183798809Y-94072142D01*
X183859285Y-94132619D01*
X183919761Y-94253571D01*
X183919761Y-94737380D01*
X183677857Y-92923095D02*
X184524523Y-92923095D01*
X183194047Y-93225476D02*
X184101190Y-93527857D01*
X184101190Y-92741666D01*
X205382523Y-89081428D02*
X204777761Y-89504761D01*
X205382523Y-89807142D02*
X204112523Y-89807142D01*
X204112523Y-89323333D01*
X204173000Y-89202380D01*
X204233476Y-89141904D01*
X204354428Y-89081428D01*
X204535857Y-89081428D01*
X204656809Y-89141904D01*
X204717285Y-89202380D01*
X204777761Y-89323333D01*
X204777761Y-89807142D01*
X205382523Y-87871904D02*
X205382523Y-88597619D01*
X205382523Y-88234761D02*
X204112523Y-88234761D01*
X204293952Y-88355714D01*
X204414904Y-88476666D01*
X204475380Y-88597619D01*
X204233476Y-87388095D02*
X204173000Y-87327619D01*
X204112523Y-87206666D01*
X204112523Y-86904285D01*
X204173000Y-86783333D01*
X204233476Y-86722857D01*
X204354428Y-86662380D01*
X204475380Y-86662380D01*
X204656809Y-86722857D01*
X205382523Y-87448571D01*
X205382523Y-86662380D01*
X187024523Y-94061666D02*
X186419761Y-94485000D01*
X187024523Y-94787380D02*
X185754523Y-94787380D01*
X185754523Y-94303571D01*
X185815000Y-94182619D01*
X185875476Y-94122142D01*
X185996428Y-94061666D01*
X186177857Y-94061666D01*
X186298809Y-94122142D01*
X186359285Y-94182619D01*
X186419761Y-94303571D01*
X186419761Y-94787380D01*
X185754523Y-93638333D02*
X185754523Y-92852142D01*
X186238333Y-93275476D01*
X186238333Y-93094047D01*
X186298809Y-92973095D01*
X186359285Y-92912619D01*
X186480238Y-92852142D01*
X186782619Y-92852142D01*
X186903571Y-92912619D01*
X186964047Y-92973095D01*
X187024523Y-93094047D01*
X187024523Y-93456904D01*
X186964047Y-93577857D01*
X186903571Y-93638333D01*
X192024523Y-94061666D02*
X191419761Y-94485000D01*
X192024523Y-94787380D02*
X190754523Y-94787380D01*
X190754523Y-94303571D01*
X190815000Y-94182619D01*
X190875476Y-94122142D01*
X190996428Y-94061666D01*
X191177857Y-94061666D01*
X191298809Y-94122142D01*
X191359285Y-94182619D01*
X191419761Y-94303571D01*
X191419761Y-94787380D01*
X192024523Y-92852142D02*
X192024523Y-93577857D01*
X192024523Y-93215000D02*
X190754523Y-93215000D01*
X190935952Y-93335952D01*
X191056904Y-93456904D01*
X191117380Y-93577857D01*
X201154523Y-100416428D02*
X200549761Y-100839761D01*
X201154523Y-101142142D02*
X199884523Y-101142142D01*
X199884523Y-100658333D01*
X199945000Y-100537380D01*
X200005476Y-100476904D01*
X200126428Y-100416428D01*
X200307857Y-100416428D01*
X200428809Y-100476904D01*
X200489285Y-100537380D01*
X200549761Y-100658333D01*
X200549761Y-101142142D01*
X201154523Y-99206904D02*
X201154523Y-99932619D01*
X201154523Y-99569761D02*
X199884523Y-99569761D01*
X200065952Y-99690714D01*
X200186904Y-99811666D01*
X200247380Y-99932619D01*
X199884523Y-98783571D02*
X199884523Y-97997380D01*
X200368333Y-98420714D01*
X200368333Y-98239285D01*
X200428809Y-98118333D01*
X200489285Y-98057857D01*
X200610238Y-97997380D01*
X200912619Y-97997380D01*
X201033571Y-98057857D01*
X201094047Y-98118333D01*
X201154523Y-98239285D01*
X201154523Y-98602142D01*
X201094047Y-98723095D01*
X201033571Y-98783571D01*
X189574523Y-94111666D02*
X188969761Y-94535000D01*
X189574523Y-94837380D02*
X188304523Y-94837380D01*
X188304523Y-94353571D01*
X188365000Y-94232619D01*
X188425476Y-94172142D01*
X188546428Y-94111666D01*
X188727857Y-94111666D01*
X188848809Y-94172142D01*
X188909285Y-94232619D01*
X188969761Y-94353571D01*
X188969761Y-94837380D01*
X188425476Y-93627857D02*
X188365000Y-93567380D01*
X188304523Y-93446428D01*
X188304523Y-93144047D01*
X188365000Y-93023095D01*
X188425476Y-92962619D01*
X188546428Y-92902142D01*
X188667380Y-92902142D01*
X188848809Y-92962619D01*
X189574523Y-93688333D01*
X189574523Y-92902142D01*
X179474523Y-94011666D02*
X178869761Y-94435000D01*
X179474523Y-94737380D02*
X178204523Y-94737380D01*
X178204523Y-94253571D01*
X178265000Y-94132619D01*
X178325476Y-94072142D01*
X178446428Y-94011666D01*
X178627857Y-94011666D01*
X178748809Y-94072142D01*
X178809285Y-94132619D01*
X178869761Y-94253571D01*
X178869761Y-94737380D01*
X178204523Y-93588333D02*
X178204523Y-92741666D01*
X179474523Y-93285952D01*
X205382523Y-80572428D02*
X204777761Y-80995761D01*
X205382523Y-81298142D02*
X204112523Y-81298142D01*
X204112523Y-80814333D01*
X204173000Y-80693380D01*
X204233476Y-80632904D01*
X204354428Y-80572428D01*
X204535857Y-80572428D01*
X204656809Y-80632904D01*
X204717285Y-80693380D01*
X204777761Y-80814333D01*
X204777761Y-81298142D01*
X205382523Y-79362904D02*
X205382523Y-80088619D01*
X205382523Y-79725761D02*
X204112523Y-79725761D01*
X204293952Y-79846714D01*
X204414904Y-79967666D01*
X204475380Y-80088619D01*
X205382523Y-78153380D02*
X205382523Y-78879095D01*
X205382523Y-78516238D02*
X204112523Y-78516238D01*
X204293952Y-78637190D01*
X204414904Y-78758142D01*
X204475380Y-78879095D01*
X181924523Y-94011666D02*
X181319761Y-94435000D01*
X181924523Y-94737380D02*
X180654523Y-94737380D01*
X180654523Y-94253571D01*
X180715000Y-94132619D01*
X180775476Y-94072142D01*
X180896428Y-94011666D01*
X181077857Y-94011666D01*
X181198809Y-94072142D01*
X181259285Y-94132619D01*
X181319761Y-94253571D01*
X181319761Y-94737380D01*
X180654523Y-92862619D02*
X180654523Y-93467380D01*
X181259285Y-93527857D01*
X181198809Y-93467380D01*
X181138333Y-93346428D01*
X181138333Y-93044047D01*
X181198809Y-92923095D01*
X181259285Y-92862619D01*
X181380238Y-92802142D01*
X181682619Y-92802142D01*
X181803571Y-92862619D01*
X181864047Y-92923095D01*
X181924523Y-93044047D01*
X181924523Y-93346428D01*
X181864047Y-93467380D01*
X181803571Y-93527857D01*
X194156666Y-94364047D02*
X194338095Y-94424523D01*
X194640476Y-94424523D01*
X194761428Y-94364047D01*
X194821904Y-94303571D01*
X194882380Y-94182619D01*
X194882380Y-94061666D01*
X194821904Y-93940714D01*
X194761428Y-93880238D01*
X194640476Y-93819761D01*
X194398571Y-93759285D01*
X194277619Y-93698809D01*
X194217142Y-93638333D01*
X194156666Y-93517380D01*
X194156666Y-93396428D01*
X194217142Y-93275476D01*
X194277619Y-93215000D01*
X194398571Y-93154523D01*
X194700952Y-93154523D01*
X194882380Y-93215000D01*
X195305714Y-93154523D02*
X195608095Y-94424523D01*
X195850000Y-93517380D01*
X196091904Y-94424523D01*
X196394285Y-93154523D01*
X197543333Y-94424523D02*
X196817619Y-94424523D01*
X197180476Y-94424523D02*
X197180476Y-93154523D01*
X197059523Y-93335952D01*
X196938571Y-93456904D01*
X196817619Y-93517380D01*
X202326666Y-110504523D02*
X202326666Y-111411666D01*
X202266190Y-111593095D01*
X202145238Y-111714047D01*
X201963809Y-111774523D01*
X201842857Y-111774523D01*
X203596666Y-111774523D02*
X202870952Y-111774523D01*
X203233809Y-111774523D02*
X203233809Y-110504523D01*
X203112857Y-110685952D01*
X202991904Y-110806904D01*
X202870952Y-110867380D01*
X156381190Y-108309285D02*
X156562619Y-108369761D01*
X156623095Y-108430238D01*
X156683571Y-108551190D01*
X156683571Y-108732619D01*
X156623095Y-108853571D01*
X156562619Y-108914047D01*
X156441666Y-108974523D01*
X155957857Y-108974523D01*
X155957857Y-107704523D01*
X156381190Y-107704523D01*
X156502142Y-107765000D01*
X156562619Y-107825476D01*
X156623095Y-107946428D01*
X156623095Y-108067380D01*
X156562619Y-108188333D01*
X156502142Y-108248809D01*
X156381190Y-108309285D01*
X155957857Y-108309285D01*
X157106904Y-107704523D02*
X157953571Y-107704523D01*
X157106904Y-108974523D01*
X157953571Y-108974523D01*
X159102619Y-108974523D02*
X158376904Y-108974523D01*
X158739761Y-108974523D02*
X158739761Y-107704523D01*
X158618809Y-107885952D01*
X158497857Y-108006904D01*
X158376904Y-108067380D01*
D17*
X100387699Y-107502096D02*
X100387699Y-108312040D01*
X100435342Y-108407328D01*
X100482986Y-108454972D01*
X100578274Y-108502616D01*
X100768849Y-108502616D01*
X100864137Y-108454972D01*
X100911780Y-108407328D01*
X100959424Y-108312040D01*
X100959424Y-107502096D01*
X101912300Y-107502096D02*
X101435862Y-107502096D01*
X101388219Y-107978534D01*
X101435862Y-107930890D01*
X101531150Y-107883246D01*
X101769369Y-107883246D01*
X101864657Y-107930890D01*
X101912300Y-107978534D01*
X101959944Y-108073821D01*
X101959944Y-108312040D01*
X101912300Y-108407328D01*
X101864657Y-108454972D01*
X101769369Y-108502616D01*
X101531150Y-108502616D01*
X101435862Y-108454972D01*
X101388219Y-108407328D01*
X116716666Y-127102380D02*
X116716666Y-126102380D01*
X116716666Y-126578571D02*
X117288095Y-126578571D01*
X117288095Y-127102380D02*
X117288095Y-126102380D01*
X118335714Y-127007142D02*
X118288095Y-127054761D01*
X118145238Y-127102380D01*
X118050000Y-127102380D01*
X117907142Y-127054761D01*
X117811904Y-126959523D01*
X117764285Y-126864285D01*
X117716666Y-126673809D01*
X117716666Y-126530952D01*
X117764285Y-126340476D01*
X117811904Y-126245238D01*
X117907142Y-126150000D01*
X118050000Y-126102380D01*
X118145238Y-126102380D01*
X118288095Y-126150000D01*
X118335714Y-126197619D01*
X118764285Y-126721428D02*
X119526190Y-126721428D01*
X119954761Y-127054761D02*
X120097619Y-127102380D01*
X120335714Y-127102380D01*
X120430952Y-127054761D01*
X120478571Y-127007142D01*
X120526190Y-126911904D01*
X120526190Y-126816666D01*
X120478571Y-126721428D01*
X120430952Y-126673809D01*
X120335714Y-126626190D01*
X120145238Y-126578571D01*
X120050000Y-126530952D01*
X120002380Y-126483333D01*
X119954761Y-126388095D01*
X119954761Y-126292857D01*
X120002380Y-126197619D01*
X120050000Y-126150000D01*
X120145238Y-126102380D01*
X120383333Y-126102380D01*
X120526190Y-126150000D01*
X121526190Y-127102380D02*
X121192857Y-126626190D01*
X120954761Y-127102380D02*
X120954761Y-126102380D01*
X121335714Y-126102380D01*
X121430952Y-126150000D01*
X121478571Y-126197619D01*
X121526190Y-126292857D01*
X121526190Y-126435714D01*
X121478571Y-126530952D01*
X121430952Y-126578571D01*
X121335714Y-126626190D01*
X120954761Y-126626190D01*
X122145238Y-126102380D02*
X122240476Y-126102380D01*
X122335714Y-126150000D01*
X122383333Y-126197619D01*
X122430952Y-126292857D01*
X122478571Y-126483333D01*
X122478571Y-126721428D01*
X122430952Y-126911904D01*
X122383333Y-127007142D01*
X122335714Y-127054761D01*
X122240476Y-127102380D01*
X122145238Y-127102380D01*
X122050000Y-127054761D01*
X122002380Y-127007142D01*
X121954761Y-126911904D01*
X121907142Y-126721428D01*
X121907142Y-126483333D01*
X121954761Y-126292857D01*
X122002380Y-126197619D01*
X122050000Y-126150000D01*
X122145238Y-126102380D01*
X123335714Y-126435714D02*
X123335714Y-127102380D01*
X123097619Y-126054761D02*
X122859523Y-126769047D01*
X123478571Y-126769047D01*
M02*
