M48
; DRILL file {KiCad (5.1.2)-1} date 13.06.2019 11:46:29
; FORMAT={-:-/ absolute / metric / decimal}
; #@! TF.CreationDate,2019-06-13T11:46:29+03:00
; #@! TF.GenerationSoftware,Kicad,Pcbnew,(5.1.2)-1
; #@! TF.FileFunction,Plated,1,2,PTH
FMAT,2
METRIC
T1C0.400
T2C0.733
T3C1.000
T4C1.020
T5C1.200
T6C2.500
%
G90
G05
T1
X92.49Y-98.02
X92.59Y-64.66
X92.62Y-116.64
X92.65Y-79.53
X102.66Y-127.2
X105.57Y-70.7
X105.69Y-86.27
X116.82Y-104.07
X118.21Y-71.33
X120.17Y-80.07
X122.44Y-127.2
X127.02Y-108.35
X136.88Y-90.19
X137.79Y-81.93
X138.12Y-98.02
X144.76Y-124.78
X158.79Y-118.47
X158.8Y-103.39
X166.88Y-120.19
X177.45Y-118.02
X178.44Y-81.19
X178.48Y-70.13
X186.06Y-110.57
X187.59Y-103.01
X188.45Y-117.09
X188.79Y-70.31
X189.02Y-81.27
X190.87Y-105.94
X191.05Y-119.55
X193.34Y-66.5
X194.77Y-77.21
X194.77Y-94.13
X197.63Y-110.93
X197.78Y-117.2
X199.35Y-80.27
X200.43Y-103.89
X200.95Y-97.81
X202.54Y-65.25
X202.66Y-122.75
X204.5Y-70.54
X205.85Y-127.17
X206.0Y-64.52
T2
X163.39Y-112.12
X163.39Y-122.28
X165.93Y-112.12
X165.93Y-122.28
X168.47Y-112.12
X168.47Y-122.28
X171.01Y-112.12
X171.01Y-122.28
X173.55Y-112.12
X173.55Y-122.28
X176.09Y-112.12
X176.09Y-122.28
X178.63Y-112.12
X178.63Y-122.28
X181.17Y-112.12
X181.17Y-122.28
X183.71Y-112.12
X183.71Y-122.28
X186.25Y-112.12
X186.25Y-122.28
X188.79Y-112.12
X188.79Y-122.28
X191.33Y-112.12
X191.33Y-122.28
X193.87Y-112.12
X193.87Y-122.28
X196.41Y-112.12
X196.41Y-122.28
T3
X178.689Y-68.072
X178.689Y-83.312
X181.229Y-68.072
X181.229Y-83.312
X183.769Y-68.072
X183.769Y-83.312
X186.309Y-68.072
X186.309Y-83.312
X188.849Y-68.072
X188.849Y-83.312
X152.3Y-114.6
X152.3Y-119.6
T4
X116.374Y-105.78
X118.914Y-105.78
X121.454Y-105.78
X123.994Y-105.78
T5
X101.6Y-68.58
X104.14Y-68.58
X106.68Y-68.58
X109.22Y-68.58
X111.76Y-68.58
X114.3Y-68.58
X116.84Y-68.58
X119.38Y-68.58
X121.92Y-68.58
X124.46Y-68.58
X127.0Y-68.58
X129.54Y-68.58
X132.08Y-68.58
X134.62Y-68.58
X137.16Y-68.58
X139.7Y-68.58
T6
X96.101Y-68.58
X96.101Y-99.581
X171.099Y-99.581
X171.1Y-68.58
T0
M30
