G04 #@! TF.GenerationSoftware,KiCad,Pcbnew,(5.1.2)-1*
G04 #@! TF.CreationDate,2019-06-13T11:42:40+03:00*
G04 #@! TF.ProjectId,shema,7368656d-612e-46b6-9963-61645f706362,v.1.0*
G04 #@! TF.SameCoordinates,Original*
G04 #@! TF.FileFunction,Soldermask,Bot*
G04 #@! TF.FilePolarity,Negative*
%FSLAX46Y46*%
G04 Gerber Fmt 4.6, Leading zero omitted, Abs format (unit mm)*
G04 Created by KiCad (PCBNEW (5.1.2)-1) date 2019-06-13 11:42:40*
%MOMM*%
%LPD*%
G04 APERTURE LIST*
%ADD10C,0.100000*%
G04 APERTURE END LIST*
D10*
G36*
X196590114Y-121686228D02*
G01*
X196625157Y-121700744D01*
X196702496Y-121732778D01*
X196702499Y-121732780D01*
X196803631Y-121800354D01*
X196889646Y-121886369D01*
X196957220Y-121987501D01*
X196957222Y-121987504D01*
X196989256Y-122064843D01*
X197003772Y-122099886D01*
X197027500Y-122219179D01*
X197027500Y-122340821D01*
X197003772Y-122460114D01*
X197003770Y-122460118D01*
X196957222Y-122572496D01*
X196957220Y-122572499D01*
X196889646Y-122673631D01*
X196803631Y-122759646D01*
X196702499Y-122827220D01*
X196702496Y-122827222D01*
X196625157Y-122859256D01*
X196590114Y-122873772D01*
X196470821Y-122897500D01*
X196349179Y-122897500D01*
X196229886Y-122873772D01*
X196194843Y-122859256D01*
X196117504Y-122827222D01*
X196117501Y-122827220D01*
X196016369Y-122759646D01*
X195930354Y-122673631D01*
X195862780Y-122572499D01*
X195862778Y-122572496D01*
X195816230Y-122460118D01*
X195816228Y-122460114D01*
X195792500Y-122340821D01*
X195792500Y-122219179D01*
X195816228Y-122099886D01*
X195830744Y-122064843D01*
X195862778Y-121987504D01*
X195862780Y-121987501D01*
X195930354Y-121886369D01*
X196016369Y-121800354D01*
X196117501Y-121732780D01*
X196117504Y-121732778D01*
X196194843Y-121700744D01*
X196229886Y-121686228D01*
X196349179Y-121662500D01*
X196470821Y-121662500D01*
X196590114Y-121686228D01*
X196590114Y-121686228D01*
G37*
G36*
X183890114Y-121686228D02*
G01*
X183925157Y-121700744D01*
X184002496Y-121732778D01*
X184002499Y-121732780D01*
X184103631Y-121800354D01*
X184189646Y-121886369D01*
X184257220Y-121987501D01*
X184257222Y-121987504D01*
X184289256Y-122064843D01*
X184303772Y-122099886D01*
X184327500Y-122219179D01*
X184327500Y-122340821D01*
X184303772Y-122460114D01*
X184303770Y-122460118D01*
X184257222Y-122572496D01*
X184257220Y-122572499D01*
X184189646Y-122673631D01*
X184103631Y-122759646D01*
X184002499Y-122827220D01*
X184002496Y-122827222D01*
X183925157Y-122859256D01*
X183890114Y-122873772D01*
X183770821Y-122897500D01*
X183649179Y-122897500D01*
X183529886Y-122873772D01*
X183494843Y-122859256D01*
X183417504Y-122827222D01*
X183417501Y-122827220D01*
X183316369Y-122759646D01*
X183230354Y-122673631D01*
X183162780Y-122572499D01*
X183162778Y-122572496D01*
X183116230Y-122460118D01*
X183116228Y-122460114D01*
X183092500Y-122340821D01*
X183092500Y-122219179D01*
X183116228Y-122099886D01*
X183130744Y-122064843D01*
X183162778Y-121987504D01*
X183162780Y-121987501D01*
X183230354Y-121886369D01*
X183316369Y-121800354D01*
X183417501Y-121732780D01*
X183417504Y-121732778D01*
X183494843Y-121700744D01*
X183529886Y-121686228D01*
X183649179Y-121662500D01*
X183770821Y-121662500D01*
X183890114Y-121686228D01*
X183890114Y-121686228D01*
G37*
G36*
X194050114Y-121686228D02*
G01*
X194085157Y-121700744D01*
X194162496Y-121732778D01*
X194162499Y-121732780D01*
X194263631Y-121800354D01*
X194349646Y-121886369D01*
X194417220Y-121987501D01*
X194417222Y-121987504D01*
X194449256Y-122064843D01*
X194463772Y-122099886D01*
X194487500Y-122219179D01*
X194487500Y-122340821D01*
X194463772Y-122460114D01*
X194463770Y-122460118D01*
X194417222Y-122572496D01*
X194417220Y-122572499D01*
X194349646Y-122673631D01*
X194263631Y-122759646D01*
X194162499Y-122827220D01*
X194162496Y-122827222D01*
X194085157Y-122859256D01*
X194050114Y-122873772D01*
X193930821Y-122897500D01*
X193809179Y-122897500D01*
X193689886Y-122873772D01*
X193654843Y-122859256D01*
X193577504Y-122827222D01*
X193577501Y-122827220D01*
X193476369Y-122759646D01*
X193390354Y-122673631D01*
X193322780Y-122572499D01*
X193322778Y-122572496D01*
X193276230Y-122460118D01*
X193276228Y-122460114D01*
X193252500Y-122340821D01*
X193252500Y-122219179D01*
X193276228Y-122099886D01*
X193290744Y-122064843D01*
X193322778Y-121987504D01*
X193322780Y-121987501D01*
X193390354Y-121886369D01*
X193476369Y-121800354D01*
X193577501Y-121732780D01*
X193577504Y-121732778D01*
X193654843Y-121700744D01*
X193689886Y-121686228D01*
X193809179Y-121662500D01*
X193930821Y-121662500D01*
X194050114Y-121686228D01*
X194050114Y-121686228D01*
G37*
G36*
X191510114Y-121686228D02*
G01*
X191545157Y-121700744D01*
X191622496Y-121732778D01*
X191622499Y-121732780D01*
X191723631Y-121800354D01*
X191809646Y-121886369D01*
X191877220Y-121987501D01*
X191877222Y-121987504D01*
X191909256Y-122064843D01*
X191923772Y-122099886D01*
X191947500Y-122219179D01*
X191947500Y-122340821D01*
X191923772Y-122460114D01*
X191923770Y-122460118D01*
X191877222Y-122572496D01*
X191877220Y-122572499D01*
X191809646Y-122673631D01*
X191723631Y-122759646D01*
X191622499Y-122827220D01*
X191622496Y-122827222D01*
X191545157Y-122859256D01*
X191510114Y-122873772D01*
X191390821Y-122897500D01*
X191269179Y-122897500D01*
X191149886Y-122873772D01*
X191114843Y-122859256D01*
X191037504Y-122827222D01*
X191037501Y-122827220D01*
X190936369Y-122759646D01*
X190850354Y-122673631D01*
X190782780Y-122572499D01*
X190782778Y-122572496D01*
X190736230Y-122460118D01*
X190736228Y-122460114D01*
X190712500Y-122340821D01*
X190712500Y-122219179D01*
X190736228Y-122099886D01*
X190750744Y-122064843D01*
X190782778Y-121987504D01*
X190782780Y-121987501D01*
X190850354Y-121886369D01*
X190936369Y-121800354D01*
X191037501Y-121732780D01*
X191037504Y-121732778D01*
X191114843Y-121700744D01*
X191149886Y-121686228D01*
X191269179Y-121662500D01*
X191390821Y-121662500D01*
X191510114Y-121686228D01*
X191510114Y-121686228D01*
G37*
G36*
X188970114Y-121686228D02*
G01*
X189005157Y-121700744D01*
X189082496Y-121732778D01*
X189082499Y-121732780D01*
X189183631Y-121800354D01*
X189269646Y-121886369D01*
X189337220Y-121987501D01*
X189337222Y-121987504D01*
X189369256Y-122064843D01*
X189383772Y-122099886D01*
X189407500Y-122219179D01*
X189407500Y-122340821D01*
X189383772Y-122460114D01*
X189383770Y-122460118D01*
X189337222Y-122572496D01*
X189337220Y-122572499D01*
X189269646Y-122673631D01*
X189183631Y-122759646D01*
X189082499Y-122827220D01*
X189082496Y-122827222D01*
X189005157Y-122859256D01*
X188970114Y-122873772D01*
X188850821Y-122897500D01*
X188729179Y-122897500D01*
X188609886Y-122873772D01*
X188574843Y-122859256D01*
X188497504Y-122827222D01*
X188497501Y-122827220D01*
X188396369Y-122759646D01*
X188310354Y-122673631D01*
X188242780Y-122572499D01*
X188242778Y-122572496D01*
X188196230Y-122460118D01*
X188196228Y-122460114D01*
X188172500Y-122340821D01*
X188172500Y-122219179D01*
X188196228Y-122099886D01*
X188210744Y-122064843D01*
X188242778Y-121987504D01*
X188242780Y-121987501D01*
X188310354Y-121886369D01*
X188396369Y-121800354D01*
X188497501Y-121732780D01*
X188497504Y-121732778D01*
X188574843Y-121700744D01*
X188609886Y-121686228D01*
X188729179Y-121662500D01*
X188850821Y-121662500D01*
X188970114Y-121686228D01*
X188970114Y-121686228D01*
G37*
G36*
X186430114Y-121686228D02*
G01*
X186465157Y-121700744D01*
X186542496Y-121732778D01*
X186542499Y-121732780D01*
X186643631Y-121800354D01*
X186729646Y-121886369D01*
X186797220Y-121987501D01*
X186797222Y-121987504D01*
X186829256Y-122064843D01*
X186843772Y-122099886D01*
X186867500Y-122219179D01*
X186867500Y-122340821D01*
X186843772Y-122460114D01*
X186843770Y-122460118D01*
X186797222Y-122572496D01*
X186797220Y-122572499D01*
X186729646Y-122673631D01*
X186643631Y-122759646D01*
X186542499Y-122827220D01*
X186542496Y-122827222D01*
X186465157Y-122859256D01*
X186430114Y-122873772D01*
X186310821Y-122897500D01*
X186189179Y-122897500D01*
X186069886Y-122873772D01*
X186034843Y-122859256D01*
X185957504Y-122827222D01*
X185957501Y-122827220D01*
X185856369Y-122759646D01*
X185770354Y-122673631D01*
X185702780Y-122572499D01*
X185702778Y-122572496D01*
X185656230Y-122460118D01*
X185656228Y-122460114D01*
X185632500Y-122340821D01*
X185632500Y-122219179D01*
X185656228Y-122099886D01*
X185670744Y-122064843D01*
X185702778Y-121987504D01*
X185702780Y-121987501D01*
X185770354Y-121886369D01*
X185856369Y-121800354D01*
X185957501Y-121732780D01*
X185957504Y-121732778D01*
X186034843Y-121700744D01*
X186069886Y-121686228D01*
X186189179Y-121662500D01*
X186310821Y-121662500D01*
X186430114Y-121686228D01*
X186430114Y-121686228D01*
G37*
G36*
X181350114Y-121686228D02*
G01*
X181385157Y-121700744D01*
X181462496Y-121732778D01*
X181462499Y-121732780D01*
X181563631Y-121800354D01*
X181649646Y-121886369D01*
X181717220Y-121987501D01*
X181717222Y-121987504D01*
X181749256Y-122064843D01*
X181763772Y-122099886D01*
X181787500Y-122219179D01*
X181787500Y-122340821D01*
X181763772Y-122460114D01*
X181763770Y-122460118D01*
X181717222Y-122572496D01*
X181717220Y-122572499D01*
X181649646Y-122673631D01*
X181563631Y-122759646D01*
X181462499Y-122827220D01*
X181462496Y-122827222D01*
X181385157Y-122859256D01*
X181350114Y-122873772D01*
X181230821Y-122897500D01*
X181109179Y-122897500D01*
X180989886Y-122873772D01*
X180954843Y-122859256D01*
X180877504Y-122827222D01*
X180877501Y-122827220D01*
X180776369Y-122759646D01*
X180690354Y-122673631D01*
X180622780Y-122572499D01*
X180622778Y-122572496D01*
X180576230Y-122460118D01*
X180576228Y-122460114D01*
X180552500Y-122340821D01*
X180552500Y-122219179D01*
X180576228Y-122099886D01*
X180590744Y-122064843D01*
X180622778Y-121987504D01*
X180622780Y-121987501D01*
X180690354Y-121886369D01*
X180776369Y-121800354D01*
X180877501Y-121732780D01*
X180877504Y-121732778D01*
X180954843Y-121700744D01*
X180989886Y-121686228D01*
X181109179Y-121662500D01*
X181230821Y-121662500D01*
X181350114Y-121686228D01*
X181350114Y-121686228D01*
G37*
G36*
X178810114Y-121686228D02*
G01*
X178845157Y-121700744D01*
X178922496Y-121732778D01*
X178922499Y-121732780D01*
X179023631Y-121800354D01*
X179109646Y-121886369D01*
X179177220Y-121987501D01*
X179177222Y-121987504D01*
X179209256Y-122064843D01*
X179223772Y-122099886D01*
X179247500Y-122219179D01*
X179247500Y-122340821D01*
X179223772Y-122460114D01*
X179223770Y-122460118D01*
X179177222Y-122572496D01*
X179177220Y-122572499D01*
X179109646Y-122673631D01*
X179023631Y-122759646D01*
X178922499Y-122827220D01*
X178922496Y-122827222D01*
X178845157Y-122859256D01*
X178810114Y-122873772D01*
X178690821Y-122897500D01*
X178569179Y-122897500D01*
X178449886Y-122873772D01*
X178414843Y-122859256D01*
X178337504Y-122827222D01*
X178337501Y-122827220D01*
X178236369Y-122759646D01*
X178150354Y-122673631D01*
X178082780Y-122572499D01*
X178082778Y-122572496D01*
X178036230Y-122460118D01*
X178036228Y-122460114D01*
X178012500Y-122340821D01*
X178012500Y-122219179D01*
X178036228Y-122099886D01*
X178050744Y-122064843D01*
X178082778Y-121987504D01*
X178082780Y-121987501D01*
X178150354Y-121886369D01*
X178236369Y-121800354D01*
X178337501Y-121732780D01*
X178337504Y-121732778D01*
X178414843Y-121700744D01*
X178449886Y-121686228D01*
X178569179Y-121662500D01*
X178690821Y-121662500D01*
X178810114Y-121686228D01*
X178810114Y-121686228D01*
G37*
G36*
X173730114Y-121686228D02*
G01*
X173765157Y-121700744D01*
X173842496Y-121732778D01*
X173842499Y-121732780D01*
X173943631Y-121800354D01*
X174029646Y-121886369D01*
X174097220Y-121987501D01*
X174097222Y-121987504D01*
X174129256Y-122064843D01*
X174143772Y-122099886D01*
X174167500Y-122219179D01*
X174167500Y-122340821D01*
X174143772Y-122460114D01*
X174143770Y-122460118D01*
X174097222Y-122572496D01*
X174097220Y-122572499D01*
X174029646Y-122673631D01*
X173943631Y-122759646D01*
X173842499Y-122827220D01*
X173842496Y-122827222D01*
X173765157Y-122859256D01*
X173730114Y-122873772D01*
X173610821Y-122897500D01*
X173489179Y-122897500D01*
X173369886Y-122873772D01*
X173334843Y-122859256D01*
X173257504Y-122827222D01*
X173257501Y-122827220D01*
X173156369Y-122759646D01*
X173070354Y-122673631D01*
X173002780Y-122572499D01*
X173002778Y-122572496D01*
X172956230Y-122460118D01*
X172956228Y-122460114D01*
X172932500Y-122340821D01*
X172932500Y-122219179D01*
X172956228Y-122099886D01*
X172970744Y-122064843D01*
X173002778Y-121987504D01*
X173002780Y-121987501D01*
X173070354Y-121886369D01*
X173156369Y-121800354D01*
X173257501Y-121732780D01*
X173257504Y-121732778D01*
X173334843Y-121700744D01*
X173369886Y-121686228D01*
X173489179Y-121662500D01*
X173610821Y-121662500D01*
X173730114Y-121686228D01*
X173730114Y-121686228D01*
G37*
G36*
X171190114Y-121686228D02*
G01*
X171225157Y-121700744D01*
X171302496Y-121732778D01*
X171302499Y-121732780D01*
X171403631Y-121800354D01*
X171489646Y-121886369D01*
X171557220Y-121987501D01*
X171557222Y-121987504D01*
X171589256Y-122064843D01*
X171603772Y-122099886D01*
X171627500Y-122219179D01*
X171627500Y-122340821D01*
X171603772Y-122460114D01*
X171603770Y-122460118D01*
X171557222Y-122572496D01*
X171557220Y-122572499D01*
X171489646Y-122673631D01*
X171403631Y-122759646D01*
X171302499Y-122827220D01*
X171302496Y-122827222D01*
X171225157Y-122859256D01*
X171190114Y-122873772D01*
X171070821Y-122897500D01*
X170949179Y-122897500D01*
X170829886Y-122873772D01*
X170794843Y-122859256D01*
X170717504Y-122827222D01*
X170717501Y-122827220D01*
X170616369Y-122759646D01*
X170530354Y-122673631D01*
X170462780Y-122572499D01*
X170462778Y-122572496D01*
X170416230Y-122460118D01*
X170416228Y-122460114D01*
X170392500Y-122340821D01*
X170392500Y-122219179D01*
X170416228Y-122099886D01*
X170430744Y-122064843D01*
X170462778Y-121987504D01*
X170462780Y-121987501D01*
X170530354Y-121886369D01*
X170616369Y-121800354D01*
X170717501Y-121732780D01*
X170717504Y-121732778D01*
X170794843Y-121700744D01*
X170829886Y-121686228D01*
X170949179Y-121662500D01*
X171070821Y-121662500D01*
X171190114Y-121686228D01*
X171190114Y-121686228D01*
G37*
G36*
X168650114Y-121686228D02*
G01*
X168685157Y-121700744D01*
X168762496Y-121732778D01*
X168762499Y-121732780D01*
X168863631Y-121800354D01*
X168949646Y-121886369D01*
X169017220Y-121987501D01*
X169017222Y-121987504D01*
X169049256Y-122064843D01*
X169063772Y-122099886D01*
X169087500Y-122219179D01*
X169087500Y-122340821D01*
X169063772Y-122460114D01*
X169063770Y-122460118D01*
X169017222Y-122572496D01*
X169017220Y-122572499D01*
X168949646Y-122673631D01*
X168863631Y-122759646D01*
X168762499Y-122827220D01*
X168762496Y-122827222D01*
X168685157Y-122859256D01*
X168650114Y-122873772D01*
X168530821Y-122897500D01*
X168409179Y-122897500D01*
X168289886Y-122873772D01*
X168254843Y-122859256D01*
X168177504Y-122827222D01*
X168177501Y-122827220D01*
X168076369Y-122759646D01*
X167990354Y-122673631D01*
X167922780Y-122572499D01*
X167922778Y-122572496D01*
X167876230Y-122460118D01*
X167876228Y-122460114D01*
X167852500Y-122340821D01*
X167852500Y-122219179D01*
X167876228Y-122099886D01*
X167890744Y-122064843D01*
X167922778Y-121987504D01*
X167922780Y-121987501D01*
X167990354Y-121886369D01*
X168076369Y-121800354D01*
X168177501Y-121732780D01*
X168177504Y-121732778D01*
X168254843Y-121700744D01*
X168289886Y-121686228D01*
X168409179Y-121662500D01*
X168530821Y-121662500D01*
X168650114Y-121686228D01*
X168650114Y-121686228D01*
G37*
G36*
X166110114Y-121686228D02*
G01*
X166145157Y-121700744D01*
X166222496Y-121732778D01*
X166222499Y-121732780D01*
X166323631Y-121800354D01*
X166409646Y-121886369D01*
X166477220Y-121987501D01*
X166477222Y-121987504D01*
X166509256Y-122064843D01*
X166523772Y-122099886D01*
X166547500Y-122219179D01*
X166547500Y-122340821D01*
X166523772Y-122460114D01*
X166523770Y-122460118D01*
X166477222Y-122572496D01*
X166477220Y-122572499D01*
X166409646Y-122673631D01*
X166323631Y-122759646D01*
X166222499Y-122827220D01*
X166222496Y-122827222D01*
X166145157Y-122859256D01*
X166110114Y-122873772D01*
X165990821Y-122897500D01*
X165869179Y-122897500D01*
X165749886Y-122873772D01*
X165714843Y-122859256D01*
X165637504Y-122827222D01*
X165637501Y-122827220D01*
X165536369Y-122759646D01*
X165450354Y-122673631D01*
X165382780Y-122572499D01*
X165382778Y-122572496D01*
X165336230Y-122460118D01*
X165336228Y-122460114D01*
X165312500Y-122340821D01*
X165312500Y-122219179D01*
X165336228Y-122099886D01*
X165350744Y-122064843D01*
X165382778Y-121987504D01*
X165382780Y-121987501D01*
X165450354Y-121886369D01*
X165536369Y-121800354D01*
X165637501Y-121732780D01*
X165637504Y-121732778D01*
X165714843Y-121700744D01*
X165749886Y-121686228D01*
X165869179Y-121662500D01*
X165990821Y-121662500D01*
X166110114Y-121686228D01*
X166110114Y-121686228D01*
G37*
G36*
X163570114Y-121686228D02*
G01*
X163605157Y-121700744D01*
X163682496Y-121732778D01*
X163682499Y-121732780D01*
X163783631Y-121800354D01*
X163869646Y-121886369D01*
X163937220Y-121987501D01*
X163937222Y-121987504D01*
X163969256Y-122064843D01*
X163983772Y-122099886D01*
X164007500Y-122219179D01*
X164007500Y-122340821D01*
X163983772Y-122460114D01*
X163983770Y-122460118D01*
X163937222Y-122572496D01*
X163937220Y-122572499D01*
X163869646Y-122673631D01*
X163783631Y-122759646D01*
X163682499Y-122827220D01*
X163682496Y-122827222D01*
X163605157Y-122859256D01*
X163570114Y-122873772D01*
X163450821Y-122897500D01*
X163329179Y-122897500D01*
X163209886Y-122873772D01*
X163174843Y-122859256D01*
X163097504Y-122827222D01*
X163097501Y-122827220D01*
X162996369Y-122759646D01*
X162910354Y-122673631D01*
X162842780Y-122572499D01*
X162842778Y-122572496D01*
X162796230Y-122460118D01*
X162796228Y-122460114D01*
X162772500Y-122340821D01*
X162772500Y-122219179D01*
X162796228Y-122099886D01*
X162810744Y-122064843D01*
X162842778Y-121987504D01*
X162842780Y-121987501D01*
X162910354Y-121886369D01*
X162996369Y-121800354D01*
X163097501Y-121732780D01*
X163097504Y-121732778D01*
X163174843Y-121700744D01*
X163209886Y-121686228D01*
X163329179Y-121662500D01*
X163450821Y-121662500D01*
X163570114Y-121686228D01*
X163570114Y-121686228D01*
G37*
G36*
X176270114Y-121686228D02*
G01*
X176305157Y-121700744D01*
X176382496Y-121732778D01*
X176382499Y-121732780D01*
X176483631Y-121800354D01*
X176569646Y-121886369D01*
X176637220Y-121987501D01*
X176637222Y-121987504D01*
X176669256Y-122064843D01*
X176683772Y-122099886D01*
X176707500Y-122219179D01*
X176707500Y-122340821D01*
X176683772Y-122460114D01*
X176683770Y-122460118D01*
X176637222Y-122572496D01*
X176637220Y-122572499D01*
X176569646Y-122673631D01*
X176483631Y-122759646D01*
X176382499Y-122827220D01*
X176382496Y-122827222D01*
X176305157Y-122859256D01*
X176270114Y-122873772D01*
X176150821Y-122897500D01*
X176029179Y-122897500D01*
X175909886Y-122873772D01*
X175874843Y-122859256D01*
X175797504Y-122827222D01*
X175797501Y-122827220D01*
X175696369Y-122759646D01*
X175610354Y-122673631D01*
X175542780Y-122572499D01*
X175542778Y-122572496D01*
X175496230Y-122460118D01*
X175496228Y-122460114D01*
X175472500Y-122340821D01*
X175472500Y-122219179D01*
X175496228Y-122099886D01*
X175510744Y-122064843D01*
X175542778Y-121987504D01*
X175542780Y-121987501D01*
X175610354Y-121886369D01*
X175696369Y-121800354D01*
X175797501Y-121732780D01*
X175797504Y-121732778D01*
X175874843Y-121700744D01*
X175909886Y-121686228D01*
X176029179Y-121662500D01*
X176150821Y-121662500D01*
X176270114Y-121686228D01*
X176270114Y-121686228D01*
G37*
G36*
X152540935Y-118805742D02*
G01*
X152691258Y-118868008D01*
X152826545Y-118958404D01*
X152941596Y-119073455D01*
X153031992Y-119208742D01*
X153094258Y-119359065D01*
X153126000Y-119518646D01*
X153126000Y-119681354D01*
X153094258Y-119840935D01*
X153031992Y-119991258D01*
X152941596Y-120126545D01*
X152826545Y-120241596D01*
X152691258Y-120331992D01*
X152540935Y-120394258D01*
X152381354Y-120426000D01*
X152218646Y-120426000D01*
X152059065Y-120394258D01*
X151908742Y-120331992D01*
X151773455Y-120241596D01*
X151658404Y-120126545D01*
X151568008Y-119991258D01*
X151505742Y-119840935D01*
X151474000Y-119681354D01*
X151474000Y-119518646D01*
X151505742Y-119359065D01*
X151568008Y-119208742D01*
X151658404Y-119073455D01*
X151773455Y-118958404D01*
X151908742Y-118868008D01*
X152059065Y-118805742D01*
X152218646Y-118774000D01*
X152381354Y-118774000D01*
X152540935Y-118805742D01*
X152540935Y-118805742D01*
G37*
G36*
X152540935Y-113805742D02*
G01*
X152691258Y-113868008D01*
X152826545Y-113958404D01*
X152941596Y-114073455D01*
X153031992Y-114208742D01*
X153094258Y-114359065D01*
X153126000Y-114518646D01*
X153126000Y-114681354D01*
X153094258Y-114840935D01*
X153031992Y-114991258D01*
X152941596Y-115126545D01*
X152826545Y-115241596D01*
X152691258Y-115331992D01*
X152540935Y-115394258D01*
X152381354Y-115426000D01*
X152218646Y-115426000D01*
X152059065Y-115394258D01*
X151908742Y-115331992D01*
X151773455Y-115241596D01*
X151658404Y-115126545D01*
X151568008Y-114991258D01*
X151505742Y-114840935D01*
X151474000Y-114681354D01*
X151474000Y-114518646D01*
X151505742Y-114359065D01*
X151568008Y-114208742D01*
X151658404Y-114073455D01*
X151773455Y-113958404D01*
X151908742Y-113868008D01*
X152059065Y-113805742D01*
X152218646Y-113774000D01*
X152381354Y-113774000D01*
X152540935Y-113805742D01*
X152540935Y-113805742D01*
G37*
G36*
X173730114Y-111526228D02*
G01*
X173765157Y-111540744D01*
X173842496Y-111572778D01*
X173842499Y-111572780D01*
X173943631Y-111640354D01*
X174029646Y-111726369D01*
X174097220Y-111827501D01*
X174097222Y-111827504D01*
X174129256Y-111904843D01*
X174143772Y-111939886D01*
X174167500Y-112059179D01*
X174167500Y-112180821D01*
X174143772Y-112300114D01*
X174143770Y-112300118D01*
X174097222Y-112412496D01*
X174097220Y-112412499D01*
X174029646Y-112513631D01*
X173943631Y-112599646D01*
X173842499Y-112667220D01*
X173842496Y-112667222D01*
X173765157Y-112699256D01*
X173730114Y-112713772D01*
X173610821Y-112737500D01*
X173489179Y-112737500D01*
X173369886Y-112713772D01*
X173334843Y-112699256D01*
X173257504Y-112667222D01*
X173257501Y-112667220D01*
X173156369Y-112599646D01*
X173070354Y-112513631D01*
X173002780Y-112412499D01*
X173002778Y-112412496D01*
X172956230Y-112300118D01*
X172956228Y-112300114D01*
X172932500Y-112180821D01*
X172932500Y-112059179D01*
X172956228Y-111939886D01*
X172970744Y-111904843D01*
X173002778Y-111827504D01*
X173002780Y-111827501D01*
X173070354Y-111726369D01*
X173156369Y-111640354D01*
X173257501Y-111572780D01*
X173257504Y-111572778D01*
X173334843Y-111540744D01*
X173369886Y-111526228D01*
X173489179Y-111502500D01*
X173610821Y-111502500D01*
X173730114Y-111526228D01*
X173730114Y-111526228D01*
G37*
G36*
X196590114Y-111526228D02*
G01*
X196625157Y-111540744D01*
X196702496Y-111572778D01*
X196702499Y-111572780D01*
X196803631Y-111640354D01*
X196889646Y-111726369D01*
X196957220Y-111827501D01*
X196957222Y-111827504D01*
X196989256Y-111904843D01*
X197003772Y-111939886D01*
X197027500Y-112059179D01*
X197027500Y-112180821D01*
X197003772Y-112300114D01*
X197003770Y-112300118D01*
X196957222Y-112412496D01*
X196957220Y-112412499D01*
X196889646Y-112513631D01*
X196803631Y-112599646D01*
X196702499Y-112667220D01*
X196702496Y-112667222D01*
X196625157Y-112699256D01*
X196590114Y-112713772D01*
X196470821Y-112737500D01*
X196349179Y-112737500D01*
X196229886Y-112713772D01*
X196194843Y-112699256D01*
X196117504Y-112667222D01*
X196117501Y-112667220D01*
X196016369Y-112599646D01*
X195930354Y-112513631D01*
X195862780Y-112412499D01*
X195862778Y-112412496D01*
X195816230Y-112300118D01*
X195816228Y-112300114D01*
X195792500Y-112180821D01*
X195792500Y-112059179D01*
X195816228Y-111939886D01*
X195830744Y-111904843D01*
X195862778Y-111827504D01*
X195862780Y-111827501D01*
X195930354Y-111726369D01*
X196016369Y-111640354D01*
X196117501Y-111572780D01*
X196117504Y-111572778D01*
X196194843Y-111540744D01*
X196229886Y-111526228D01*
X196349179Y-111502500D01*
X196470821Y-111502500D01*
X196590114Y-111526228D01*
X196590114Y-111526228D01*
G37*
G36*
X194050114Y-111526228D02*
G01*
X194085157Y-111540744D01*
X194162496Y-111572778D01*
X194162499Y-111572780D01*
X194263631Y-111640354D01*
X194349646Y-111726369D01*
X194417220Y-111827501D01*
X194417222Y-111827504D01*
X194449256Y-111904843D01*
X194463772Y-111939886D01*
X194487500Y-112059179D01*
X194487500Y-112180821D01*
X194463772Y-112300114D01*
X194463770Y-112300118D01*
X194417222Y-112412496D01*
X194417220Y-112412499D01*
X194349646Y-112513631D01*
X194263631Y-112599646D01*
X194162499Y-112667220D01*
X194162496Y-112667222D01*
X194085157Y-112699256D01*
X194050114Y-112713772D01*
X193930821Y-112737500D01*
X193809179Y-112737500D01*
X193689886Y-112713772D01*
X193654843Y-112699256D01*
X193577504Y-112667222D01*
X193577501Y-112667220D01*
X193476369Y-112599646D01*
X193390354Y-112513631D01*
X193322780Y-112412499D01*
X193322778Y-112412496D01*
X193276230Y-112300118D01*
X193276228Y-112300114D01*
X193252500Y-112180821D01*
X193252500Y-112059179D01*
X193276228Y-111939886D01*
X193290744Y-111904843D01*
X193322778Y-111827504D01*
X193322780Y-111827501D01*
X193390354Y-111726369D01*
X193476369Y-111640354D01*
X193577501Y-111572780D01*
X193577504Y-111572778D01*
X193654843Y-111540744D01*
X193689886Y-111526228D01*
X193809179Y-111502500D01*
X193930821Y-111502500D01*
X194050114Y-111526228D01*
X194050114Y-111526228D01*
G37*
G36*
X191510114Y-111526228D02*
G01*
X191545157Y-111540744D01*
X191622496Y-111572778D01*
X191622499Y-111572780D01*
X191723631Y-111640354D01*
X191809646Y-111726369D01*
X191877220Y-111827501D01*
X191877222Y-111827504D01*
X191909256Y-111904843D01*
X191923772Y-111939886D01*
X191947500Y-112059179D01*
X191947500Y-112180821D01*
X191923772Y-112300114D01*
X191923770Y-112300118D01*
X191877222Y-112412496D01*
X191877220Y-112412499D01*
X191809646Y-112513631D01*
X191723631Y-112599646D01*
X191622499Y-112667220D01*
X191622496Y-112667222D01*
X191545157Y-112699256D01*
X191510114Y-112713772D01*
X191390821Y-112737500D01*
X191269179Y-112737500D01*
X191149886Y-112713772D01*
X191114843Y-112699256D01*
X191037504Y-112667222D01*
X191037501Y-112667220D01*
X190936369Y-112599646D01*
X190850354Y-112513631D01*
X190782780Y-112412499D01*
X190782778Y-112412496D01*
X190736230Y-112300118D01*
X190736228Y-112300114D01*
X190712500Y-112180821D01*
X190712500Y-112059179D01*
X190736228Y-111939886D01*
X190750744Y-111904843D01*
X190782778Y-111827504D01*
X190782780Y-111827501D01*
X190850354Y-111726369D01*
X190936369Y-111640354D01*
X191037501Y-111572780D01*
X191037504Y-111572778D01*
X191114843Y-111540744D01*
X191149886Y-111526228D01*
X191269179Y-111502500D01*
X191390821Y-111502500D01*
X191510114Y-111526228D01*
X191510114Y-111526228D01*
G37*
G36*
X188970114Y-111526228D02*
G01*
X189005157Y-111540744D01*
X189082496Y-111572778D01*
X189082499Y-111572780D01*
X189183631Y-111640354D01*
X189269646Y-111726369D01*
X189337220Y-111827501D01*
X189337222Y-111827504D01*
X189369256Y-111904843D01*
X189383772Y-111939886D01*
X189407500Y-112059179D01*
X189407500Y-112180821D01*
X189383772Y-112300114D01*
X189383770Y-112300118D01*
X189337222Y-112412496D01*
X189337220Y-112412499D01*
X189269646Y-112513631D01*
X189183631Y-112599646D01*
X189082499Y-112667220D01*
X189082496Y-112667222D01*
X189005157Y-112699256D01*
X188970114Y-112713772D01*
X188850821Y-112737500D01*
X188729179Y-112737500D01*
X188609886Y-112713772D01*
X188574843Y-112699256D01*
X188497504Y-112667222D01*
X188497501Y-112667220D01*
X188396369Y-112599646D01*
X188310354Y-112513631D01*
X188242780Y-112412499D01*
X188242778Y-112412496D01*
X188196230Y-112300118D01*
X188196228Y-112300114D01*
X188172500Y-112180821D01*
X188172500Y-112059179D01*
X188196228Y-111939886D01*
X188210744Y-111904843D01*
X188242778Y-111827504D01*
X188242780Y-111827501D01*
X188310354Y-111726369D01*
X188396369Y-111640354D01*
X188497501Y-111572780D01*
X188497504Y-111572778D01*
X188574843Y-111540744D01*
X188609886Y-111526228D01*
X188729179Y-111502500D01*
X188850821Y-111502500D01*
X188970114Y-111526228D01*
X188970114Y-111526228D01*
G37*
G36*
X186430114Y-111526228D02*
G01*
X186465157Y-111540744D01*
X186542496Y-111572778D01*
X186542499Y-111572780D01*
X186643631Y-111640354D01*
X186729646Y-111726369D01*
X186797220Y-111827501D01*
X186797222Y-111827504D01*
X186829256Y-111904843D01*
X186843772Y-111939886D01*
X186867500Y-112059179D01*
X186867500Y-112180821D01*
X186843772Y-112300114D01*
X186843770Y-112300118D01*
X186797222Y-112412496D01*
X186797220Y-112412499D01*
X186729646Y-112513631D01*
X186643631Y-112599646D01*
X186542499Y-112667220D01*
X186542496Y-112667222D01*
X186465157Y-112699256D01*
X186430114Y-112713772D01*
X186310821Y-112737500D01*
X186189179Y-112737500D01*
X186069886Y-112713772D01*
X186034843Y-112699256D01*
X185957504Y-112667222D01*
X185957501Y-112667220D01*
X185856369Y-112599646D01*
X185770354Y-112513631D01*
X185702780Y-112412499D01*
X185702778Y-112412496D01*
X185656230Y-112300118D01*
X185656228Y-112300114D01*
X185632500Y-112180821D01*
X185632500Y-112059179D01*
X185656228Y-111939886D01*
X185670744Y-111904843D01*
X185702778Y-111827504D01*
X185702780Y-111827501D01*
X185770354Y-111726369D01*
X185856369Y-111640354D01*
X185957501Y-111572780D01*
X185957504Y-111572778D01*
X186034843Y-111540744D01*
X186069886Y-111526228D01*
X186189179Y-111502500D01*
X186310821Y-111502500D01*
X186430114Y-111526228D01*
X186430114Y-111526228D01*
G37*
G36*
X183890114Y-111526228D02*
G01*
X183925157Y-111540744D01*
X184002496Y-111572778D01*
X184002499Y-111572780D01*
X184103631Y-111640354D01*
X184189646Y-111726369D01*
X184257220Y-111827501D01*
X184257222Y-111827504D01*
X184289256Y-111904843D01*
X184303772Y-111939886D01*
X184327500Y-112059179D01*
X184327500Y-112180821D01*
X184303772Y-112300114D01*
X184303770Y-112300118D01*
X184257222Y-112412496D01*
X184257220Y-112412499D01*
X184189646Y-112513631D01*
X184103631Y-112599646D01*
X184002499Y-112667220D01*
X184002496Y-112667222D01*
X183925157Y-112699256D01*
X183890114Y-112713772D01*
X183770821Y-112737500D01*
X183649179Y-112737500D01*
X183529886Y-112713772D01*
X183494843Y-112699256D01*
X183417504Y-112667222D01*
X183417501Y-112667220D01*
X183316369Y-112599646D01*
X183230354Y-112513631D01*
X183162780Y-112412499D01*
X183162778Y-112412496D01*
X183116230Y-112300118D01*
X183116228Y-112300114D01*
X183092500Y-112180821D01*
X183092500Y-112059179D01*
X183116228Y-111939886D01*
X183130744Y-111904843D01*
X183162778Y-111827504D01*
X183162780Y-111827501D01*
X183230354Y-111726369D01*
X183316369Y-111640354D01*
X183417501Y-111572780D01*
X183417504Y-111572778D01*
X183494843Y-111540744D01*
X183529886Y-111526228D01*
X183649179Y-111502500D01*
X183770821Y-111502500D01*
X183890114Y-111526228D01*
X183890114Y-111526228D01*
G37*
G36*
X181350114Y-111526228D02*
G01*
X181385157Y-111540744D01*
X181462496Y-111572778D01*
X181462499Y-111572780D01*
X181563631Y-111640354D01*
X181649646Y-111726369D01*
X181717220Y-111827501D01*
X181717222Y-111827504D01*
X181749256Y-111904843D01*
X181763772Y-111939886D01*
X181787500Y-112059179D01*
X181787500Y-112180821D01*
X181763772Y-112300114D01*
X181763770Y-112300118D01*
X181717222Y-112412496D01*
X181717220Y-112412499D01*
X181649646Y-112513631D01*
X181563631Y-112599646D01*
X181462499Y-112667220D01*
X181462496Y-112667222D01*
X181385157Y-112699256D01*
X181350114Y-112713772D01*
X181230821Y-112737500D01*
X181109179Y-112737500D01*
X180989886Y-112713772D01*
X180954843Y-112699256D01*
X180877504Y-112667222D01*
X180877501Y-112667220D01*
X180776369Y-112599646D01*
X180690354Y-112513631D01*
X180622780Y-112412499D01*
X180622778Y-112412496D01*
X180576230Y-112300118D01*
X180576228Y-112300114D01*
X180552500Y-112180821D01*
X180552500Y-112059179D01*
X180576228Y-111939886D01*
X180590744Y-111904843D01*
X180622778Y-111827504D01*
X180622780Y-111827501D01*
X180690354Y-111726369D01*
X180776369Y-111640354D01*
X180877501Y-111572780D01*
X180877504Y-111572778D01*
X180954843Y-111540744D01*
X180989886Y-111526228D01*
X181109179Y-111502500D01*
X181230821Y-111502500D01*
X181350114Y-111526228D01*
X181350114Y-111526228D01*
G37*
G36*
X178810114Y-111526228D02*
G01*
X178845157Y-111540744D01*
X178922496Y-111572778D01*
X178922499Y-111572780D01*
X179023631Y-111640354D01*
X179109646Y-111726369D01*
X179177220Y-111827501D01*
X179177222Y-111827504D01*
X179209256Y-111904843D01*
X179223772Y-111939886D01*
X179247500Y-112059179D01*
X179247500Y-112180821D01*
X179223772Y-112300114D01*
X179223770Y-112300118D01*
X179177222Y-112412496D01*
X179177220Y-112412499D01*
X179109646Y-112513631D01*
X179023631Y-112599646D01*
X178922499Y-112667220D01*
X178922496Y-112667222D01*
X178845157Y-112699256D01*
X178810114Y-112713772D01*
X178690821Y-112737500D01*
X178569179Y-112737500D01*
X178449886Y-112713772D01*
X178414843Y-112699256D01*
X178337504Y-112667222D01*
X178337501Y-112667220D01*
X178236369Y-112599646D01*
X178150354Y-112513631D01*
X178082780Y-112412499D01*
X178082778Y-112412496D01*
X178036230Y-112300118D01*
X178036228Y-112300114D01*
X178012500Y-112180821D01*
X178012500Y-112059179D01*
X178036228Y-111939886D01*
X178050744Y-111904843D01*
X178082778Y-111827504D01*
X178082780Y-111827501D01*
X178150354Y-111726369D01*
X178236369Y-111640354D01*
X178337501Y-111572780D01*
X178337504Y-111572778D01*
X178414843Y-111540744D01*
X178449886Y-111526228D01*
X178569179Y-111502500D01*
X178690821Y-111502500D01*
X178810114Y-111526228D01*
X178810114Y-111526228D01*
G37*
G36*
X176270114Y-111526228D02*
G01*
X176305157Y-111540744D01*
X176382496Y-111572778D01*
X176382499Y-111572780D01*
X176483631Y-111640354D01*
X176569646Y-111726369D01*
X176637220Y-111827501D01*
X176637222Y-111827504D01*
X176669256Y-111904843D01*
X176683772Y-111939886D01*
X176707500Y-112059179D01*
X176707500Y-112180821D01*
X176683772Y-112300114D01*
X176683770Y-112300118D01*
X176637222Y-112412496D01*
X176637220Y-112412499D01*
X176569646Y-112513631D01*
X176483631Y-112599646D01*
X176382499Y-112667220D01*
X176382496Y-112667222D01*
X176305157Y-112699256D01*
X176270114Y-112713772D01*
X176150821Y-112737500D01*
X176029179Y-112737500D01*
X175909886Y-112713772D01*
X175874843Y-112699256D01*
X175797504Y-112667222D01*
X175797501Y-112667220D01*
X175696369Y-112599646D01*
X175610354Y-112513631D01*
X175542780Y-112412499D01*
X175542778Y-112412496D01*
X175496230Y-112300118D01*
X175496228Y-112300114D01*
X175472500Y-112180821D01*
X175472500Y-112059179D01*
X175496228Y-111939886D01*
X175510744Y-111904843D01*
X175542778Y-111827504D01*
X175542780Y-111827501D01*
X175610354Y-111726369D01*
X175696369Y-111640354D01*
X175797501Y-111572780D01*
X175797504Y-111572778D01*
X175874843Y-111540744D01*
X175909886Y-111526228D01*
X176029179Y-111502500D01*
X176150821Y-111502500D01*
X176270114Y-111526228D01*
X176270114Y-111526228D01*
G37*
G36*
X171190114Y-111526228D02*
G01*
X171225157Y-111540744D01*
X171302496Y-111572778D01*
X171302499Y-111572780D01*
X171403631Y-111640354D01*
X171489646Y-111726369D01*
X171557220Y-111827501D01*
X171557222Y-111827504D01*
X171589256Y-111904843D01*
X171603772Y-111939886D01*
X171627500Y-112059179D01*
X171627500Y-112180821D01*
X171603772Y-112300114D01*
X171603770Y-112300118D01*
X171557222Y-112412496D01*
X171557220Y-112412499D01*
X171489646Y-112513631D01*
X171403631Y-112599646D01*
X171302499Y-112667220D01*
X171302496Y-112667222D01*
X171225157Y-112699256D01*
X171190114Y-112713772D01*
X171070821Y-112737500D01*
X170949179Y-112737500D01*
X170829886Y-112713772D01*
X170794843Y-112699256D01*
X170717504Y-112667222D01*
X170717501Y-112667220D01*
X170616369Y-112599646D01*
X170530354Y-112513631D01*
X170462780Y-112412499D01*
X170462778Y-112412496D01*
X170416230Y-112300118D01*
X170416228Y-112300114D01*
X170392500Y-112180821D01*
X170392500Y-112059179D01*
X170416228Y-111939886D01*
X170430744Y-111904843D01*
X170462778Y-111827504D01*
X170462780Y-111827501D01*
X170530354Y-111726369D01*
X170616369Y-111640354D01*
X170717501Y-111572780D01*
X170717504Y-111572778D01*
X170794843Y-111540744D01*
X170829886Y-111526228D01*
X170949179Y-111502500D01*
X171070821Y-111502500D01*
X171190114Y-111526228D01*
X171190114Y-111526228D01*
G37*
G36*
X168650114Y-111526228D02*
G01*
X168685157Y-111540744D01*
X168762496Y-111572778D01*
X168762499Y-111572780D01*
X168863631Y-111640354D01*
X168949646Y-111726369D01*
X169017220Y-111827501D01*
X169017222Y-111827504D01*
X169049256Y-111904843D01*
X169063772Y-111939886D01*
X169087500Y-112059179D01*
X169087500Y-112180821D01*
X169063772Y-112300114D01*
X169063770Y-112300118D01*
X169017222Y-112412496D01*
X169017220Y-112412499D01*
X168949646Y-112513631D01*
X168863631Y-112599646D01*
X168762499Y-112667220D01*
X168762496Y-112667222D01*
X168685157Y-112699256D01*
X168650114Y-112713772D01*
X168530821Y-112737500D01*
X168409179Y-112737500D01*
X168289886Y-112713772D01*
X168254843Y-112699256D01*
X168177504Y-112667222D01*
X168177501Y-112667220D01*
X168076369Y-112599646D01*
X167990354Y-112513631D01*
X167922780Y-112412499D01*
X167922778Y-112412496D01*
X167876230Y-112300118D01*
X167876228Y-112300114D01*
X167852500Y-112180821D01*
X167852500Y-112059179D01*
X167876228Y-111939886D01*
X167890744Y-111904843D01*
X167922778Y-111827504D01*
X167922780Y-111827501D01*
X167990354Y-111726369D01*
X168076369Y-111640354D01*
X168177501Y-111572780D01*
X168177504Y-111572778D01*
X168254843Y-111540744D01*
X168289886Y-111526228D01*
X168409179Y-111502500D01*
X168530821Y-111502500D01*
X168650114Y-111526228D01*
X168650114Y-111526228D01*
G37*
G36*
X166110114Y-111526228D02*
G01*
X166145157Y-111540744D01*
X166222496Y-111572778D01*
X166222499Y-111572780D01*
X166323631Y-111640354D01*
X166409646Y-111726369D01*
X166477220Y-111827501D01*
X166477222Y-111827504D01*
X166509256Y-111904843D01*
X166523772Y-111939886D01*
X166547500Y-112059179D01*
X166547500Y-112180821D01*
X166523772Y-112300114D01*
X166523770Y-112300118D01*
X166477222Y-112412496D01*
X166477220Y-112412499D01*
X166409646Y-112513631D01*
X166323631Y-112599646D01*
X166222499Y-112667220D01*
X166222496Y-112667222D01*
X166145157Y-112699256D01*
X166110114Y-112713772D01*
X165990821Y-112737500D01*
X165869179Y-112737500D01*
X165749886Y-112713772D01*
X165714843Y-112699256D01*
X165637504Y-112667222D01*
X165637501Y-112667220D01*
X165536369Y-112599646D01*
X165450354Y-112513631D01*
X165382780Y-112412499D01*
X165382778Y-112412496D01*
X165336230Y-112300118D01*
X165336228Y-112300114D01*
X165312500Y-112180821D01*
X165312500Y-112059179D01*
X165336228Y-111939886D01*
X165350744Y-111904843D01*
X165382778Y-111827504D01*
X165382780Y-111827501D01*
X165450354Y-111726369D01*
X165536369Y-111640354D01*
X165637501Y-111572780D01*
X165637504Y-111572778D01*
X165714843Y-111540744D01*
X165749886Y-111526228D01*
X165869179Y-111502500D01*
X165990821Y-111502500D01*
X166110114Y-111526228D01*
X166110114Y-111526228D01*
G37*
G36*
X163570114Y-111526228D02*
G01*
X163605157Y-111540744D01*
X163682496Y-111572778D01*
X163682499Y-111572780D01*
X163783631Y-111640354D01*
X163869646Y-111726369D01*
X163937220Y-111827501D01*
X163937222Y-111827504D01*
X163969256Y-111904843D01*
X163983772Y-111939886D01*
X164007500Y-112059179D01*
X164007500Y-112180821D01*
X163983772Y-112300114D01*
X163983770Y-112300118D01*
X163937222Y-112412496D01*
X163937220Y-112412499D01*
X163869646Y-112513631D01*
X163783631Y-112599646D01*
X163682499Y-112667220D01*
X163682496Y-112667222D01*
X163605157Y-112699256D01*
X163570114Y-112713772D01*
X163450821Y-112737500D01*
X163329179Y-112737500D01*
X163209886Y-112713772D01*
X163174843Y-112699256D01*
X163097504Y-112667222D01*
X163097501Y-112667220D01*
X162996369Y-112599646D01*
X162910354Y-112513631D01*
X162842780Y-112412499D01*
X162842778Y-112412496D01*
X162796230Y-112300118D01*
X162796228Y-112300114D01*
X162772500Y-112180821D01*
X162772500Y-112059179D01*
X162796228Y-111939886D01*
X162810744Y-111904843D01*
X162842778Y-111827504D01*
X162842780Y-111827501D01*
X162910354Y-111726369D01*
X162996369Y-111640354D01*
X163097501Y-111572780D01*
X163097504Y-111572778D01*
X163174843Y-111540744D01*
X163209886Y-111526228D01*
X163329179Y-111502500D01*
X163450821Y-111502500D01*
X163570114Y-111526228D01*
X163570114Y-111526228D01*
G37*
G36*
X124232018Y-104995359D02*
G01*
X124380522Y-105056871D01*
X124380523Y-105056872D01*
X124514168Y-105146170D01*
X124627832Y-105259834D01*
X124694805Y-105360068D01*
X124717131Y-105393480D01*
X124778643Y-105541984D01*
X124810001Y-105699631D01*
X124810001Y-105860371D01*
X124778643Y-106018018D01*
X124717131Y-106166522D01*
X124717130Y-106166523D01*
X124627832Y-106300168D01*
X124514168Y-106413832D01*
X124413934Y-106480806D01*
X124380522Y-106503131D01*
X124306271Y-106533886D01*
X124232018Y-106564643D01*
X124074371Y-106596001D01*
X123913631Y-106596001D01*
X123755984Y-106564643D01*
X123681731Y-106533886D01*
X123607480Y-106503131D01*
X123574068Y-106480806D01*
X123473834Y-106413832D01*
X123360170Y-106300168D01*
X123270872Y-106166523D01*
X123270871Y-106166522D01*
X123209359Y-106018018D01*
X123178001Y-105860371D01*
X123178001Y-105699631D01*
X123209359Y-105541984D01*
X123270871Y-105393480D01*
X123293196Y-105360068D01*
X123360170Y-105259834D01*
X123473834Y-105146170D01*
X123607479Y-105056872D01*
X123607480Y-105056871D01*
X123681731Y-105026116D01*
X123755984Y-104995359D01*
X123913631Y-104964001D01*
X124074371Y-104964001D01*
X124232018Y-104995359D01*
X124232018Y-104995359D01*
G37*
G36*
X119152018Y-104995359D02*
G01*
X119300522Y-105056871D01*
X119300523Y-105056872D01*
X119434168Y-105146170D01*
X119547832Y-105259834D01*
X119614805Y-105360068D01*
X119637131Y-105393480D01*
X119698643Y-105541984D01*
X119730001Y-105699631D01*
X119730001Y-105860371D01*
X119698643Y-106018018D01*
X119637131Y-106166522D01*
X119637130Y-106166523D01*
X119547832Y-106300168D01*
X119434168Y-106413832D01*
X119333934Y-106480806D01*
X119300522Y-106503131D01*
X119226271Y-106533886D01*
X119152018Y-106564643D01*
X118994371Y-106596001D01*
X118833631Y-106596001D01*
X118675984Y-106564643D01*
X118601731Y-106533886D01*
X118527480Y-106503131D01*
X118494068Y-106480806D01*
X118393834Y-106413832D01*
X118280170Y-106300168D01*
X118190872Y-106166523D01*
X118190871Y-106166522D01*
X118129359Y-106018018D01*
X118098001Y-105860371D01*
X118098001Y-105699631D01*
X118129359Y-105541984D01*
X118190871Y-105393480D01*
X118213196Y-105360068D01*
X118280170Y-105259834D01*
X118393834Y-105146170D01*
X118527479Y-105056872D01*
X118527480Y-105056871D01*
X118601731Y-105026116D01*
X118675984Y-104995359D01*
X118833631Y-104964001D01*
X118994371Y-104964001D01*
X119152018Y-104995359D01*
X119152018Y-104995359D01*
G37*
G36*
X116612018Y-104995359D02*
G01*
X116760522Y-105056871D01*
X116760523Y-105056872D01*
X116894168Y-105146170D01*
X117007832Y-105259834D01*
X117074805Y-105360068D01*
X117097131Y-105393480D01*
X117158643Y-105541984D01*
X117190001Y-105699631D01*
X117190001Y-105860371D01*
X117158643Y-106018018D01*
X117097131Y-106166522D01*
X117097130Y-106166523D01*
X117007832Y-106300168D01*
X116894168Y-106413832D01*
X116793934Y-106480806D01*
X116760522Y-106503131D01*
X116686271Y-106533886D01*
X116612018Y-106564643D01*
X116454371Y-106596001D01*
X116293631Y-106596001D01*
X116135984Y-106564643D01*
X116061731Y-106533886D01*
X115987480Y-106503131D01*
X115954068Y-106480806D01*
X115853834Y-106413832D01*
X115740170Y-106300168D01*
X115650872Y-106166523D01*
X115650871Y-106166522D01*
X115589359Y-106018018D01*
X115558001Y-105860371D01*
X115558001Y-105699631D01*
X115589359Y-105541984D01*
X115650871Y-105393480D01*
X115673196Y-105360068D01*
X115740170Y-105259834D01*
X115853834Y-105146170D01*
X115987479Y-105056872D01*
X115987480Y-105056871D01*
X116061731Y-105026116D01*
X116135984Y-104995359D01*
X116293631Y-104964001D01*
X116454371Y-104964001D01*
X116612018Y-104995359D01*
X116612018Y-104995359D01*
G37*
G36*
X121692018Y-104995359D02*
G01*
X121840522Y-105056871D01*
X121840523Y-105056872D01*
X121974168Y-105146170D01*
X122087832Y-105259834D01*
X122154805Y-105360068D01*
X122177131Y-105393480D01*
X122238643Y-105541984D01*
X122270001Y-105699631D01*
X122270001Y-105860371D01*
X122238643Y-106018018D01*
X122177131Y-106166522D01*
X122177130Y-106166523D01*
X122087832Y-106300168D01*
X121974168Y-106413832D01*
X121873934Y-106480806D01*
X121840522Y-106503131D01*
X121766271Y-106533886D01*
X121692018Y-106564643D01*
X121534371Y-106596001D01*
X121373631Y-106596001D01*
X121215984Y-106564643D01*
X121141731Y-106533886D01*
X121067480Y-106503131D01*
X121034068Y-106480806D01*
X120933834Y-106413832D01*
X120820170Y-106300168D01*
X120730872Y-106166523D01*
X120730871Y-106166522D01*
X120669359Y-106018018D01*
X120638001Y-105860371D01*
X120638001Y-105699631D01*
X120669359Y-105541984D01*
X120730871Y-105393480D01*
X120753196Y-105360068D01*
X120820170Y-105259834D01*
X120933834Y-105146170D01*
X121067479Y-105056872D01*
X121067480Y-105056871D01*
X121141731Y-105026116D01*
X121215984Y-104995359D01*
X121373631Y-104964001D01*
X121534371Y-104964001D01*
X121692018Y-104995359D01*
X121692018Y-104995359D01*
G37*
G36*
X96403485Y-98059502D02*
G01*
X96553310Y-98089304D01*
X96835574Y-98206221D01*
X97089605Y-98375959D01*
X97305641Y-98591995D01*
X97475379Y-98846026D01*
X97592296Y-99128290D01*
X97651900Y-99427940D01*
X97651900Y-99733460D01*
X97592296Y-100033110D01*
X97475379Y-100315374D01*
X97305641Y-100569405D01*
X97089605Y-100785441D01*
X96835574Y-100955179D01*
X96553310Y-101072096D01*
X96403485Y-101101898D01*
X96253661Y-101131700D01*
X95948139Y-101131700D01*
X95798315Y-101101898D01*
X95648490Y-101072096D01*
X95366226Y-100955179D01*
X95112195Y-100785441D01*
X94896159Y-100569405D01*
X94726421Y-100315374D01*
X94609504Y-100033110D01*
X94549900Y-99733460D01*
X94549900Y-99427940D01*
X94609504Y-99128290D01*
X94726421Y-98846026D01*
X94896159Y-98591995D01*
X95112195Y-98375959D01*
X95366226Y-98206221D01*
X95648490Y-98089304D01*
X95798315Y-98059502D01*
X95948139Y-98029700D01*
X96253661Y-98029700D01*
X96403485Y-98059502D01*
X96403485Y-98059502D01*
G37*
G36*
X171402065Y-98059502D02*
G01*
X171551890Y-98089304D01*
X171834154Y-98206221D01*
X172088185Y-98375959D01*
X172304221Y-98591995D01*
X172473959Y-98846026D01*
X172590876Y-99128290D01*
X172650480Y-99427940D01*
X172650480Y-99733460D01*
X172590876Y-100033110D01*
X172473959Y-100315374D01*
X172304221Y-100569405D01*
X172088185Y-100785441D01*
X171834154Y-100955179D01*
X171551890Y-101072096D01*
X171402065Y-101101898D01*
X171252241Y-101131700D01*
X170946719Y-101131700D01*
X170796895Y-101101898D01*
X170647070Y-101072096D01*
X170364806Y-100955179D01*
X170110775Y-100785441D01*
X169894739Y-100569405D01*
X169725001Y-100315374D01*
X169608084Y-100033110D01*
X169548480Y-99733460D01*
X169548480Y-99427940D01*
X169608084Y-99128290D01*
X169725001Y-98846026D01*
X169894739Y-98591995D01*
X170110775Y-98375959D01*
X170364806Y-98206221D01*
X170647070Y-98089304D01*
X170796895Y-98059502D01*
X170946719Y-98029700D01*
X171252241Y-98029700D01*
X171402065Y-98059502D01*
X171402065Y-98059502D01*
G37*
G36*
X178995564Y-82301389D02*
G01*
X179186833Y-82380615D01*
X179186835Y-82380616D01*
X179358973Y-82495635D01*
X179505365Y-82642027D01*
X179620385Y-82814167D01*
X179699611Y-83005436D01*
X179740000Y-83208484D01*
X179740000Y-83415516D01*
X179699611Y-83618564D01*
X179620385Y-83809833D01*
X179620384Y-83809835D01*
X179505365Y-83981973D01*
X179358973Y-84128365D01*
X179186835Y-84243384D01*
X179186834Y-84243385D01*
X179186833Y-84243385D01*
X178995564Y-84322611D01*
X178792516Y-84363000D01*
X178585484Y-84363000D01*
X178382436Y-84322611D01*
X178191167Y-84243385D01*
X178191166Y-84243385D01*
X178191165Y-84243384D01*
X178019027Y-84128365D01*
X177872635Y-83981973D01*
X177757616Y-83809835D01*
X177757615Y-83809833D01*
X177678389Y-83618564D01*
X177638000Y-83415516D01*
X177638000Y-83208484D01*
X177678389Y-83005436D01*
X177757615Y-82814167D01*
X177872635Y-82642027D01*
X178019027Y-82495635D01*
X178191165Y-82380616D01*
X178191167Y-82380615D01*
X178382436Y-82301389D01*
X178585484Y-82261000D01*
X178792516Y-82261000D01*
X178995564Y-82301389D01*
X178995564Y-82301389D01*
G37*
G36*
X189155564Y-82301389D02*
G01*
X189346833Y-82380615D01*
X189346835Y-82380616D01*
X189518973Y-82495635D01*
X189665365Y-82642027D01*
X189780385Y-82814167D01*
X189859611Y-83005436D01*
X189900000Y-83208484D01*
X189900000Y-83415516D01*
X189859611Y-83618564D01*
X189780385Y-83809833D01*
X189780384Y-83809835D01*
X189665365Y-83981973D01*
X189518973Y-84128365D01*
X189346835Y-84243384D01*
X189346834Y-84243385D01*
X189346833Y-84243385D01*
X189155564Y-84322611D01*
X188952516Y-84363000D01*
X188745484Y-84363000D01*
X188542436Y-84322611D01*
X188351167Y-84243385D01*
X188351166Y-84243385D01*
X188351165Y-84243384D01*
X188179027Y-84128365D01*
X188032635Y-83981973D01*
X187917616Y-83809835D01*
X187917615Y-83809833D01*
X187838389Y-83618564D01*
X187798000Y-83415516D01*
X187798000Y-83208484D01*
X187838389Y-83005436D01*
X187917615Y-82814167D01*
X188032635Y-82642027D01*
X188179027Y-82495635D01*
X188351165Y-82380616D01*
X188351167Y-82380615D01*
X188542436Y-82301389D01*
X188745484Y-82261000D01*
X188952516Y-82261000D01*
X189155564Y-82301389D01*
X189155564Y-82301389D01*
G37*
G36*
X186615564Y-82301389D02*
G01*
X186806833Y-82380615D01*
X186806835Y-82380616D01*
X186978973Y-82495635D01*
X187125365Y-82642027D01*
X187240385Y-82814167D01*
X187319611Y-83005436D01*
X187360000Y-83208484D01*
X187360000Y-83415516D01*
X187319611Y-83618564D01*
X187240385Y-83809833D01*
X187240384Y-83809835D01*
X187125365Y-83981973D01*
X186978973Y-84128365D01*
X186806835Y-84243384D01*
X186806834Y-84243385D01*
X186806833Y-84243385D01*
X186615564Y-84322611D01*
X186412516Y-84363000D01*
X186205484Y-84363000D01*
X186002436Y-84322611D01*
X185811167Y-84243385D01*
X185811166Y-84243385D01*
X185811165Y-84243384D01*
X185639027Y-84128365D01*
X185492635Y-83981973D01*
X185377616Y-83809835D01*
X185377615Y-83809833D01*
X185298389Y-83618564D01*
X185258000Y-83415516D01*
X185258000Y-83208484D01*
X185298389Y-83005436D01*
X185377615Y-82814167D01*
X185492635Y-82642027D01*
X185639027Y-82495635D01*
X185811165Y-82380616D01*
X185811167Y-82380615D01*
X186002436Y-82301389D01*
X186205484Y-82261000D01*
X186412516Y-82261000D01*
X186615564Y-82301389D01*
X186615564Y-82301389D01*
G37*
G36*
X184075564Y-82301389D02*
G01*
X184266833Y-82380615D01*
X184266835Y-82380616D01*
X184438973Y-82495635D01*
X184585365Y-82642027D01*
X184700385Y-82814167D01*
X184779611Y-83005436D01*
X184820000Y-83208484D01*
X184820000Y-83415516D01*
X184779611Y-83618564D01*
X184700385Y-83809833D01*
X184700384Y-83809835D01*
X184585365Y-83981973D01*
X184438973Y-84128365D01*
X184266835Y-84243384D01*
X184266834Y-84243385D01*
X184266833Y-84243385D01*
X184075564Y-84322611D01*
X183872516Y-84363000D01*
X183665484Y-84363000D01*
X183462436Y-84322611D01*
X183271167Y-84243385D01*
X183271166Y-84243385D01*
X183271165Y-84243384D01*
X183099027Y-84128365D01*
X182952635Y-83981973D01*
X182837616Y-83809835D01*
X182837615Y-83809833D01*
X182758389Y-83618564D01*
X182718000Y-83415516D01*
X182718000Y-83208484D01*
X182758389Y-83005436D01*
X182837615Y-82814167D01*
X182952635Y-82642027D01*
X183099027Y-82495635D01*
X183271165Y-82380616D01*
X183271167Y-82380615D01*
X183462436Y-82301389D01*
X183665484Y-82261000D01*
X183872516Y-82261000D01*
X184075564Y-82301389D01*
X184075564Y-82301389D01*
G37*
G36*
X181535564Y-82301389D02*
G01*
X181726833Y-82380615D01*
X181726835Y-82380616D01*
X181898973Y-82495635D01*
X182045365Y-82642027D01*
X182160385Y-82814167D01*
X182239611Y-83005436D01*
X182280000Y-83208484D01*
X182280000Y-83415516D01*
X182239611Y-83618564D01*
X182160385Y-83809833D01*
X182160384Y-83809835D01*
X182045365Y-83981973D01*
X181898973Y-84128365D01*
X181726835Y-84243384D01*
X181726834Y-84243385D01*
X181726833Y-84243385D01*
X181535564Y-84322611D01*
X181332516Y-84363000D01*
X181125484Y-84363000D01*
X180922436Y-84322611D01*
X180731167Y-84243385D01*
X180731166Y-84243385D01*
X180731165Y-84243384D01*
X180559027Y-84128365D01*
X180412635Y-83981973D01*
X180297616Y-83809835D01*
X180297615Y-83809833D01*
X180218389Y-83618564D01*
X180178000Y-83415516D01*
X180178000Y-83208484D01*
X180218389Y-83005436D01*
X180297615Y-82814167D01*
X180412635Y-82642027D01*
X180559027Y-82495635D01*
X180731165Y-82380616D01*
X180731167Y-82380615D01*
X180922436Y-82301389D01*
X181125484Y-82261000D01*
X181332516Y-82261000D01*
X181535564Y-82301389D01*
X181535564Y-82301389D01*
G37*
G36*
X171402585Y-67058802D02*
G01*
X171552410Y-67088604D01*
X171834674Y-67205521D01*
X172088705Y-67375259D01*
X172304741Y-67591295D01*
X172474479Y-67845326D01*
X172591396Y-68127590D01*
X172591396Y-68127591D01*
X172651000Y-68427239D01*
X172651000Y-68732761D01*
X172621198Y-68882585D01*
X172591396Y-69032410D01*
X172474479Y-69314674D01*
X172304741Y-69568705D01*
X172088705Y-69784741D01*
X171834674Y-69954479D01*
X171552410Y-70071396D01*
X171402585Y-70101198D01*
X171252761Y-70131000D01*
X170947239Y-70131000D01*
X170797415Y-70101198D01*
X170647590Y-70071396D01*
X170365326Y-69954479D01*
X170111295Y-69784741D01*
X169895259Y-69568705D01*
X169725521Y-69314674D01*
X169608604Y-69032410D01*
X169578802Y-68882585D01*
X169549000Y-68732761D01*
X169549000Y-68427239D01*
X169608604Y-68127591D01*
X169608604Y-68127590D01*
X169725521Y-67845326D01*
X169895259Y-67591295D01*
X170111295Y-67375259D01*
X170365326Y-67205521D01*
X170647590Y-67088604D01*
X170797415Y-67058802D01*
X170947239Y-67029000D01*
X171252761Y-67029000D01*
X171402585Y-67058802D01*
X171402585Y-67058802D01*
G37*
G36*
X96403485Y-67058802D02*
G01*
X96553310Y-67088604D01*
X96835574Y-67205521D01*
X97089605Y-67375259D01*
X97305641Y-67591295D01*
X97475379Y-67845326D01*
X97592296Y-68127590D01*
X97592296Y-68127591D01*
X97651900Y-68427239D01*
X97651900Y-68732761D01*
X97622098Y-68882585D01*
X97592296Y-69032410D01*
X97475379Y-69314674D01*
X97305641Y-69568705D01*
X97089605Y-69784741D01*
X96835574Y-69954479D01*
X96553310Y-70071396D01*
X96403485Y-70101198D01*
X96253661Y-70131000D01*
X95948139Y-70131000D01*
X95798315Y-70101198D01*
X95648490Y-70071396D01*
X95366226Y-69954479D01*
X95112195Y-69784741D01*
X94896159Y-69568705D01*
X94726421Y-69314674D01*
X94609504Y-69032410D01*
X94579702Y-68882585D01*
X94549900Y-68732761D01*
X94549900Y-68427239D01*
X94609504Y-68127591D01*
X94609504Y-68127590D01*
X94726421Y-67845326D01*
X94896159Y-67591295D01*
X95112195Y-67375259D01*
X95366226Y-67205521D01*
X95648490Y-67088604D01*
X95798315Y-67058802D01*
X95948139Y-67029000D01*
X96253661Y-67029000D01*
X96403485Y-67058802D01*
X96403485Y-67058802D01*
G37*
G36*
X109406424Y-67242760D02*
G01*
X109406427Y-67242761D01*
X109406428Y-67242761D01*
X109585692Y-67297140D01*
X109585695Y-67297142D01*
X109585696Y-67297142D01*
X109750903Y-67385446D01*
X109895712Y-67504288D01*
X110014554Y-67649097D01*
X110076738Y-67765436D01*
X110102860Y-67814307D01*
X110157239Y-67993571D01*
X110157240Y-67993575D01*
X110171000Y-68133282D01*
X110171000Y-69026717D01*
X110157240Y-69166426D01*
X110102859Y-69345695D01*
X110014554Y-69510903D01*
X109895712Y-69655712D01*
X109750903Y-69774554D01*
X109585697Y-69862858D01*
X109585693Y-69862860D01*
X109406429Y-69917239D01*
X109406428Y-69917239D01*
X109406425Y-69917240D01*
X109220000Y-69935601D01*
X109033576Y-69917240D01*
X109033573Y-69917239D01*
X109033572Y-69917239D01*
X108854308Y-69862860D01*
X108854304Y-69862858D01*
X108689098Y-69774554D01*
X108544289Y-69655712D01*
X108425447Y-69510903D01*
X108337140Y-69345692D01*
X108282760Y-69166430D01*
X108269000Y-69026718D01*
X108269000Y-68133283D01*
X108282760Y-67993576D01*
X108282761Y-67993572D01*
X108337140Y-67814308D01*
X108337143Y-67814303D01*
X108425446Y-67649097D01*
X108544288Y-67504288D01*
X108689097Y-67385446D01*
X108854303Y-67297142D01*
X108854304Y-67297142D01*
X108854307Y-67297140D01*
X109033571Y-67242761D01*
X109033572Y-67242761D01*
X109033575Y-67242760D01*
X109220000Y-67224399D01*
X109406424Y-67242760D01*
X109406424Y-67242760D01*
G37*
G36*
X106866424Y-67242760D02*
G01*
X106866427Y-67242761D01*
X106866428Y-67242761D01*
X107045692Y-67297140D01*
X107045695Y-67297142D01*
X107045696Y-67297142D01*
X107210903Y-67385446D01*
X107355712Y-67504288D01*
X107474554Y-67649097D01*
X107536738Y-67765436D01*
X107562860Y-67814307D01*
X107617239Y-67993571D01*
X107617240Y-67993575D01*
X107631000Y-68133282D01*
X107631000Y-69026717D01*
X107617240Y-69166426D01*
X107562859Y-69345695D01*
X107474554Y-69510903D01*
X107355712Y-69655712D01*
X107210903Y-69774554D01*
X107045697Y-69862858D01*
X107045693Y-69862860D01*
X106866429Y-69917239D01*
X106866428Y-69917239D01*
X106866425Y-69917240D01*
X106680000Y-69935601D01*
X106493576Y-69917240D01*
X106493573Y-69917239D01*
X106493572Y-69917239D01*
X106314308Y-69862860D01*
X106314304Y-69862858D01*
X106149098Y-69774554D01*
X106004289Y-69655712D01*
X105885447Y-69510903D01*
X105797140Y-69345692D01*
X105742760Y-69166430D01*
X105729000Y-69026718D01*
X105729000Y-68133283D01*
X105742760Y-67993576D01*
X105742761Y-67993572D01*
X105797140Y-67814308D01*
X105797143Y-67814303D01*
X105885446Y-67649097D01*
X106004288Y-67504288D01*
X106149097Y-67385446D01*
X106314303Y-67297142D01*
X106314304Y-67297142D01*
X106314307Y-67297140D01*
X106493571Y-67242761D01*
X106493572Y-67242761D01*
X106493575Y-67242760D01*
X106680000Y-67224399D01*
X106866424Y-67242760D01*
X106866424Y-67242760D01*
G37*
G36*
X104326424Y-67242760D02*
G01*
X104326427Y-67242761D01*
X104326428Y-67242761D01*
X104505692Y-67297140D01*
X104505695Y-67297142D01*
X104505696Y-67297142D01*
X104670903Y-67385446D01*
X104815712Y-67504288D01*
X104934554Y-67649097D01*
X104996738Y-67765436D01*
X105022860Y-67814307D01*
X105077239Y-67993571D01*
X105077240Y-67993575D01*
X105091000Y-68133282D01*
X105091000Y-69026717D01*
X105077240Y-69166426D01*
X105022859Y-69345695D01*
X104934554Y-69510903D01*
X104815712Y-69655712D01*
X104670903Y-69774554D01*
X104505697Y-69862858D01*
X104505693Y-69862860D01*
X104326429Y-69917239D01*
X104326428Y-69917239D01*
X104326425Y-69917240D01*
X104140000Y-69935601D01*
X103953576Y-69917240D01*
X103953573Y-69917239D01*
X103953572Y-69917239D01*
X103774308Y-69862860D01*
X103774304Y-69862858D01*
X103609098Y-69774554D01*
X103464289Y-69655712D01*
X103345447Y-69510903D01*
X103257140Y-69345692D01*
X103202760Y-69166430D01*
X103189000Y-69026718D01*
X103189000Y-68133283D01*
X103202760Y-67993576D01*
X103202761Y-67993572D01*
X103257140Y-67814308D01*
X103257143Y-67814303D01*
X103345446Y-67649097D01*
X103464288Y-67504288D01*
X103609097Y-67385446D01*
X103774303Y-67297142D01*
X103774304Y-67297142D01*
X103774307Y-67297140D01*
X103953571Y-67242761D01*
X103953572Y-67242761D01*
X103953575Y-67242760D01*
X104140000Y-67224399D01*
X104326424Y-67242760D01*
X104326424Y-67242760D01*
G37*
G36*
X117026424Y-67242760D02*
G01*
X117026427Y-67242761D01*
X117026428Y-67242761D01*
X117205692Y-67297140D01*
X117205695Y-67297142D01*
X117205696Y-67297142D01*
X117370903Y-67385446D01*
X117515712Y-67504288D01*
X117634554Y-67649097D01*
X117696738Y-67765436D01*
X117722860Y-67814307D01*
X117777239Y-67993571D01*
X117777240Y-67993575D01*
X117791000Y-68133282D01*
X117791000Y-69026717D01*
X117777240Y-69166426D01*
X117722859Y-69345695D01*
X117634554Y-69510903D01*
X117515712Y-69655712D01*
X117370903Y-69774554D01*
X117205697Y-69862858D01*
X117205693Y-69862860D01*
X117026429Y-69917239D01*
X117026428Y-69917239D01*
X117026425Y-69917240D01*
X116840000Y-69935601D01*
X116653576Y-69917240D01*
X116653573Y-69917239D01*
X116653572Y-69917239D01*
X116474308Y-69862860D01*
X116474304Y-69862858D01*
X116309098Y-69774554D01*
X116164289Y-69655712D01*
X116045447Y-69510903D01*
X115957140Y-69345692D01*
X115902760Y-69166430D01*
X115889000Y-69026718D01*
X115889000Y-68133283D01*
X115902760Y-67993576D01*
X115902761Y-67993572D01*
X115957140Y-67814308D01*
X115957143Y-67814303D01*
X116045446Y-67649097D01*
X116164288Y-67504288D01*
X116309097Y-67385446D01*
X116474303Y-67297142D01*
X116474304Y-67297142D01*
X116474307Y-67297140D01*
X116653571Y-67242761D01*
X116653572Y-67242761D01*
X116653575Y-67242760D01*
X116840000Y-67224399D01*
X117026424Y-67242760D01*
X117026424Y-67242760D01*
G37*
G36*
X119566424Y-67242760D02*
G01*
X119566427Y-67242761D01*
X119566428Y-67242761D01*
X119745692Y-67297140D01*
X119745695Y-67297142D01*
X119745696Y-67297142D01*
X119910903Y-67385446D01*
X120055712Y-67504288D01*
X120174554Y-67649097D01*
X120236738Y-67765436D01*
X120262860Y-67814307D01*
X120317239Y-67993571D01*
X120317240Y-67993575D01*
X120331000Y-68133282D01*
X120331000Y-69026717D01*
X120317240Y-69166426D01*
X120262859Y-69345695D01*
X120174554Y-69510903D01*
X120055712Y-69655712D01*
X119910903Y-69774554D01*
X119745697Y-69862858D01*
X119745693Y-69862860D01*
X119566429Y-69917239D01*
X119566428Y-69917239D01*
X119566425Y-69917240D01*
X119380000Y-69935601D01*
X119193576Y-69917240D01*
X119193573Y-69917239D01*
X119193572Y-69917239D01*
X119014308Y-69862860D01*
X119014304Y-69862858D01*
X118849098Y-69774554D01*
X118704289Y-69655712D01*
X118585447Y-69510903D01*
X118497140Y-69345692D01*
X118442760Y-69166430D01*
X118429000Y-69026718D01*
X118429000Y-68133283D01*
X118442760Y-67993576D01*
X118442761Y-67993572D01*
X118497140Y-67814308D01*
X118497143Y-67814303D01*
X118585446Y-67649097D01*
X118704288Y-67504288D01*
X118849097Y-67385446D01*
X119014303Y-67297142D01*
X119014304Y-67297142D01*
X119014307Y-67297140D01*
X119193571Y-67242761D01*
X119193572Y-67242761D01*
X119193575Y-67242760D01*
X119380000Y-67224399D01*
X119566424Y-67242760D01*
X119566424Y-67242760D01*
G37*
G36*
X132266424Y-67242760D02*
G01*
X132266427Y-67242761D01*
X132266428Y-67242761D01*
X132445692Y-67297140D01*
X132445695Y-67297142D01*
X132445696Y-67297142D01*
X132610903Y-67385446D01*
X132755712Y-67504288D01*
X132874554Y-67649097D01*
X132936738Y-67765436D01*
X132962860Y-67814307D01*
X133017239Y-67993571D01*
X133017240Y-67993575D01*
X133031000Y-68133282D01*
X133031000Y-69026717D01*
X133017240Y-69166426D01*
X132962859Y-69345695D01*
X132874554Y-69510903D01*
X132755712Y-69655712D01*
X132610903Y-69774554D01*
X132445697Y-69862858D01*
X132445693Y-69862860D01*
X132266429Y-69917239D01*
X132266428Y-69917239D01*
X132266425Y-69917240D01*
X132080000Y-69935601D01*
X131893576Y-69917240D01*
X131893573Y-69917239D01*
X131893572Y-69917239D01*
X131714308Y-69862860D01*
X131714304Y-69862858D01*
X131549098Y-69774554D01*
X131404289Y-69655712D01*
X131285447Y-69510903D01*
X131197140Y-69345692D01*
X131142760Y-69166430D01*
X131129000Y-69026718D01*
X131129000Y-68133283D01*
X131142760Y-67993576D01*
X131142761Y-67993572D01*
X131197140Y-67814308D01*
X131197143Y-67814303D01*
X131285446Y-67649097D01*
X131404288Y-67504288D01*
X131549097Y-67385446D01*
X131714303Y-67297142D01*
X131714304Y-67297142D01*
X131714307Y-67297140D01*
X131893571Y-67242761D01*
X131893572Y-67242761D01*
X131893575Y-67242760D01*
X132080000Y-67224399D01*
X132266424Y-67242760D01*
X132266424Y-67242760D01*
G37*
G36*
X111946424Y-67242760D02*
G01*
X111946427Y-67242761D01*
X111946428Y-67242761D01*
X112125692Y-67297140D01*
X112125695Y-67297142D01*
X112125696Y-67297142D01*
X112290903Y-67385446D01*
X112435712Y-67504288D01*
X112554554Y-67649097D01*
X112616738Y-67765436D01*
X112642860Y-67814307D01*
X112697239Y-67993571D01*
X112697240Y-67993575D01*
X112711000Y-68133282D01*
X112711000Y-69026717D01*
X112697240Y-69166426D01*
X112642859Y-69345695D01*
X112554554Y-69510903D01*
X112435712Y-69655712D01*
X112290903Y-69774554D01*
X112125697Y-69862858D01*
X112125693Y-69862860D01*
X111946429Y-69917239D01*
X111946428Y-69917239D01*
X111946425Y-69917240D01*
X111760000Y-69935601D01*
X111573576Y-69917240D01*
X111573573Y-69917239D01*
X111573572Y-69917239D01*
X111394308Y-69862860D01*
X111394304Y-69862858D01*
X111229098Y-69774554D01*
X111084289Y-69655712D01*
X110965447Y-69510903D01*
X110877140Y-69345692D01*
X110822760Y-69166430D01*
X110809000Y-69026718D01*
X110809000Y-68133283D01*
X110822760Y-67993576D01*
X110822761Y-67993572D01*
X110877140Y-67814308D01*
X110877143Y-67814303D01*
X110965446Y-67649097D01*
X111084288Y-67504288D01*
X111229097Y-67385446D01*
X111394303Y-67297142D01*
X111394304Y-67297142D01*
X111394307Y-67297140D01*
X111573571Y-67242761D01*
X111573572Y-67242761D01*
X111573575Y-67242760D01*
X111760000Y-67224399D01*
X111946424Y-67242760D01*
X111946424Y-67242760D01*
G37*
G36*
X139886424Y-67242760D02*
G01*
X139886427Y-67242761D01*
X139886428Y-67242761D01*
X140065692Y-67297140D01*
X140065695Y-67297142D01*
X140065696Y-67297142D01*
X140230903Y-67385446D01*
X140375712Y-67504288D01*
X140494554Y-67649097D01*
X140556738Y-67765436D01*
X140582860Y-67814307D01*
X140637239Y-67993571D01*
X140637240Y-67993575D01*
X140651000Y-68133282D01*
X140651000Y-69026717D01*
X140637240Y-69166426D01*
X140582859Y-69345695D01*
X140494554Y-69510903D01*
X140375712Y-69655712D01*
X140230903Y-69774554D01*
X140065697Y-69862858D01*
X140065693Y-69862860D01*
X139886429Y-69917239D01*
X139886428Y-69917239D01*
X139886425Y-69917240D01*
X139700000Y-69935601D01*
X139513576Y-69917240D01*
X139513573Y-69917239D01*
X139513572Y-69917239D01*
X139334308Y-69862860D01*
X139334304Y-69862858D01*
X139169098Y-69774554D01*
X139024289Y-69655712D01*
X138905447Y-69510903D01*
X138817140Y-69345692D01*
X138762760Y-69166430D01*
X138749000Y-69026718D01*
X138749000Y-68133283D01*
X138762760Y-67993576D01*
X138762761Y-67993572D01*
X138817140Y-67814308D01*
X138817143Y-67814303D01*
X138905446Y-67649097D01*
X139024288Y-67504288D01*
X139169097Y-67385446D01*
X139334303Y-67297142D01*
X139334304Y-67297142D01*
X139334307Y-67297140D01*
X139513571Y-67242761D01*
X139513572Y-67242761D01*
X139513575Y-67242760D01*
X139700000Y-67224399D01*
X139886424Y-67242760D01*
X139886424Y-67242760D01*
G37*
G36*
X137346424Y-67242760D02*
G01*
X137346427Y-67242761D01*
X137346428Y-67242761D01*
X137525692Y-67297140D01*
X137525695Y-67297142D01*
X137525696Y-67297142D01*
X137690903Y-67385446D01*
X137835712Y-67504288D01*
X137954554Y-67649097D01*
X138016738Y-67765436D01*
X138042860Y-67814307D01*
X138097239Y-67993571D01*
X138097240Y-67993575D01*
X138111000Y-68133282D01*
X138111000Y-69026717D01*
X138097240Y-69166426D01*
X138042859Y-69345695D01*
X137954554Y-69510903D01*
X137835712Y-69655712D01*
X137690903Y-69774554D01*
X137525697Y-69862858D01*
X137525693Y-69862860D01*
X137346429Y-69917239D01*
X137346428Y-69917239D01*
X137346425Y-69917240D01*
X137160000Y-69935601D01*
X136973576Y-69917240D01*
X136973573Y-69917239D01*
X136973572Y-69917239D01*
X136794308Y-69862860D01*
X136794304Y-69862858D01*
X136629098Y-69774554D01*
X136484289Y-69655712D01*
X136365447Y-69510903D01*
X136277140Y-69345692D01*
X136222760Y-69166430D01*
X136209000Y-69026718D01*
X136209000Y-68133283D01*
X136222760Y-67993576D01*
X136222761Y-67993572D01*
X136277140Y-67814308D01*
X136277143Y-67814303D01*
X136365446Y-67649097D01*
X136484288Y-67504288D01*
X136629097Y-67385446D01*
X136794303Y-67297142D01*
X136794304Y-67297142D01*
X136794307Y-67297140D01*
X136973571Y-67242761D01*
X136973572Y-67242761D01*
X136973575Y-67242760D01*
X137160000Y-67224399D01*
X137346424Y-67242760D01*
X137346424Y-67242760D01*
G37*
G36*
X134806424Y-67242760D02*
G01*
X134806427Y-67242761D01*
X134806428Y-67242761D01*
X134985692Y-67297140D01*
X134985695Y-67297142D01*
X134985696Y-67297142D01*
X135150903Y-67385446D01*
X135295712Y-67504288D01*
X135414554Y-67649097D01*
X135476738Y-67765436D01*
X135502860Y-67814307D01*
X135557239Y-67993571D01*
X135557240Y-67993575D01*
X135571000Y-68133282D01*
X135571000Y-69026717D01*
X135557240Y-69166426D01*
X135502859Y-69345695D01*
X135414554Y-69510903D01*
X135295712Y-69655712D01*
X135150903Y-69774554D01*
X134985697Y-69862858D01*
X134985693Y-69862860D01*
X134806429Y-69917239D01*
X134806428Y-69917239D01*
X134806425Y-69917240D01*
X134620000Y-69935601D01*
X134433576Y-69917240D01*
X134433573Y-69917239D01*
X134433572Y-69917239D01*
X134254308Y-69862860D01*
X134254304Y-69862858D01*
X134089098Y-69774554D01*
X133944289Y-69655712D01*
X133825447Y-69510903D01*
X133737140Y-69345692D01*
X133682760Y-69166430D01*
X133669000Y-69026718D01*
X133669000Y-68133283D01*
X133682760Y-67993576D01*
X133682761Y-67993572D01*
X133737140Y-67814308D01*
X133737143Y-67814303D01*
X133825446Y-67649097D01*
X133944288Y-67504288D01*
X134089097Y-67385446D01*
X134254303Y-67297142D01*
X134254304Y-67297142D01*
X134254307Y-67297140D01*
X134433571Y-67242761D01*
X134433572Y-67242761D01*
X134433575Y-67242760D01*
X134620000Y-67224399D01*
X134806424Y-67242760D01*
X134806424Y-67242760D01*
G37*
G36*
X129726424Y-67242760D02*
G01*
X129726427Y-67242761D01*
X129726428Y-67242761D01*
X129905692Y-67297140D01*
X129905695Y-67297142D01*
X129905696Y-67297142D01*
X130070903Y-67385446D01*
X130215712Y-67504288D01*
X130334554Y-67649097D01*
X130396738Y-67765436D01*
X130422860Y-67814307D01*
X130477239Y-67993571D01*
X130477240Y-67993575D01*
X130491000Y-68133282D01*
X130491000Y-69026717D01*
X130477240Y-69166426D01*
X130422859Y-69345695D01*
X130334554Y-69510903D01*
X130215712Y-69655712D01*
X130070903Y-69774554D01*
X129905697Y-69862858D01*
X129905693Y-69862860D01*
X129726429Y-69917239D01*
X129726428Y-69917239D01*
X129726425Y-69917240D01*
X129540000Y-69935601D01*
X129353576Y-69917240D01*
X129353573Y-69917239D01*
X129353572Y-69917239D01*
X129174308Y-69862860D01*
X129174304Y-69862858D01*
X129009098Y-69774554D01*
X128864289Y-69655712D01*
X128745447Y-69510903D01*
X128657140Y-69345692D01*
X128602760Y-69166430D01*
X128589000Y-69026718D01*
X128589000Y-68133283D01*
X128602760Y-67993576D01*
X128602761Y-67993572D01*
X128657140Y-67814308D01*
X128657143Y-67814303D01*
X128745446Y-67649097D01*
X128864288Y-67504288D01*
X129009097Y-67385446D01*
X129174303Y-67297142D01*
X129174304Y-67297142D01*
X129174307Y-67297140D01*
X129353571Y-67242761D01*
X129353572Y-67242761D01*
X129353575Y-67242760D01*
X129540000Y-67224399D01*
X129726424Y-67242760D01*
X129726424Y-67242760D01*
G37*
G36*
X127186424Y-67242760D02*
G01*
X127186427Y-67242761D01*
X127186428Y-67242761D01*
X127365692Y-67297140D01*
X127365695Y-67297142D01*
X127365696Y-67297142D01*
X127530903Y-67385446D01*
X127675712Y-67504288D01*
X127794554Y-67649097D01*
X127856738Y-67765436D01*
X127882860Y-67814307D01*
X127937239Y-67993571D01*
X127937240Y-67993575D01*
X127951000Y-68133282D01*
X127951000Y-69026717D01*
X127937240Y-69166426D01*
X127882859Y-69345695D01*
X127794554Y-69510903D01*
X127675712Y-69655712D01*
X127530903Y-69774554D01*
X127365697Y-69862858D01*
X127365693Y-69862860D01*
X127186429Y-69917239D01*
X127186428Y-69917239D01*
X127186425Y-69917240D01*
X127000000Y-69935601D01*
X126813576Y-69917240D01*
X126813573Y-69917239D01*
X126813572Y-69917239D01*
X126634308Y-69862860D01*
X126634304Y-69862858D01*
X126469098Y-69774554D01*
X126324289Y-69655712D01*
X126205447Y-69510903D01*
X126117140Y-69345692D01*
X126062760Y-69166430D01*
X126049000Y-69026718D01*
X126049000Y-68133283D01*
X126062760Y-67993576D01*
X126062761Y-67993572D01*
X126117140Y-67814308D01*
X126117143Y-67814303D01*
X126205446Y-67649097D01*
X126324288Y-67504288D01*
X126469097Y-67385446D01*
X126634303Y-67297142D01*
X126634304Y-67297142D01*
X126634307Y-67297140D01*
X126813571Y-67242761D01*
X126813572Y-67242761D01*
X126813575Y-67242760D01*
X127000000Y-67224399D01*
X127186424Y-67242760D01*
X127186424Y-67242760D01*
G37*
G36*
X124646424Y-67242760D02*
G01*
X124646427Y-67242761D01*
X124646428Y-67242761D01*
X124825692Y-67297140D01*
X124825695Y-67297142D01*
X124825696Y-67297142D01*
X124990903Y-67385446D01*
X125135712Y-67504288D01*
X125254554Y-67649097D01*
X125316738Y-67765436D01*
X125342860Y-67814307D01*
X125397239Y-67993571D01*
X125397240Y-67993575D01*
X125411000Y-68133282D01*
X125411000Y-69026717D01*
X125397240Y-69166426D01*
X125342859Y-69345695D01*
X125254554Y-69510903D01*
X125135712Y-69655712D01*
X124990903Y-69774554D01*
X124825697Y-69862858D01*
X124825693Y-69862860D01*
X124646429Y-69917239D01*
X124646428Y-69917239D01*
X124646425Y-69917240D01*
X124460000Y-69935601D01*
X124273576Y-69917240D01*
X124273573Y-69917239D01*
X124273572Y-69917239D01*
X124094308Y-69862860D01*
X124094304Y-69862858D01*
X123929098Y-69774554D01*
X123784289Y-69655712D01*
X123665447Y-69510903D01*
X123577140Y-69345692D01*
X123522760Y-69166430D01*
X123509000Y-69026718D01*
X123509000Y-68133283D01*
X123522760Y-67993576D01*
X123522761Y-67993572D01*
X123577140Y-67814308D01*
X123577143Y-67814303D01*
X123665446Y-67649097D01*
X123784288Y-67504288D01*
X123929097Y-67385446D01*
X124094303Y-67297142D01*
X124094304Y-67297142D01*
X124094307Y-67297140D01*
X124273571Y-67242761D01*
X124273572Y-67242761D01*
X124273575Y-67242760D01*
X124460000Y-67224399D01*
X124646424Y-67242760D01*
X124646424Y-67242760D01*
G37*
G36*
X114486424Y-67242760D02*
G01*
X114486427Y-67242761D01*
X114486428Y-67242761D01*
X114665692Y-67297140D01*
X114665695Y-67297142D01*
X114665696Y-67297142D01*
X114830903Y-67385446D01*
X114975712Y-67504288D01*
X115094554Y-67649097D01*
X115156738Y-67765436D01*
X115182860Y-67814307D01*
X115237239Y-67993571D01*
X115237240Y-67993575D01*
X115251000Y-68133282D01*
X115251000Y-69026717D01*
X115237240Y-69166426D01*
X115182859Y-69345695D01*
X115094554Y-69510903D01*
X114975712Y-69655712D01*
X114830903Y-69774554D01*
X114665697Y-69862858D01*
X114665693Y-69862860D01*
X114486429Y-69917239D01*
X114486428Y-69917239D01*
X114486425Y-69917240D01*
X114300000Y-69935601D01*
X114113576Y-69917240D01*
X114113573Y-69917239D01*
X114113572Y-69917239D01*
X113934308Y-69862860D01*
X113934304Y-69862858D01*
X113769098Y-69774554D01*
X113624289Y-69655712D01*
X113505447Y-69510903D01*
X113417140Y-69345692D01*
X113362760Y-69166430D01*
X113349000Y-69026718D01*
X113349000Y-68133283D01*
X113362760Y-67993576D01*
X113362761Y-67993572D01*
X113417140Y-67814308D01*
X113417143Y-67814303D01*
X113505446Y-67649097D01*
X113624288Y-67504288D01*
X113769097Y-67385446D01*
X113934303Y-67297142D01*
X113934304Y-67297142D01*
X113934307Y-67297140D01*
X114113571Y-67242761D01*
X114113572Y-67242761D01*
X114113575Y-67242760D01*
X114300000Y-67224399D01*
X114486424Y-67242760D01*
X114486424Y-67242760D01*
G37*
G36*
X122106424Y-67242760D02*
G01*
X122106427Y-67242761D01*
X122106428Y-67242761D01*
X122285692Y-67297140D01*
X122285695Y-67297142D01*
X122285696Y-67297142D01*
X122450903Y-67385446D01*
X122595712Y-67504288D01*
X122714554Y-67649097D01*
X122776738Y-67765436D01*
X122802860Y-67814307D01*
X122857239Y-67993571D01*
X122857240Y-67993575D01*
X122871000Y-68133282D01*
X122871000Y-69026717D01*
X122857240Y-69166426D01*
X122802859Y-69345695D01*
X122714554Y-69510903D01*
X122595712Y-69655712D01*
X122450903Y-69774554D01*
X122285697Y-69862858D01*
X122285693Y-69862860D01*
X122106429Y-69917239D01*
X122106428Y-69917239D01*
X122106425Y-69917240D01*
X121920000Y-69935601D01*
X121733576Y-69917240D01*
X121733573Y-69917239D01*
X121733572Y-69917239D01*
X121554308Y-69862860D01*
X121554304Y-69862858D01*
X121389098Y-69774554D01*
X121244289Y-69655712D01*
X121125447Y-69510903D01*
X121037140Y-69345692D01*
X120982760Y-69166430D01*
X120969000Y-69026718D01*
X120969000Y-68133283D01*
X120982760Y-67993576D01*
X120982761Y-67993572D01*
X121037140Y-67814308D01*
X121037143Y-67814303D01*
X121125446Y-67649097D01*
X121244288Y-67504288D01*
X121389097Y-67385446D01*
X121554303Y-67297142D01*
X121554304Y-67297142D01*
X121554307Y-67297140D01*
X121733571Y-67242761D01*
X121733572Y-67242761D01*
X121733575Y-67242760D01*
X121920000Y-67224399D01*
X122106424Y-67242760D01*
X122106424Y-67242760D01*
G37*
G36*
X102551000Y-69931000D02*
G01*
X100649000Y-69931000D01*
X100649000Y-67229000D01*
X102551000Y-67229000D01*
X102551000Y-69931000D01*
X102551000Y-69931000D01*
G37*
G36*
X186615564Y-67061389D02*
G01*
X186806833Y-67140615D01*
X186806835Y-67140616D01*
X186978973Y-67255635D01*
X187125365Y-67402027D01*
X187193694Y-67504288D01*
X187240385Y-67574167D01*
X187319611Y-67765436D01*
X187360000Y-67968484D01*
X187360000Y-68175516D01*
X187319611Y-68378564D01*
X187240385Y-68569833D01*
X187240384Y-68569835D01*
X187125365Y-68741973D01*
X186978973Y-68888365D01*
X186806835Y-69003384D01*
X186806834Y-69003385D01*
X186806833Y-69003385D01*
X186615564Y-69082611D01*
X186412516Y-69123000D01*
X186205484Y-69123000D01*
X186002436Y-69082611D01*
X185811167Y-69003385D01*
X185811166Y-69003385D01*
X185811165Y-69003384D01*
X185639027Y-68888365D01*
X185492635Y-68741973D01*
X185377616Y-68569835D01*
X185377615Y-68569833D01*
X185298389Y-68378564D01*
X185258000Y-68175516D01*
X185258000Y-67968484D01*
X185298389Y-67765436D01*
X185377615Y-67574167D01*
X185424307Y-67504288D01*
X185492635Y-67402027D01*
X185639027Y-67255635D01*
X185811165Y-67140616D01*
X185811167Y-67140615D01*
X186002436Y-67061389D01*
X186205484Y-67021000D01*
X186412516Y-67021000D01*
X186615564Y-67061389D01*
X186615564Y-67061389D01*
G37*
G36*
X189155564Y-67061389D02*
G01*
X189346833Y-67140615D01*
X189346835Y-67140616D01*
X189518973Y-67255635D01*
X189665365Y-67402027D01*
X189733694Y-67504288D01*
X189780385Y-67574167D01*
X189859611Y-67765436D01*
X189900000Y-67968484D01*
X189900000Y-68175516D01*
X189859611Y-68378564D01*
X189780385Y-68569833D01*
X189780384Y-68569835D01*
X189665365Y-68741973D01*
X189518973Y-68888365D01*
X189346835Y-69003384D01*
X189346834Y-69003385D01*
X189346833Y-69003385D01*
X189155564Y-69082611D01*
X188952516Y-69123000D01*
X188745484Y-69123000D01*
X188542436Y-69082611D01*
X188351167Y-69003385D01*
X188351166Y-69003385D01*
X188351165Y-69003384D01*
X188179027Y-68888365D01*
X188032635Y-68741973D01*
X187917616Y-68569835D01*
X187917615Y-68569833D01*
X187838389Y-68378564D01*
X187798000Y-68175516D01*
X187798000Y-67968484D01*
X187838389Y-67765436D01*
X187917615Y-67574167D01*
X187964307Y-67504288D01*
X188032635Y-67402027D01*
X188179027Y-67255635D01*
X188351165Y-67140616D01*
X188351167Y-67140615D01*
X188542436Y-67061389D01*
X188745484Y-67021000D01*
X188952516Y-67021000D01*
X189155564Y-67061389D01*
X189155564Y-67061389D01*
G37*
G36*
X184075564Y-67061389D02*
G01*
X184266833Y-67140615D01*
X184266835Y-67140616D01*
X184438973Y-67255635D01*
X184585365Y-67402027D01*
X184653694Y-67504288D01*
X184700385Y-67574167D01*
X184779611Y-67765436D01*
X184820000Y-67968484D01*
X184820000Y-68175516D01*
X184779611Y-68378564D01*
X184700385Y-68569833D01*
X184700384Y-68569835D01*
X184585365Y-68741973D01*
X184438973Y-68888365D01*
X184266835Y-69003384D01*
X184266834Y-69003385D01*
X184266833Y-69003385D01*
X184075564Y-69082611D01*
X183872516Y-69123000D01*
X183665484Y-69123000D01*
X183462436Y-69082611D01*
X183271167Y-69003385D01*
X183271166Y-69003385D01*
X183271165Y-69003384D01*
X183099027Y-68888365D01*
X182952635Y-68741973D01*
X182837616Y-68569835D01*
X182837615Y-68569833D01*
X182758389Y-68378564D01*
X182718000Y-68175516D01*
X182718000Y-67968484D01*
X182758389Y-67765436D01*
X182837615Y-67574167D01*
X182884307Y-67504288D01*
X182952635Y-67402027D01*
X183099027Y-67255635D01*
X183271165Y-67140616D01*
X183271167Y-67140615D01*
X183462436Y-67061389D01*
X183665484Y-67021000D01*
X183872516Y-67021000D01*
X184075564Y-67061389D01*
X184075564Y-67061389D01*
G37*
G36*
X181535564Y-67061389D02*
G01*
X181726833Y-67140615D01*
X181726835Y-67140616D01*
X181898973Y-67255635D01*
X182045365Y-67402027D01*
X182113694Y-67504288D01*
X182160385Y-67574167D01*
X182239611Y-67765436D01*
X182280000Y-67968484D01*
X182280000Y-68175516D01*
X182239611Y-68378564D01*
X182160385Y-68569833D01*
X182160384Y-68569835D01*
X182045365Y-68741973D01*
X181898973Y-68888365D01*
X181726835Y-69003384D01*
X181726834Y-69003385D01*
X181726833Y-69003385D01*
X181535564Y-69082611D01*
X181332516Y-69123000D01*
X181125484Y-69123000D01*
X180922436Y-69082611D01*
X180731167Y-69003385D01*
X180731166Y-69003385D01*
X180731165Y-69003384D01*
X180559027Y-68888365D01*
X180412635Y-68741973D01*
X180297616Y-68569835D01*
X180297615Y-68569833D01*
X180218389Y-68378564D01*
X180178000Y-68175516D01*
X180178000Y-67968484D01*
X180218389Y-67765436D01*
X180297615Y-67574167D01*
X180344307Y-67504288D01*
X180412635Y-67402027D01*
X180559027Y-67255635D01*
X180731165Y-67140616D01*
X180731167Y-67140615D01*
X180922436Y-67061389D01*
X181125484Y-67021000D01*
X181332516Y-67021000D01*
X181535564Y-67061389D01*
X181535564Y-67061389D01*
G37*
G36*
X178995564Y-67061389D02*
G01*
X179186833Y-67140615D01*
X179186835Y-67140616D01*
X179358973Y-67255635D01*
X179505365Y-67402027D01*
X179573694Y-67504288D01*
X179620385Y-67574167D01*
X179699611Y-67765436D01*
X179740000Y-67968484D01*
X179740000Y-68175516D01*
X179699611Y-68378564D01*
X179620385Y-68569833D01*
X179620384Y-68569835D01*
X179505365Y-68741973D01*
X179358973Y-68888365D01*
X179186835Y-69003384D01*
X179186834Y-69003385D01*
X179186833Y-69003385D01*
X178995564Y-69082611D01*
X178792516Y-69123000D01*
X178585484Y-69123000D01*
X178382436Y-69082611D01*
X178191167Y-69003385D01*
X178191166Y-69003385D01*
X178191165Y-69003384D01*
X178019027Y-68888365D01*
X177872635Y-68741973D01*
X177757616Y-68569835D01*
X177757615Y-68569833D01*
X177678389Y-68378564D01*
X177638000Y-68175516D01*
X177638000Y-67968484D01*
X177678389Y-67765436D01*
X177757615Y-67574167D01*
X177804307Y-67504288D01*
X177872635Y-67402027D01*
X178019027Y-67255635D01*
X178191165Y-67140616D01*
X178191167Y-67140615D01*
X178382436Y-67061389D01*
X178585484Y-67021000D01*
X178792516Y-67021000D01*
X178995564Y-67061389D01*
X178995564Y-67061389D01*
G37*
M02*
